<svg width="434" height="417" viewBox="0 0 434 417" fill="none" xmlns="http://www.w3.org/2000/svg">
<path d="M282.705 34.3586L99.3828 54.7595L127.743 309.602L311.065 289.201L282.705 34.3586Z" fill="white" stroke="#263238" stroke-linecap="round" stroke-linejoin="round"/>
<path d="M282.705 34.3597L99.3828 54.7606L103.307 90.021L286.629 69.6201L282.705 34.3597Z" fill="#BFBFBF" stroke="#263238" stroke-linecap="round" stroke-linejoin="round"/>
<path d="M231.769 50.6063L152.631 59.41C152.263 59.4283 151.903 59.5214 151.572 59.6836C151.242 59.8458 150.948 60.0737 150.708 60.3533C150.469 60.633 150.289 60.9585 150.179 61.3101C150.07 61.6616 150.033 62.0318 150.071 62.398C150.11 62.7642 150.223 63.1187 150.403 63.4399C150.583 63.7611 150.826 64.0422 151.119 64.2661C151.411 64.4899 151.746 64.6518 152.103 64.7419C152.46 64.832 152.831 64.8483 153.195 64.79L232.334 55.9863C233.026 55.8816 233.651 55.5128 234.078 54.9573C234.504 54.4017 234.699 53.7027 234.621 53.0067C234.543 52.3108 234.199 51.672 233.66 51.2245C233.121 50.777 232.43 50.5554 231.732 50.6063H231.769Z" fill="white"/>
<path d="M213.213 63.8494L173.653 68.2512C173.476 68.2688 173.305 68.3213 173.149 68.4059C172.993 68.4904 172.855 68.6052 172.744 68.7436C172.633 68.8819 172.55 69.0411 172.501 69.2117C172.452 69.3823 172.438 69.561 172.458 69.7373C172.496 70.0938 172.674 70.4207 172.953 70.6464C173.231 70.8721 173.588 70.9781 173.945 70.9412L213.514 66.5394C213.86 66.4871 214.173 66.3027 214.386 66.0249C214.599 65.7471 214.696 65.3976 214.657 65.0496C214.619 64.7017 214.446 64.3823 214.177 64.1585C213.908 63.9347 213.562 63.824 213.213 63.8494Z" fill="white"/>
<path opacity="0.3" d="M242.784 94.3424L139.087 105.874C138.821 105.904 138.578 106.038 138.411 106.247C138.245 106.456 138.168 106.723 138.198 106.988C138.228 107.254 138.362 107.497 138.571 107.664C138.78 107.83 139.047 107.907 139.312 107.877L242.981 96.3458C243.247 96.3159 243.49 96.1816 243.656 95.9726C243.823 95.7636 243.9 95.4969 243.87 95.2312C243.84 94.9656 243.706 94.7227 243.497 94.556C243.288 94.3893 243.021 94.3125 242.755 94.3424H242.784Z" fill="black"/>
<path opacity="0.3" d="M243.584 101.538L124.358 114.8C124.092 114.83 123.85 114.964 123.683 115.173C123.516 115.382 123.439 115.649 123.469 115.914C123.499 116.18 123.633 116.423 123.842 116.589C124.051 116.756 124.318 116.833 124.584 116.803L243.809 103.541C243.945 103.533 244.078 103.497 244.199 103.437C244.321 103.376 244.429 103.291 244.517 103.187C244.605 103.083 244.671 102.963 244.711 102.833C244.751 102.703 244.764 102.567 244.75 102.431C244.735 102.295 244.693 102.163 244.625 102.043C244.558 101.923 244.467 101.819 244.358 101.735C244.249 101.652 244.124 101.591 243.991 101.557C243.858 101.523 243.719 101.517 243.584 101.538Z" fill="black"/>
<path opacity="0.3" d="M213.269 112.194L125.157 121.995C124.891 122.025 124.648 122.159 124.482 122.368C124.315 122.577 124.238 122.844 124.268 123.11C124.298 123.375 124.432 123.618 124.641 123.785C124.85 123.951 125.117 124.028 125.383 123.998L213.485 114.198C213.621 114.19 213.753 114.154 213.875 114.093C213.997 114.032 214.105 113.948 214.193 113.844C214.28 113.74 214.346 113.62 214.386 113.49C214.427 113.36 214.44 113.223 214.426 113.088C214.411 112.952 214.368 112.821 214.302 112.702C214.235 112.583 214.145 112.479 214.037 112.395C213.929 112.312 213.805 112.251 213.673 112.217C213.541 112.182 213.404 112.175 213.269 112.194Z" fill="black"/>
<path opacity="0.3" d="M269.076 90.5207L258.559 91.691C257.145 91.8485 256.126 93.1228 256.283 94.5374L257.453 105.054C257.611 106.468 258.885 107.488 260.3 107.33L270.816 106.16C272.231 106.002 273.25 104.728 273.092 103.313L271.922 92.797C271.765 91.3824 270.49 90.3633 269.076 90.5207Z" stroke="#263238" stroke-linecap="round" stroke-linejoin="round"/>
<path d="M260.43 98.6032L263.891 101.867L268.443 94.8973" stroke="#92E3A9" stroke-width="3" stroke-linecap="round" stroke-linejoin="round"/>
<path opacity="0.3" d="M246.576 128.428L142.907 139.96C142.641 139.99 142.398 140.124 142.232 140.333C142.065 140.542 141.988 140.809 142.018 141.074C142.048 141.34 142.182 141.583 142.391 141.75C142.6 141.916 142.867 141.993 143.133 141.963L246.801 130.432C246.933 130.417 247.06 130.376 247.176 130.312C247.292 130.248 247.394 130.162 247.477 130.059C247.559 129.955 247.62 129.836 247.657 129.709C247.694 129.582 247.705 129.449 247.69 129.317C247.675 129.186 247.635 129.058 247.571 128.943C247.507 128.827 247.42 128.725 247.317 128.642C247.213 128.56 247.095 128.498 246.968 128.462C246.84 128.425 246.707 128.414 246.576 128.428Z" fill="black"/>
<path opacity="0.3" d="M247.375 135.624L128.149 148.886C128.018 148.9 127.89 148.941 127.774 149.005C127.658 149.069 127.556 149.155 127.474 149.259C127.391 149.362 127.33 149.481 127.293 149.608C127.257 149.735 127.245 149.869 127.26 150C127.275 150.132 127.316 150.259 127.38 150.375C127.444 150.491 127.53 150.593 127.633 150.675C127.737 150.758 127.856 150.819 127.983 150.856C128.11 150.893 128.243 150.904 128.375 150.889L247.6 137.627C247.866 137.597 248.109 137.463 248.276 137.254C248.442 137.045 248.519 136.778 248.489 136.512C248.459 136.247 248.325 136.004 248.116 135.837C247.907 135.671 247.64 135.594 247.375 135.624Z" fill="black"/>
<path opacity="0.3" d="M217.06 146.28L128.948 156.081C128.682 156.111 128.439 156.245 128.273 156.454C128.106 156.663 128.029 156.93 128.059 157.195C128.089 157.461 128.223 157.704 128.432 157.871C128.641 158.037 128.908 158.114 129.174 158.084L217.276 148.284C217.412 148.276 217.544 148.24 217.666 148.179C217.788 148.118 217.896 148.033 217.984 147.93C218.071 147.826 218.137 147.706 218.177 147.576C218.218 147.446 218.231 147.309 218.217 147.174C218.202 147.038 218.16 146.907 218.093 146.788C218.026 146.669 217.936 146.565 217.828 146.481C217.72 146.398 217.596 146.337 217.464 146.303C217.332 146.268 217.195 146.26 217.06 146.28Z" fill="black"/>
<path opacity="0.3" d="M272.869 124.599L262.352 125.769C260.938 125.927 259.919 127.201 260.076 128.616L261.246 139.132C261.404 140.547 262.678 141.566 264.093 141.408L274.609 140.238C276.024 140.081 277.043 138.806 276.885 137.392L275.715 126.875C275.558 125.461 274.283 124.442 272.869 124.599Z" stroke="#263238" stroke-linecap="round" stroke-linejoin="round"/>
<path d="M264.229 132.689L267.68 135.953L272.233 128.983" stroke="#92E3A9" stroke-width="3" stroke-linecap="round" stroke-linejoin="round"/>
<path opacity="0.3" d="M250.366 162.514L146.697 174.046C146.448 174.094 146.226 174.234 146.076 174.438C145.926 174.642 145.859 174.895 145.887 175.147C145.916 175.399 146.038 175.631 146.23 175.796C146.422 175.962 146.669 176.049 146.923 176.04L250.591 164.49C250.723 164.475 250.85 164.434 250.966 164.37C251.082 164.306 251.184 164.22 251.266 164.116C251.349 164.013 251.41 163.894 251.447 163.767C251.484 163.64 251.495 163.507 251.48 163.375C251.465 163.243 251.425 163.116 251.361 163C251.297 162.884 251.21 162.782 251.107 162.7C251.003 162.617 250.885 162.556 250.757 162.519C250.63 162.483 250.497 162.471 250.366 162.486V162.514Z" fill="black"/>
<path opacity="0.3" d="M251.174 169.71L131.939 182.972C131.807 182.984 131.68 183.023 131.563 183.087C131.447 183.15 131.344 183.236 131.262 183.339C131.18 183.443 131.119 183.562 131.083 183.689C131.048 183.817 131.038 183.95 131.055 184.081C131.069 184.213 131.109 184.341 131.172 184.457C131.236 184.573 131.322 184.675 131.425 184.758C131.528 184.841 131.646 184.903 131.773 184.94C131.9 184.978 132.033 184.989 132.165 184.975L251.391 171.713C251.527 171.704 251.66 171.667 251.781 171.605C251.903 171.543 252.011 171.458 252.099 171.353C252.186 171.249 252.252 171.128 252.292 170.997C252.332 170.867 252.345 170.729 252.331 170.594C252.316 170.458 252.274 170.328 252.207 170.209C252.14 170.091 252.05 169.987 251.942 169.904C251.834 169.822 251.71 169.762 251.578 169.728C251.446 169.695 251.309 169.688 251.174 169.71Z" fill="black"/>
<path opacity="0.3" d="M220.851 180.366L132.739 190.167C132.473 190.197 132.23 190.331 132.064 190.54C131.897 190.749 131.82 191.016 131.85 191.282C131.88 191.547 132.014 191.79 132.223 191.957C132.432 192.123 132.699 192.2 132.965 192.17L221.067 182.36C221.333 182.332 221.576 182.199 221.744 181.99C221.911 181.782 221.989 181.516 221.961 181.25C221.932 180.985 221.799 180.741 221.591 180.574C221.383 180.406 221.116 180.328 220.851 180.357V180.366Z" fill="black"/>
<path opacity="0.3" d="M276.662 158.677L266.145 159.848C264.731 160.005 263.712 161.28 263.869 162.694L265.039 173.211C265.197 174.625 266.471 175.644 267.886 175.487L278.402 174.317C279.817 174.159 280.836 172.885 280.678 171.47L279.508 160.954C279.351 159.539 278.076 158.52 276.662 158.677Z" stroke="#263238" stroke-linecap="round" stroke-linejoin="round"/>
<path d="M268.02 166.775L271.471 170.039L276.033 163.06" stroke="#92E3A9" stroke-width="3" stroke-linecap="round" stroke-linejoin="round"/>
<path opacity="0.3" d="M254.157 196.6L150.488 208.132C150.239 208.18 150.017 208.32 149.867 208.524C149.717 208.728 149.65 208.981 149.678 209.233C149.707 209.485 149.829 209.717 150.021 209.882C150.213 210.048 150.46 210.135 150.714 210.126L254.382 198.594C254.521 198.589 254.657 198.556 254.782 198.496C254.907 198.436 255.019 198.351 255.109 198.246C255.2 198.141 255.268 198.018 255.309 197.885C255.35 197.753 255.363 197.613 255.347 197.475C255.331 197.337 255.287 197.204 255.218 197.084C255.148 196.964 255.055 196.86 254.943 196.778C254.831 196.695 254.704 196.637 254.568 196.607C254.433 196.576 254.293 196.574 254.157 196.6Z" fill="black"/>
<path opacity="0.3" d="M254.965 203.796L135.73 217.058C135.598 217.07 135.471 217.109 135.354 217.173C135.238 217.236 135.136 217.322 135.053 217.425C134.971 217.529 134.91 217.648 134.874 217.775C134.839 217.903 134.829 218.036 134.846 218.167C134.86 218.299 134.9 218.427 134.963 218.543C135.027 218.659 135.113 218.761 135.216 218.844C135.319 218.927 135.437 218.989 135.564 219.026C135.691 219.064 135.824 219.075 135.956 219.061L255.182 205.799C255.448 205.768 255.692 205.633 255.859 205.424C256.027 205.214 256.104 204.946 256.075 204.68C256.044 204.416 255.91 204.174 255.702 204.009C255.495 203.843 255.23 203.766 254.965 203.796Z" fill="black"/>
<path opacity="0.3" d="M224.678 214.452L136.566 224.253C136.434 224.266 136.307 224.305 136.19 224.368C136.074 224.431 135.971 224.517 135.889 224.621C135.806 224.724 135.746 224.843 135.71 224.971C135.675 225.098 135.665 225.232 135.682 225.363C135.696 225.494 135.736 225.622 135.799 225.738C135.863 225.854 135.948 225.957 136.052 226.04C136.155 226.123 136.273 226.185 136.4 226.222C136.527 226.259 136.66 226.271 136.792 226.256L224.894 216.456C225.026 216.442 225.153 216.402 225.27 216.338C225.386 216.275 225.488 216.189 225.571 216.086C225.654 215.983 225.716 215.865 225.753 215.738C225.79 215.61 225.802 215.477 225.788 215.346C225.775 215.214 225.736 215.086 225.673 214.969C225.61 214.852 225.524 214.749 225.421 214.666C225.317 214.582 225.198 214.521 225.071 214.484C224.943 214.447 224.81 214.437 224.678 214.452Z" fill="black"/>
<path opacity="0.3" d="M280.457 192.765L269.94 193.936C268.526 194.093 267.507 195.367 267.664 196.782L268.834 207.298C268.992 208.713 270.266 209.732 271.681 209.575L282.197 208.404C283.612 208.247 284.631 206.973 284.473 205.558L283.303 195.042C283.146 193.627 281.871 192.608 280.457 192.765Z" stroke="#263238" stroke-linecap="round" stroke-linejoin="round"/>
<path d="M271.811 200.852L275.262 204.115L279.824 197.146" stroke="#92E3A9" stroke-width="3" stroke-linecap="round" stroke-linejoin="round"/>
<path opacity="0.3" d="M257.955 230.677L154.286 242.208C154.155 242.222 154.027 242.262 153.911 242.326C153.795 242.389 153.692 242.475 153.609 242.578C153.526 242.681 153.465 242.8 153.427 242.926C153.39 243.053 153.378 243.187 153.393 243.318C153.407 243.45 153.447 243.577 153.51 243.693C153.574 243.809 153.659 243.912 153.762 243.995C153.865 244.078 153.984 244.14 154.111 244.177C154.238 244.214 154.371 244.226 154.502 244.212L258.171 232.68C258.303 232.666 258.43 232.626 258.546 232.563C258.663 232.5 258.765 232.414 258.848 232.311C258.931 232.208 258.993 232.089 259.03 231.962C259.067 231.835 259.079 231.702 259.065 231.57C259.034 231.306 258.9 231.064 258.693 230.896C258.485 230.729 258.22 230.65 257.955 230.677Z" fill="black"/>
<path opacity="0.3" d="M258.755 237.853L139.52 251.115C139.381 251.12 139.245 251.154 139.12 251.214C138.995 251.274 138.884 251.359 138.793 251.464C138.702 251.569 138.635 251.692 138.594 251.824C138.553 251.957 138.54 252.096 138.555 252.234C138.571 252.372 138.615 252.505 138.684 252.625C138.754 252.745 138.847 252.85 138.959 252.932C139.071 253.014 139.199 253.072 139.334 253.103C139.469 253.133 139.609 253.136 139.746 253.109L258.971 239.847C259.111 239.844 259.248 239.812 259.374 239.753C259.5 239.694 259.612 239.609 259.704 239.504C259.796 239.4 259.865 239.277 259.907 239.144C259.949 239.011 259.963 238.871 259.948 238.733C259.933 238.594 259.889 238.46 259.82 238.34C259.75 238.219 259.657 238.114 259.544 238.031C259.432 237.949 259.304 237.89 259.168 237.859C259.033 237.829 258.892 237.827 258.755 237.853Z" fill="black"/>
<path opacity="0.3" d="M228.441 248.538L140.329 258.339C140.063 258.369 139.82 258.503 139.654 258.712C139.487 258.921 139.41 259.188 139.44 259.453C139.47 259.719 139.604 259.962 139.813 260.129C140.022 260.295 140.289 260.372 140.554 260.342L228.666 250.542C228.931 250.509 229.172 250.373 229.338 250.163C229.503 249.954 229.58 249.688 229.55 249.422C229.536 249.291 229.497 249.164 229.433 249.048C229.369 248.932 229.284 248.831 229.18 248.748C229.077 248.666 228.958 248.605 228.832 248.569C228.705 248.533 228.572 248.523 228.441 248.538Z" fill="black"/>
<path opacity="0.3" d="M284.25 226.853L273.733 228.023C272.319 228.181 271.299 229.455 271.457 230.87L272.627 241.386C272.785 242.801 274.059 243.82 275.474 243.662L285.99 242.492C287.405 242.335 288.424 241.06 288.266 239.646L287.096 229.129C286.939 227.715 285.664 226.696 284.25 226.853Z" stroke="#263238" stroke-linecap="round" stroke-linejoin="round"/>
<path d="M275.6 234.938L279.051 238.201L283.613 231.232" stroke="#92E3A9" stroke-width="3" stroke-linecap="round" stroke-linejoin="round"/>
<path opacity="0.3" d="M260.843 256.665L157.174 268.215C156.909 268.245 156.666 268.379 156.499 268.588C156.333 268.797 156.256 269.064 156.286 269.329C156.316 269.595 156.45 269.838 156.659 270.005C156.868 270.171 157.135 270.248 157.4 270.218L261.069 258.687C261.201 258.674 261.329 258.635 261.445 258.572C261.561 258.509 261.664 258.423 261.746 258.319C261.829 258.216 261.889 258.097 261.925 257.969C261.961 257.842 261.97 257.708 261.953 257.577C261.941 257.444 261.903 257.314 261.841 257.196C261.778 257.078 261.693 256.973 261.59 256.888C261.486 256.803 261.367 256.739 261.239 256.701C261.111 256.663 260.976 256.65 260.843 256.665Z" fill="black"/>
<path opacity="0.3" d="M261.643 263.888L142.418 277.15C142.279 277.153 142.142 277.186 142.015 277.245C141.889 277.304 141.777 277.388 141.685 277.493C141.593 277.598 141.524 277.72 141.482 277.853C141.44 277.986 141.426 278.126 141.441 278.265C141.456 278.403 141.5 278.537 141.569 278.658C141.639 278.778 141.733 278.884 141.845 278.966C141.957 279.049 142.085 279.107 142.221 279.138C142.357 279.169 142.497 279.171 142.634 279.144L261.869 265.882C262.118 265.834 262.34 265.694 262.49 265.49C262.64 265.286 262.707 265.032 262.679 264.781C262.65 264.529 262.528 264.297 262.336 264.132C262.144 263.966 261.897 263.879 261.643 263.888Z" fill="black"/>
<path opacity="0.3" d="M231.318 274.535L143.216 284.336C143.084 284.35 142.957 284.39 142.841 284.453C142.724 284.517 142.622 284.602 142.539 284.705C142.456 284.809 142.394 284.927 142.357 285.054C142.32 285.181 142.308 285.314 142.322 285.446C142.353 285.712 142.488 285.956 142.698 286.123C142.907 286.291 143.175 286.368 143.442 286.339L231.544 276.539C231.676 276.524 231.803 276.483 231.919 276.419C232.035 276.355 232.137 276.269 232.219 276.165C232.302 276.062 232.363 275.943 232.4 275.816C232.436 275.689 232.448 275.556 232.433 275.424C232.418 275.293 232.377 275.165 232.313 275.049C232.249 274.933 232.163 274.831 232.06 274.749C231.956 274.666 231.837 274.605 231.71 274.568C231.583 274.532 231.45 274.52 231.318 274.535Z" fill="black"/>
<path opacity="0.3" d="M287.146 252.85L276.63 254.02C275.215 254.178 274.196 255.452 274.353 256.867L275.524 267.383C275.681 268.798 276.955 269.817 278.37 269.659L288.886 268.489C290.301 268.332 291.32 267.057 291.163 265.643L289.992 255.126C289.835 253.712 288.561 252.693 287.146 252.85Z" stroke="#263238" stroke-linecap="round" stroke-linejoin="round"/>
<path d="M278.488 260.944L281.94 264.208L286.502 257.238" stroke="#92E3A9" stroke-width="3" stroke-linecap="round" stroke-linejoin="round"/>
<path d="M174.65 190.139C174.741 189.058 174.473 187.977 173.888 187.063L172.731 185.013L170.436 186.311L171.687 188.512C172.308 189.612 172.054 190.289 171.283 190.722C170.512 191.155 169.797 191.042 169.176 189.941L166.495 185.182L163.617 185.746L166.683 191.155C168.085 193.628 170.116 194.334 172.496 193.036C172.874 192.819 173.225 192.556 173.54 192.255C173.406 191.945 173.383 191.599 173.474 191.273C173.564 190.948 173.764 190.664 174.039 190.468C174.223 190.325 174.43 190.214 174.65 190.139Z" fill="#92E3A9"/>
<path d="M162.14 183.141L162.685 184.081H165.855L164.473 181.636C163.852 180.536 164.096 179.84 164.868 179.407C165.639 178.974 166.363 179.106 166.984 180.216L167.924 181.862L170.21 180.564L169.363 179.068C167.962 176.604 165.93 175.889 163.551 177.244C163.005 177.538 162.519 177.934 162.121 178.41C162.662 178.584 163.228 178.663 163.795 178.645L161.538 179.492C161.373 180.108 161.341 180.752 161.444 181.381C161.548 182.011 161.785 182.611 162.14 183.141Z" fill="#92E3A9"/>
<path d="M179.719 173.115C180.02 172.964 180.335 172.841 180.659 172.748C181.873 172.202 182.145 170.453 182.042 169.221L180.791 167.669L177.424 169.55L179.531 173.256C179.586 173.199 179.649 173.152 179.719 173.115Z" fill="#92E3A9"/>
<path d="M194.062 180.479L196.348 179.181L187.61 163.775L185.438 164.997C186.134 165.167 186.632 165.496 186.651 166.004C185.974 166.098 185.146 166.004 184.412 166.136L188.814 177.545L183.246 170.603C183.261 170.757 183.238 170.912 183.179 171.055C183.12 171.197 183.027 171.323 182.907 171.422C182.653 171.6 182.287 171.6 182.089 171.835C181.892 172.071 181.92 172.353 181.751 172.56C181.581 172.767 181.318 172.823 181.111 172.973C180.904 173.124 180.678 173.51 180.443 173.764C180.33 173.883 180.187 173.971 180.029 174.017L186.218 184.928L188.325 183.724L182.146 172.832L190.084 182.727L192.379 181.429L187.742 169.456L194.062 180.479Z" fill="#92E3A9"/>
<path d="M199.847 167.067C200.014 167.15 200.163 167.267 200.284 167.409C200.405 167.551 200.496 167.716 200.552 167.894C200.75 166.732 200.498 165.538 199.847 164.555L198.709 162.543C197.307 160.078 195.361 159.41 192.934 160.784L189.369 162.806L198.116 178.222L200.383 176.933C199.649 176.472 198.831 176.077 198.135 175.579C197.808 175.37 197.54 175.082 197.355 174.742C197.267 174.57 197.23 174.376 197.25 174.184C197.271 173.992 197.346 173.81 197.467 173.66C197.627 173.526 197.821 173.439 198.027 173.411C198.234 173.383 198.444 173.414 198.634 173.5L197.251 171.055L198.399 170.406C199.029 170.064 199.578 169.589 200.007 169.014C199.527 168.252 198.69 166.634 199.847 167.067ZM197.148 168.252L196 168.901L193.037 163.681L194.185 163.032C194.956 162.599 195.577 162.712 196.198 163.812L197.514 166.126C198.135 167.18 197.919 167.772 197.148 168.252Z" fill="#92E3A9"/>
<path d="M212.817 169.879L211.575 167.678L207.587 169.935L201.756 159.655L201.492 159.862C201.322 160.02 201.115 160.133 200.89 160.191C200.777 160.217 200.658 160.2 200.556 160.145C200.454 160.09 200.376 159.999 200.335 159.89C200.303 159.745 200.303 159.594 200.335 159.448C200.337 158.573 200.06 157.72 199.545 157.012L197.664 158.103L206.402 173.51L212.817 169.879Z" fill="#92E3A9"/>
<path d="M211.727 164.49C211.99 163.803 212.809 163.549 213.27 162.928C213.311 162.865 213.348 162.799 213.382 162.731L212.442 161.151L214.821 159.806C214.778 159.655 214.701 159.517 214.596 159.401C214.254 159.234 213.89 159.12 213.514 159.063C213.456 158.946 213.427 158.816 213.429 158.686C213.431 158.555 213.464 158.427 213.526 158.312C213.587 158.197 213.676 158.098 213.783 158.024C213.891 157.95 214.015 157.903 214.144 157.887C214.304 157.887 214.492 157.887 214.615 157.812C214.7 157.709 214.744 157.578 214.737 157.445L214.52 157.069L211.191 158.95L208.764 154.661L212.94 152.281L211.689 150.08L205.105 153.842L211.577 165.251C211.588 164.991 211.639 164.734 211.727 164.49Z" fill="#92E3A9"/>
<path d="M220.483 165.534L219.232 163.333L215.046 165.703L213.795 163.549L212.253 164.997L211.717 165.515L213.88 169.324L220.483 165.534Z" fill="#92E3A9"/>
<path d="M217.37 147.635C217.37 147.964 217.135 148.331 216.815 148.359C216.652 148.357 216.491 148.332 216.335 148.284C216.044 148.289 215.754 148.261 215.47 148.199C215.408 148.174 215.351 148.139 215.3 148.096L212.535 149.666L213.786 151.877L216.316 150.438L223.841 163.606L226.258 162.232L218.733 149.064L221.273 147.625L220.022 145.424L217.426 146.892C217.379 147.136 217.398 147.39 217.37 147.635Z" fill="#92E3A9"/>
<path d="M227.932 156.965L229.813 160.285L232.352 158.846C232.412 158.68 232.488 158.519 232.578 158.366C233.137 157.549 233.89 156.884 234.77 156.429L235.936 155.705L235.165 154.331L230.979 156.711L228.421 152.196L231.75 150.315L230.499 148.114L227.17 149.995L224.743 145.678L228.929 143.308L227.678 141.107L221.094 144.869L225.844 153.25C226.991 152.638 227.565 154.839 227.932 156.965Z" fill="#92E3A9"/>
<path d="M179.22 187.402C179.616 187.467 179.851 187.863 180.161 188.126C180.274 188.23 180.405 188.313 180.547 188.37C180.727 188.299 180.903 188.217 181.073 188.126C183.444 186.781 183.942 184.636 182.55 182.163L182.409 181.918L179.155 181.834L180.217 183.715C180.838 184.815 180.594 185.511 179.822 185.944C179.051 186.376 178.327 186.235 177.706 185.135L173.003 176.811C172.373 175.71 172.627 175.024 173.398 174.582C174.17 174.14 174.884 174.29 175.515 175.391L178.703 181.034C179.682 180.792 180.686 180.665 181.694 180.658L178.017 174.177C176.625 171.713 174.527 171.045 172.147 172.39C169.768 173.735 169.269 175.889 170.671 178.353L175.214 186.367C175.501 186.985 175.93 187.526 176.466 187.946C177.002 188.366 177.63 188.653 178.299 188.784C178.294 188.728 178.294 188.671 178.299 188.615C178.186 188.004 178.637 187.289 179.22 187.402Z" fill="#92E3A9"/>
<path d="M211.697 143.167L219.081 138.982C216.964 139.565 215.102 141.333 212.92 141.088C212.525 140.985 212.111 140.985 211.716 141.088C211.469 141.247 211.292 141.494 211.219 141.778C211.145 142.062 211.182 142.363 211.321 142.622C211.416 142.822 211.543 143.007 211.697 143.167Z" fill="#92E3A9"/>
<path d="M193.178 153.673C193.162 153.511 193.195 153.347 193.272 153.203C193.454 153.266 193.645 153.298 193.837 153.297L196.386 151.858C196.785 151.407 197.24 151.008 197.74 150.673C198.223 150.414 198.734 150.212 199.264 150.071L199.828 149.902L204.531 147.249C204.58 147.153 204.647 147.067 204.728 146.995C204.801 146.947 204.88 146.909 204.964 146.882L200.11 145.415L198.803 146.149L198.662 147.183L193.065 150.174C192.511 150.52 191.895 150.754 191.25 150.861C191.01 150.889 190.767 150.889 190.526 150.861L182.55 155.385C182.613 155.763 182.721 156.132 182.87 156.485C182.402 156.398 181.957 156.216 181.562 155.949L179.926 156.89C181.092 157.661 182.24 158.451 183.359 159.288L193.178 153.673Z" fill="#92E3A9"/>
<path d="M227.322 134.316L223.465 132.153L221.641 133.188C222.716 134.293 224.105 135.042 225.619 135.332L227.322 134.316Z" fill="#92E3A9"/>
<path d="M248.061 157.087L233.501 131.419C232.935 130.427 231.999 129.699 230.897 129.394C229.796 129.089 228.619 129.232 227.623 129.792L225.873 130.789L226.541 131.438C227.237 132.134 227.952 132.84 228.601 133.583L229.485 133.084C229.607 133.016 229.752 132.998 229.887 133.035C230.023 133.072 230.138 133.161 230.209 133.282L244.778 158.959C244.846 159.083 244.862 159.228 244.824 159.364C244.785 159.499 244.694 159.614 244.572 159.683L224.754 170.97C226.466 171.074 228.196 170.829 229.908 171.026C230.525 171.104 231.137 171.214 231.742 171.356L246.434 163.022C246.933 162.742 247.371 162.365 247.724 161.914C248.076 161.463 248.335 160.947 248.487 160.395C248.638 159.843 248.678 159.266 248.605 158.698C248.532 158.131 248.347 157.583 248.061 157.087Z" fill="#92E3A9"/>
<path d="M158.838 189.753L151.991 177.657C151.956 177.596 151.933 177.529 151.924 177.459C151.914 177.389 151.919 177.318 151.938 177.25C151.956 177.181 151.988 177.118 152.031 177.062C152.074 177.006 152.127 176.959 152.189 176.924L171.94 165.712C171.875 165.562 171.79 165.411 171.734 165.261C172.013 165.249 172.292 165.281 172.561 165.355L180.547 160.831C180.283 160.746 180.029 160.643 179.775 160.549L176.013 159.053L173.003 160.765L176.276 162.768C175.138 162.072 172.815 161.978 170.812 162.006L150.373 173.641C149.379 174.206 148.649 175.142 148.344 176.244C148.039 177.346 148.184 178.524 148.746 179.52L154.691 189.998C154.963 189.922 155.245 189.857 155.518 189.809C156.272 189.701 157.034 189.663 157.794 189.697C158.143 189.694 158.492 189.713 158.838 189.753Z" fill="#92E3A9"/>
<path d="M183.237 194.475C183.572 194.775 183.953 195.02 184.366 195.199C184.789 195.387 185.353 195.839 185.024 196.14C183.5 196.836 181.619 196.318 180.124 197.08C179.305 197.475 178.515 198.256 177.641 198.021C178.699 198.663 179.651 199.466 180.462 200.4L217.812 179.219C217.812 179.068 217.859 178.918 217.887 178.758C217.888 178.462 217.957 178.17 218.087 177.904C218.218 177.639 218.407 177.406 218.641 177.225C218.875 177.044 219.148 176.918 219.437 176.858C219.727 176.797 220.027 176.804 220.314 176.877C220.798 176.856 221.283 176.906 221.753 177.027L226.409 174.384C225.77 173.283 225.013 172.255 224.151 171.318L183.237 194.475Z" fill="#92E3A9"/>
<path d="M177.189 200.692C176.288 200.4 175.458 199.922 174.752 199.29L167.303 203.523C167.243 203.558 167.176 203.581 167.107 203.59C167.038 203.599 166.967 203.594 166.9 203.576C166.832 203.557 166.769 203.526 166.714 203.483C166.659 203.44 166.613 203.386 166.579 203.325L159.995 191.785C159.364 191.567 158.693 191.489 158.029 191.559C157.267 191.709 156.6 192.594 157.013 193.243C157.402 193.253 157.782 193.366 158.112 193.571C158.443 193.776 158.713 194.065 158.895 194.409C158.489 194.732 158.043 195 157.568 195.208L163.212 205.188C163.492 205.692 163.87 206.135 164.324 206.49C164.778 206.846 165.299 207.107 165.855 207.259C166.412 207.41 166.993 207.449 167.565 207.373C168.136 207.297 168.687 207.107 169.184 206.815L178.947 201.275L178.835 201.209C178.296 201.007 177.746 200.835 177.189 200.692Z" fill="#92E3A9"/>
<g opacity="0.2">
<path d="M174.65 190.139C174.741 189.058 174.473 187.977 173.888 187.063L172.731 185.013L170.436 186.311L171.687 188.512C172.308 189.612 172.054 190.289 171.283 190.722C170.512 191.155 169.797 191.042 169.176 189.941L166.495 185.182L163.617 185.746L166.683 191.155C168.085 193.628 170.116 194.334 172.496 193.036C172.874 192.819 173.225 192.556 173.54 192.255C173.406 191.945 173.383 191.599 173.474 191.273C173.564 190.948 173.764 190.664 174.039 190.468C174.223 190.325 174.43 190.214 174.65 190.139Z" fill="black"/>
<path d="M162.14 183.141L162.685 184.081H165.855L164.473 181.636C163.852 180.536 164.096 179.84 164.868 179.407C165.639 178.974 166.363 179.106 166.984 180.216L167.924 181.862L170.21 180.564L169.363 179.068C167.962 176.604 165.93 175.889 163.551 177.244C163.005 177.538 162.519 177.934 162.121 178.41C162.662 178.584 163.228 178.663 163.795 178.645L161.538 179.492C161.373 180.108 161.341 180.752 161.444 181.381C161.548 182.011 161.785 182.611 162.14 183.141Z" fill="black"/>
<path d="M179.719 173.115C180.02 172.964 180.335 172.841 180.659 172.748C181.873 172.202 182.145 170.453 182.042 169.221L180.791 167.669L177.424 169.55L179.531 173.256C179.586 173.199 179.649 173.152 179.719 173.115Z" fill="black"/>
<path d="M194.062 180.479L196.348 179.181L187.61 163.775L185.438 164.997C186.134 165.167 186.632 165.496 186.651 166.004C185.974 166.098 185.146 166.004 184.412 166.136L188.814 177.545L183.246 170.603C183.261 170.757 183.238 170.912 183.179 171.055C183.12 171.197 183.027 171.323 182.907 171.422C182.653 171.6 182.287 171.6 182.089 171.835C181.892 172.071 181.92 172.353 181.751 172.56C181.581 172.767 181.318 172.823 181.111 172.973C180.904 173.124 180.678 173.51 180.443 173.764C180.33 173.883 180.187 173.971 180.029 174.017L186.218 184.928L188.325 183.724L182.146 172.832L190.084 182.727L192.379 181.429L187.742 169.456L194.062 180.479Z" fill="black"/>
<path d="M199.847 167.067C200.014 167.15 200.163 167.267 200.284 167.409C200.405 167.551 200.496 167.716 200.552 167.894C200.75 166.732 200.498 165.538 199.847 164.555L198.709 162.543C197.307 160.078 195.361 159.41 192.934 160.784L189.369 162.806L198.116 178.222L200.383 176.933C199.649 176.472 198.831 176.077 198.135 175.579C197.808 175.37 197.54 175.082 197.355 174.742C197.267 174.57 197.23 174.376 197.25 174.184C197.271 173.992 197.346 173.81 197.467 173.66C197.627 173.526 197.821 173.439 198.027 173.411C198.234 173.383 198.444 173.414 198.634 173.5L197.251 171.055L198.399 170.406C199.029 170.064 199.578 169.589 200.007 169.014C199.527 168.252 198.69 166.634 199.847 167.067ZM197.148 168.252L196 168.901L193.037 163.681L194.185 163.032C194.956 162.599 195.577 162.712 196.198 163.812L197.514 166.126C198.135 167.18 197.919 167.772 197.148 168.252Z" fill="black"/>
<path d="M212.817 169.879L211.575 167.678L207.587 169.935L201.756 159.655L201.492 159.862C201.322 160.02 201.115 160.133 200.89 160.191C200.777 160.217 200.658 160.2 200.556 160.145C200.454 160.09 200.376 159.999 200.335 159.89C200.303 159.745 200.303 159.594 200.335 159.448C200.337 158.573 200.06 157.72 199.545 157.012L197.664 158.103L206.402 173.51L212.817 169.879Z" fill="black"/>
<path d="M211.727 164.49C211.99 163.803 212.809 163.549 213.27 162.928C213.311 162.865 213.348 162.799 213.382 162.731L212.442 161.151L214.821 159.806C214.778 159.655 214.701 159.517 214.596 159.401C214.254 159.234 213.89 159.12 213.514 159.063C213.456 158.946 213.427 158.816 213.429 158.686C213.431 158.555 213.464 158.427 213.526 158.312C213.587 158.197 213.676 158.098 213.783 158.024C213.891 157.95 214.015 157.903 214.144 157.887C214.304 157.887 214.492 157.887 214.615 157.812C214.7 157.709 214.744 157.578 214.737 157.445L214.52 157.069L211.191 158.95L208.764 154.661L212.94 152.281L211.689 150.08L205.105 153.842L211.577 165.251C211.588 164.991 211.639 164.734 211.727 164.49Z" fill="black"/>
<path d="M220.483 165.534L219.232 163.333L215.046 165.703L213.795 163.549L212.253 164.997L211.717 165.515L213.88 169.324L220.483 165.534Z" fill="black"/>
<path d="M217.37 147.635C217.37 147.964 217.135 148.331 216.815 148.359C216.652 148.357 216.491 148.332 216.335 148.284C216.044 148.289 215.754 148.261 215.47 148.199C215.408 148.174 215.351 148.139 215.3 148.096L212.535 149.666L213.786 151.877L216.316 150.438L223.841 163.606L226.258 162.232L218.733 149.064L221.273 147.625L220.022 145.424L217.426 146.892C217.379 147.136 217.398 147.39 217.37 147.635Z" fill="black"/>
<path d="M227.932 156.965L229.813 160.285L232.352 158.846C232.412 158.68 232.488 158.519 232.578 158.366C233.137 157.549 233.89 156.884 234.77 156.429L235.936 155.705L235.165 154.331L230.979 156.711L228.421 152.196L231.75 150.315L230.499 148.114L227.17 149.995L224.743 145.678L228.929 143.308L227.678 141.107L221.094 144.869L225.844 153.25C226.991 152.638 227.565 154.839 227.932 156.965Z" fill="black"/>
<path d="M179.22 187.402C179.616 187.467 179.851 187.863 180.161 188.126C180.274 188.23 180.405 188.313 180.547 188.37C180.727 188.299 180.903 188.217 181.073 188.126C183.444 186.781 183.942 184.636 182.55 182.163L182.409 181.918L179.155 181.834L180.217 183.715C180.838 184.815 180.594 185.511 179.822 185.944C179.051 186.376 178.327 186.235 177.706 185.135L173.003 176.811C172.373 175.71 172.627 175.024 173.398 174.582C174.17 174.14 174.884 174.29 175.515 175.391L178.703 181.034C179.682 180.792 180.686 180.665 181.694 180.658L178.017 174.177C176.625 171.713 174.527 171.045 172.147 172.39C169.768 173.735 169.269 175.889 170.671 178.353L175.214 186.367C175.501 186.985 175.93 187.526 176.466 187.946C177.002 188.366 177.63 188.653 178.299 188.784C178.294 188.728 178.294 188.671 178.299 188.615C178.186 188.004 178.637 187.289 179.22 187.402Z" fill="black"/>
<path d="M211.697 143.167L219.081 138.982C216.964 139.565 215.102 141.333 212.92 141.088C212.525 140.985 212.111 140.985 211.716 141.088C211.469 141.247 211.292 141.494 211.219 141.778C211.145 142.062 211.182 142.363 211.321 142.622C211.416 142.822 211.543 143.007 211.697 143.167Z" fill="black"/>
<path d="M193.178 153.673C193.162 153.511 193.195 153.347 193.272 153.203C193.454 153.266 193.645 153.298 193.837 153.297L196.386 151.858C196.785 151.407 197.24 151.008 197.74 150.673C198.223 150.414 198.734 150.212 199.264 150.071L199.828 149.902L204.531 147.249C204.58 147.153 204.647 147.067 204.728 146.995C204.801 146.947 204.88 146.909 204.964 146.882L200.11 145.415L198.803 146.149L198.662 147.183L193.065 150.174C192.511 150.52 191.895 150.754 191.25 150.861C191.01 150.889 190.767 150.889 190.526 150.861L182.55 155.385C182.613 155.763 182.721 156.132 182.87 156.485C182.402 156.398 181.957 156.216 181.562 155.949L179.926 156.89C181.092 157.661 182.24 158.451 183.359 159.288L193.178 153.673Z" fill="black"/>
<path d="M227.322 134.316L223.465 132.153L221.641 133.188C222.716 134.293 224.105 135.042 225.619 135.332L227.322 134.316Z" fill="black"/>
<path d="M248.061 157.087L233.501 131.419C232.935 130.427 231.999 129.699 230.897 129.394C229.796 129.089 228.619 129.232 227.623 129.792L225.873 130.789L226.541 131.438C227.237 132.134 227.952 132.84 228.601 133.583L229.485 133.084C229.607 133.016 229.752 132.998 229.887 133.035C230.023 133.072 230.138 133.161 230.209 133.282L244.778 158.959C244.846 159.083 244.862 159.228 244.824 159.364C244.785 159.499 244.694 159.614 244.572 159.683L224.754 170.97C226.466 171.074 228.196 170.829 229.908 171.026C230.525 171.104 231.137 171.214 231.742 171.356L246.434 163.022C246.933 162.742 247.371 162.365 247.724 161.914C248.076 161.463 248.335 160.947 248.487 160.395C248.638 159.843 248.678 159.266 248.605 158.698C248.532 158.131 248.347 157.583 248.061 157.087Z" fill="black"/>
<path d="M158.838 189.753L151.991 177.657C151.956 177.596 151.933 177.529 151.924 177.459C151.914 177.389 151.919 177.318 151.938 177.25C151.956 177.181 151.988 177.118 152.031 177.062C152.074 177.006 152.127 176.959 152.189 176.924L171.94 165.712C171.875 165.562 171.79 165.411 171.734 165.261C172.013 165.249 172.292 165.281 172.561 165.355L180.547 160.831C180.283 160.746 180.029 160.643 179.775 160.549L176.013 159.053L173.003 160.765L176.276 162.768C175.138 162.072 172.815 161.978 170.812 162.006L150.373 173.641C149.379 174.206 148.649 175.142 148.344 176.244C148.039 177.346 148.184 178.524 148.746 179.52L154.691 189.998C154.963 189.922 155.245 189.857 155.518 189.809C156.272 189.701 157.034 189.663 157.794 189.697C158.143 189.694 158.492 189.713 158.838 189.753Z" fill="black"/>
<path d="M183.237 194.475C183.572 194.775 183.953 195.02 184.366 195.199C184.789 195.387 185.353 195.839 185.024 196.14C183.5 196.836 181.619 196.318 180.124 197.08C179.305 197.475 178.515 198.256 177.641 198.021C178.699 198.663 179.651 199.466 180.462 200.4L217.812 179.219C217.812 179.068 217.859 178.918 217.887 178.758C217.888 178.462 217.957 178.17 218.087 177.904C218.218 177.639 218.407 177.406 218.641 177.225C218.875 177.044 219.148 176.918 219.437 176.858C219.727 176.797 220.027 176.804 220.314 176.877C220.798 176.856 221.283 176.906 221.753 177.027L226.409 174.384C225.77 173.283 225.013 172.255 224.151 171.318L183.237 194.475Z" fill="black"/>
<path d="M177.189 200.692C176.288 200.4 175.458 199.922 174.752 199.29L167.303 203.523C167.243 203.558 167.176 203.581 167.107 203.59C167.038 203.599 166.967 203.594 166.9 203.576C166.832 203.557 166.769 203.526 166.714 203.483C166.659 203.44 166.613 203.386 166.579 203.325L159.995 191.785C159.364 191.567 158.693 191.489 158.029 191.559C157.267 191.709 156.6 192.594 157.013 193.243C157.402 193.253 157.782 193.366 158.112 193.571C158.443 193.776 158.713 194.065 158.895 194.409C158.489 194.732 158.043 195 157.568 195.208L163.212 205.188C163.492 205.692 163.87 206.135 164.324 206.49C164.778 206.846 165.299 207.107 165.855 207.259C166.412 207.41 166.993 207.449 167.565 207.373C168.136 207.297 168.687 207.107 169.184 206.815L178.947 201.275L178.835 201.209C178.296 201.007 177.746 200.835 177.189 200.692Z" fill="black"/>
</g>
<path opacity="0.3" d="M134.835 167.104C140.572 171.318 145.369 191.559 145.802 210.116C146.234 228.674 155.207 259.966 156.279 265.092C157.352 270.218 156.957 277.611 163.616 267.321C170.275 257.031 189.754 239.17 197.871 245.105C205.988 251.04 192.322 270.989 184.92 281.731C177.517 292.472 176.765 311.387 167.895 323.228C159.026 335.07 151.012 352.95 142.322 352.677C133.631 352.404 76.0684 395.106 76.0684 395.106L77.197 336.659L128.928 252.009L134.835 167.104Z" fill="black" fill-opacity="0.7"/>
<path d="M202.594 247.974C202.302 249.808 192.172 263.23 186.218 273.275C180.265 283.32 174.687 300.805 173.192 303.373C171.696 305.941 153.44 321.977 148.436 328.683C143.432 335.39 134.497 338.352 125.571 344.673C119.834 348.736 101.953 369.701 89.9049 384.177C83.2081 392.218 78.3078 398.285 78.3078 398.285L1.28516 378.204C1.28516 378.204 7.66216 372.946 16.052 365.854H16.1084L16.1931 365.789C29.9817 354.079 49.1974 337.553 54.5021 331.317C63.0519 321.272 74.9594 309.336 74.9594 309.336C74.2351 295.388 75.7118 282.173 74.4044 277.15C73.7272 274.526 72.5233 259.599 71.5828 255.009C69.2972 243.28 59.3554 231.128 58.2362 226.341C57.1169 221.553 43.9961 201.171 50.4013 197.409C51.5658 196.676 52.9499 196.373 54.314 196.553C62.9672 197.748 70.0967 218.647 75.0064 223.971C77.1102 226.491 79.0158 229.17 80.7062 231.984C84.5813 238.126 88.3812 245.03 88.3812 245.03C89.8673 239.076 79.079 217.866 76.0974 197.776C73.1159 177.686 64.5662 166.897 76.0974 165.656C77.0449 165.55 78.0041 165.633 78.9191 165.9C87.0362 168.271 90.5539 185.135 95.4072 201.501C95.8587 203.006 99.5551 213.813 102.433 222.146C104.314 227.601 105.819 231.994 105.819 231.994C106.186 221.76 102.998 212.242 102.471 202.968C102.245 199.253 103.411 184.364 101.944 169.484C100.684 156.927 101.257 151.839 106.167 150.851C107.219 150.662 108.291 150.612 109.356 150.701C117.868 151.237 120.887 173.858 120.887 182.68C120.887 187.806 121.762 197.814 122.495 205.319C123.031 210.746 123.492 214.866 123.492 214.866C123.492 214.866 124.978 202.404 123.869 175.522C123.615 169.634 124 165.421 126.314 163.718C127.584 162.778 129.418 162.618 132.051 163.333C139.491 165.345 141.909 192.913 141.909 203.335C141.909 213.756 147.862 231.608 148.982 245.66C150.101 259.712 154.973 276.981 154.973 276.981C154.973 276.981 157.729 278.1 159.582 277.733C161.435 277.366 174.283 258.386 174.283 258.386C180.265 245.397 191.909 241.456 198.248 242.914C201.164 243.581 203.045 245.378 202.594 247.974Z" fill="white"/>
<path opacity="0.4" d="M202.593 247.974C202.301 249.808 192.172 263.23 186.218 273.275C180.264 283.32 174.687 300.805 173.191 303.373C171.696 305.941 153.439 321.977 148.435 328.683C143.432 335.39 134.496 338.352 125.57 344.673C119.833 348.736 101.953 369.701 89.9043 384.177C91.2305 378.928 94.2027 372.222 101.972 365.779C115.459 354.577 116.268 345.792 123.52 338.352C130.772 330.913 143.545 333.142 148.134 324.244C152.724 315.346 168.733 307.126 172.081 299.31C175.43 291.494 168.733 289.838 174.687 280.433C180.64 271.027 186.415 268.741 185.569 265.054C184.722 261.367 182.22 255.78 187.384 251.125C190.61 248.228 194.401 244.588 198.276 242.914C201.163 243.581 203.044 245.378 202.593 247.974Z" fill="#92E3A9"/>
<path opacity="0.4" d="M106.092 292.124C103.619 290.882 105.603 288.409 103.863 286.349C102.123 284.289 98.1539 297.588 97.2792 297.635C96.4045 297.683 93.7427 290.873 92.6893 290.196C91.6358 289.518 91.0151 292.368 89.5196 297.635C88.0241 302.903 82.5312 305.574 79.3427 309.336C76.1542 313.098 56.9761 333.556 52.2639 341.24C47.5517 348.924 18.4507 364.133 16.1934 365.77C29.982 354.079 49.1977 337.553 54.5024 331.317C63.0522 321.272 74.9597 309.336 74.9597 309.336C74.2354 295.388 75.7121 282.173 74.4047 277.15C73.7275 274.526 72.5236 259.599 71.5831 255.009C69.2975 243.28 59.3557 231.128 58.2365 226.341C57.1172 221.553 43.9964 201.171 50.4016 197.409C51.5661 196.676 52.9502 196.373 54.3143 196.553C52.8565 197.588 51.4362 199.074 52.7624 201.256C55.1232 205.075 57.7192 209.091 57.7192 213.314C57.7192 217.537 64.9145 223.482 67.7079 227.423C70.5014 231.363 67.896 229.971 69.7584 235.37C71.6207 240.769 73.8498 239.64 74.9597 245.096C76.0695 250.551 82.2772 254.031 81.2897 260.831C80.3021 267.632 84.2618 277.094 84.2618 277.094C84.2618 277.094 87.488 267.923 86.3122 262.985C85.1366 258.047 86.5004 251.821 85.3717 250.147C84.4311 248.642 81.854 238.427 80.6689 232.078C84.544 238.22 88.3439 245.124 88.3439 245.124C89.83 239.17 79.0417 217.96 76.0601 197.87C73.0785 177.78 64.5288 166.991 76.0601 165.75C77.0076 165.644 77.9667 165.727 78.8818 165.994C83.8009 175.184 80.3773 181.984 79.2863 185.972C78.0917 190.317 85.2024 201.472 86.2558 209.157C87.1964 216.333 89.1339 215.59 89.3879 215.459C89.1716 215.656 87.3375 217.528 88.4473 222.851C89.6042 228.495 97.853 241.898 97.853 245.641C97.853 249.385 97.1757 255.545 97.1757 257.37C97.1757 259.195 103.76 271.403 104.55 274.601C105.34 277.799 104.239 268.44 106.036 265.196C107.832 261.951 108.782 250.626 109.017 251.238C112.112 259.101 108.575 293.347 106.092 292.124Z" fill="#92E3A9"/>
<path opacity="0.4" d="M111.425 208.075C109.318 211.264 109.375 236.151 105.782 236.236C104.042 236.236 103.195 229.981 102.49 222.127C104.371 227.582 105.876 231.975 105.876 231.975C106.242 221.742 103.054 212.223 102.527 202.949C102.302 199.234 103.468 184.345 102.001 169.465C100.74 156.909 101.314 151.82 106.224 150.833C107.258 154.181 109.798 158.131 110.447 161.8C111.331 166.86 109.6 171.045 108.114 171.675C106.628 172.306 106.374 175.569 108.236 176.049C110.099 176.529 108.236 200.278 109.102 203.325C109.967 206.373 113.541 204.934 111.425 208.075Z" fill="#92E3A9"/>
<path opacity="0.4" d="M130.754 180.216C126.888 181.918 126.681 184.966 125.524 189.339C124.367 193.713 127.18 200.099 125.524 210.135C123.869 220.171 129.907 226.642 125.524 237.872C121.141 249.102 123.201 228.467 122.467 219.061C122.215 214.48 122.234 209.888 122.524 205.31C123.06 210.737 123.521 214.857 123.521 214.857C123.521 214.857 125.007 202.394 123.897 175.513C123.643 169.625 124.029 165.411 126.343 163.709C130.312 167.311 134.046 178.767 130.754 180.216Z" fill="#92E3A9"/>
<path d="M78.3085 398.294C78.3085 398.294 116.636 351.041 125.572 344.682C134.507 338.324 143.442 335.38 148.437 328.693C153.431 322.005 171.706 305.988 173.192 303.382C174.678 300.777 180.265 283.292 186.219 273.284C192.173 263.277 202.303 249.77 202.594 247.983C203.892 239.791 183.059 239.424 174.312 258.405C174.312 258.405 161.473 277.376 159.611 277.752C157.748 278.128 155.002 277 155.002 277C155.002 277 150.13 259.74 149.011 245.679C147.891 231.617 141.938 213.747 141.938 203.354C141.938 192.96 139.52 165.364 132.08 163.351C124.641 161.339 123.512 166.437 123.898 175.579C125.007 202.46 123.521 214.923 123.521 214.923C123.521 214.923 120.916 191.568 120.916 182.736C120.916 173.905 117.897 151.284 109.385 150.757C101.569 150.259 100.478 154.651 101.973 169.569C103.469 184.486 102.274 199.337 102.5 203.053C103.055 212.355 106.262 221.864 105.848 232.078C105.848 232.078 96.1698 204.059 95.4267 201.567C90.0373 183.301 86.3033 164.49 76.07 165.618C64.5387 166.86 73.0978 177.648 76.07 197.738C79.0421 217.829 89.8398 239.039 88.3537 244.992C88.3537 244.992 79.4278 228.786 74.9789 223.933C69.3355 217.829 60.814 191.23 50.3926 197.372C43.9874 201.134 57.1458 221.582 58.2557 226.369C59.3656 231.157 69.3167 243.299 71.6023 255.037C72.5428 259.627 73.7185 274.554 74.424 277.178C75.7313 282.201 74.2547 295.416 74.9789 309.364C74.9789 309.364 63.0714 321.272 54.5217 331.317C45.972 341.362 1.30469 378.204 1.30469 378.204" stroke="#263238" stroke-linecap="round" stroke-linejoin="round"/>
<path d="M155.002 276.99C156.719 281.228 156.719 285.967 155.002 290.205" stroke="#263238" stroke-linecap="round" stroke-linejoin="round"/>
<path d="M158.133 277.78C159.201 278.564 159.992 279.667 160.392 280.93C160.793 282.193 160.782 283.55 160.362 284.806" stroke="#263238" stroke-linecap="round" stroke-linejoin="round"/>
<path d="M123.521 214.857C123.521 214.857 126.503 235.878 125.196 239.782" stroke="#263238" stroke-linecap="round" stroke-linejoin="round"/>
<path d="M105.848 231.975C106.167 234.007 106.167 236.076 105.848 238.107" stroke="#263238" stroke-linecap="round" stroke-linejoin="round"/>
<path d="M88.3633 244.992C88.3633 244.992 88.9182 248.162 88.3633 248.905" stroke="#263238" stroke-linecap="round" stroke-linejoin="round"/>
<path d="M182.682 262.854C182.682 262.854 186.049 264.678 187.149 267.321" stroke="#263238" stroke-linecap="round" stroke-linejoin="round"/>
<path d="M105.969 175.513C107.06 175.775 108.2 175.758 109.283 175.464C110.366 175.17 111.358 174.608 112.167 173.829" stroke="#263238" stroke-linecap="round" stroke-linejoin="round"/>
<path d="M107.107 205.743C107.107 205.743 113.804 207.972 116.231 205.743" stroke="#263238" stroke-linecap="round" stroke-linejoin="round"/>
<path d="M128.92 212.251C128.92 212.251 133.378 210.577 136.36 211.508" stroke="#263238" stroke-linecap="round" stroke-linejoin="round"/>
<path d="M86.3125 218.205C86.3125 218.205 89.849 213.549 92.6425 214.857" stroke="#263238" stroke-linecap="round" stroke-linejoin="round"/>
<path d="M71.7985 231.975C71.7985 231.975 68.6382 233.461 67.707 235.041" stroke="#263238" stroke-linecap="round" stroke-linejoin="round"/>
<path d="M74.959 309.336C75.7343 308.466 76.4212 307.521 77.0094 306.514C77.5643 305.395 76.8213 293.488 77.0094 285.822" stroke="#263238" stroke-linecap="round" stroke-linejoin="round"/>
<path d="M113.992 356.214C109.609 361.123 96.1687 370.021 90.7793 375.41" stroke="#263238" stroke-linecap="round" stroke-linejoin="round"/>
<path d="M131.704 244.992C129.475 251.322 131.892 259.317 131.704 262.863C131.516 266.409 130.764 282.615 130.764 282.615" stroke="#263238" stroke-linecap="round" stroke-linejoin="round"/>
<path d="M111.426 244.992C108.454 250.015 109.385 256.712 110.316 260.041C111.247 263.371 110.419 276.971 110.419 276.971" stroke="#263238" stroke-linecap="round" stroke-linejoin="round"/>
<path d="M79.4279 260.991C79.1815 264.267 79.8318 267.548 81.309 270.481" stroke="#263238" stroke-linecap="round" stroke-linejoin="round"/>
<path d="M97.8424 251.134C96.1682 257.276 98.4067 260.06 98.5948 260.991" stroke="#263238" stroke-linecap="round" stroke-linejoin="round"/>
<path opacity="0.3" d="M248.965 210.577L245.795 192.18C245.655 191.362 245.682 190.525 245.874 189.718C246.066 188.912 246.419 188.152 246.912 187.485C247.404 186.819 248.027 186.258 248.742 185.838C249.457 185.418 250.249 185.147 251.072 185.041L258.173 184.1C258.173 184.1 255.803 179.294 263.431 165.289C271.059 151.284 307.731 114.085 335.534 176.576C363.337 239.067 388.742 366.409 388.742 366.409C388.742 366.409 313.694 279.012 311.305 274.535C308.916 270.058 286.07 272.739 280.794 260.728C275.517 248.717 264.437 214.443 264.437 214.443L255.859 215.618C254.281 215.832 252.682 215.426 251.397 214.486C250.111 213.547 249.24 212.145 248.965 210.577Z" fill="black" fill-opacity="0.7"/>
<path d="M315.105 168.365L300.704 170.979L280.689 174.619L254.476 179.388C253.973 179.48 253.457 179.472 252.957 179.365C252.458 179.257 251.984 179.052 251.564 178.761C251.143 178.47 250.785 178.099 250.508 177.669C250.231 177.239 250.042 176.759 249.952 176.256L244.196 144.606C244.014 143.591 244.242 142.546 244.829 141.698C245.416 140.851 246.314 140.27 247.328 140.082L262.574 137.26L284.753 133.235L307.956 129.012C308.459 128.919 308.975 128.927 309.475 129.035C309.975 129.142 310.448 129.347 310.868 129.638C311.289 129.929 311.647 130.3 311.924 130.73C312.201 131.16 312.39 131.641 312.48 132.144L318.237 163.794C318.336 164.3 318.333 164.821 318.229 165.326C318.124 165.831 317.921 166.31 317.629 166.736C317.337 167.161 316.964 167.524 316.531 167.804C316.097 168.084 315.612 168.274 315.105 168.365Z" fill="#92E3A9"/>
<mask id="mask0_138_29820" style="mask-type:luminance" maskUnits="userSpaceOnUse" x="244" y="128" width="75" height="52">
<path d="M315.105 168.365L300.704 170.979L280.689 174.619L254.476 179.388C253.973 179.48 253.457 179.472 252.957 179.365C252.458 179.257 251.984 179.052 251.564 178.761C251.143 178.47 250.785 178.099 250.508 177.669C250.231 177.239 250.042 176.759 249.952 176.256L244.196 144.606C244.014 143.591 244.242 142.546 244.829 141.698C245.416 140.851 246.314 140.27 247.328 140.082L262.574 137.26L284.753 133.235L307.956 129.012C308.459 128.919 308.975 128.927 309.475 129.035C309.975 129.142 310.448 129.347 310.868 129.638C311.289 129.929 311.647 130.3 311.924 130.73C312.201 131.16 312.39 131.641 312.48 132.144L318.237 163.794C318.336 164.3 318.333 164.821 318.229 165.326C318.124 165.831 317.921 166.31 317.629 166.736C317.337 167.161 316.964 167.524 316.531 167.804C316.097 168.084 315.612 168.274 315.105 168.365Z" fill="white"/>
</mask>
<g mask="url(#mask0_138_29820)">
<path opacity="0.3" d="M304.919 147.352L300.705 170.979L280.69 174.619C274.896 172.07 265.34 167.631 263.431 165.214C261.155 162.392 261.474 145.763 262.575 137.26L284.753 133.235C292.569 138.624 304.919 147.352 304.919 147.352Z" fill="black" fill-opacity="0.7"/>
<path opacity="0.3" d="M258.454 178.664L254.476 179.388C253.973 179.48 253.457 179.472 252.957 179.365C252.458 179.257 251.984 179.052 251.564 178.761C251.143 178.47 250.785 178.099 250.508 177.669C250.231 177.239 250.042 176.759 249.952 176.256L244.196 144.606C244.014 143.591 244.242 142.546 244.829 141.698C245.416 140.851 246.314 140.27 247.328 140.082L251.297 139.358C250.284 139.545 249.386 140.127 248.801 140.975C248.216 141.823 247.99 142.868 248.174 143.882L253.93 175.532C254.021 176.035 254.21 176.515 254.487 176.945C254.763 177.375 255.122 177.746 255.542 178.037C255.963 178.328 256.436 178.533 256.936 178.641C257.436 178.748 257.952 178.756 258.454 178.664Z" fill="black" fill-opacity="0.7"/>
</g>
<path d="M315.105 168.365L300.704 170.979L280.689 174.619L254.476 179.388C253.973 179.48 253.457 179.472 252.957 179.365C252.458 179.257 251.984 179.052 251.564 178.761C251.143 178.47 250.785 178.099 250.508 177.669C250.231 177.239 250.042 176.759 249.952 176.256L244.196 144.606C244.014 143.591 244.242 142.546 244.829 141.698C245.416 140.851 246.314 140.27 247.328 140.082L262.574 137.26L284.753 133.235L307.956 129.012C308.459 128.919 308.975 128.927 309.475 129.035C309.975 129.142 310.448 129.347 310.868 129.638C311.289 129.929 311.647 130.3 311.924 130.73C312.201 131.16 312.39 131.641 312.48 132.144L318.237 163.794C318.336 164.3 318.333 164.821 318.229 165.326C318.124 165.831 317.92 166.31 317.629 166.736C317.337 167.161 316.964 167.524 316.531 167.804C316.097 168.084 315.612 168.274 315.105 168.365Z" stroke="#263238" stroke-linecap="round" stroke-linejoin="round"/>
<path d="M310.827 127.339L250.443 138.43C248.335 138.817 246.941 140.84 247.328 142.947L253.116 174.462C253.503 176.569 255.526 177.964 257.633 177.577L318.017 166.486C320.125 166.099 321.519 164.077 321.132 161.969L315.344 130.455C314.957 128.347 312.934 126.952 310.827 127.339Z" stroke="#263238" stroke-width="0.996394" stroke-linecap="round" stroke-linejoin="round"/>
<path d="M309.139 131.145L252.236 141.487C251.213 141.672 250.535 142.652 250.721 143.674L256.389 174.86C256.574 175.882 257.554 176.56 258.576 176.374L315.479 166.033C316.501 165.847 317.179 164.868 316.993 163.846L311.326 132.66C311.14 131.638 310.161 130.96 309.139 131.145Z" stroke="#263238" stroke-linecap="round" stroke-linejoin="round"/>
<path d="M319.084 167.64L315.134 168.355C316.142 168.166 317.035 167.584 317.617 166.738C318.199 165.892 318.422 164.85 318.237 163.841L312.481 132.191C312.391 131.688 312.201 131.207 311.925 130.777C311.648 130.348 311.29 129.976 310.869 129.685C310.449 129.394 309.975 129.189 309.476 129.082C308.976 128.974 308.46 128.966 307.957 129.059L311.936 128.334C312.95 128.153 313.996 128.381 314.843 128.968C315.691 129.554 316.272 130.453 316.46 131.466L322.216 163.116C322.397 164.131 322.169 165.176 321.583 166.024C320.996 166.872 320.098 167.453 319.084 167.64Z" stroke="#263238" stroke-linecap="round" stroke-linejoin="round"/>
<path d="M433.484 269.024L394.535 373.501C394.535 373.501 378.245 342.463 363.196 313.738C351.175 290.769 339.945 269.231 338.431 266.061C335.035 258.922 323.438 243.967 323.438 243.967C323.438 243.967 311.54 237.157 306.094 225.297C300.648 213.436 294.657 171.008 294.657 171.008C294.657 171.008 279.015 165.12 275.281 162.543C271.547 159.965 268.143 136.15 268.143 133.432C268.143 130.714 271.905 125.268 271.905 125.268C271.905 125.268 271.068 121.28 275.846 117.255C277.408 115.972 279.139 114.912 280.991 114.104H281.085C281.085 114.104 280.464 105.102 285.148 102.478C285.372 102.352 285.604 102.242 285.844 102.149C290.02 100.541 303.715 98.4621 303.715 98.4621C305.651 96.761 307.904 95.4599 310.346 94.634C312.772 93.9662 326.091 97.0607 333.53 98.8948C336.521 99.6284 338.562 100.155 338.562 100.155C338.562 100.155 351.147 100.729 353.527 102.149C355.187 103.237 356.704 104.53 358.041 105.996L358.277 106.269C358.277 106.269 369.498 108.601 371.877 112.712C374.257 116.822 375.273 137.213 373.58 150.466C371.887 163.718 374.925 186.207 374.925 186.207C374.925 186.207 378.433 203.579 381.151 210.173C383.869 216.766 433.484 269.024 433.484 269.024Z" fill="white"/>
<path opacity="0.4" d="M363.196 313.738C351.175 290.769 339.945 269.23 338.431 266.061C335.035 258.922 323.438 243.967 323.438 243.967C323.438 243.967 311.54 237.157 306.094 225.297C300.648 213.436 294.657 171.008 294.657 171.008C294.657 171.008 279.015 165.12 275.281 162.543C271.547 159.965 268.143 136.15 268.143 133.432C268.143 130.714 271.905 125.268 271.905 125.268C271.905 125.268 271.068 121.28 275.846 117.254C275.846 118.327 275.846 120.133 275.846 122.973C275.733 128.363 282.082 160.859 283.652 159.871C285.223 158.884 287.65 156.504 287.01 154.407C287.01 154.407 283.935 141.794 281.028 114.104H281.122C281.122 114.104 280.502 105.102 285.186 102.478C284.38 104.427 283.863 106.484 283.652 108.583C283.549 112.966 288.76 150.522 290.801 151.472C292.842 152.422 298.015 147.418 298.015 147.418C298.015 147.418 296.247 136.762 296.877 132.219C296.877 132.219 312.612 141.813 313.083 152.704C313.13 153.899 316.149 170.97 316.149 170.97C316.149 170.97 302.614 196.741 316.431 220.255C316.431 220.255 309.405 216.042 307.731 209.345C307.731 209.345 305.69 229.04 320.203 239.443C320.203 239.443 330.615 229.219 340.895 227.921C340.895 227.921 341.083 228.598 334.198 234.025C327.313 239.452 326.382 241.87 326.382 241.87C326.382 241.87 333.831 234.345 339.785 234.025C339.785 234.025 333.643 241.127 333.831 242.613C334.02 244.099 351.392 273.802 357.712 294.522C360.289 303.175 362.048 309.421 363.196 313.738Z" fill="#92E3A9"/>
<path opacity="0.4" d="M314.418 116.615C314.418 116.615 319.431 120.377 320.917 116.615C321.771 114.602 322.313 112.471 322.526 110.294C322.526 110.294 324.454 109.41 326.288 114.057C328.122 118.703 346.51 119.888 350.818 122.268C355.125 124.647 356.837 122.268 356.837 122.268C357.841 123.092 358.529 124.238 358.786 125.511C359.043 126.784 358.853 128.107 358.248 129.256C356.16 133.573 362.076 133.959 364.371 130.78C366.666 127.601 364.889 139.875 359.217 141.126C359.217 141.126 359.377 146.487 355.727 150.165H358.822C358.822 150.165 350.583 156.702 348.391 157.059C346.2 157.417 356.546 161.075 354.627 161.847C352.708 162.618 347.272 162.552 347.272 162.552C347.272 162.552 350.789 164.988 350.818 166.596C350.846 168.205 349.153 169.418 348.391 168.073C347.629 166.728 341.553 147.465 338.525 140.345C335.496 133.225 322.986 127.591 314.418 116.615Z" fill="#92E3A9"/>
<path opacity="0.4" d="M358.031 105.93C347.478 103.043 333.322 98.9323 333.322 98.9323L333.52 98.8289C336.511 99.5625 338.552 100.089 338.552 100.089C338.552 100.089 351.137 100.663 353.516 102.083C355.176 103.171 356.693 104.464 358.031 105.93Z" fill="#92E3A9"/>
<path d="M343.189 122.531C334.009 120.65 327.453 128.494 327.453 128.494C327.453 128.494 336.577 136.752 338.599 140.298C340.621 143.844 343.979 155.799 343.979 155.799C347.826 156.42 354.918 152.45 356.62 141.916C358.322 131.382 352.322 124.403 343.189 122.531Z" fill="#92E3A9"/>
<path d="M394.535 373.501C394.535 373.501 341.864 273.2 338.431 266.061C334.998 258.922 323.438 243.967 323.438 243.967C323.438 243.967 311.54 237.157 306.094 225.297C300.648 213.436 294.657 171.008 294.657 171.008C294.657 171.008 279.015 165.12 275.281 162.543C271.547 159.965 268.143 136.15 268.143 133.432C268.143 130.714 271.905 125.268 271.905 125.268C271.905 125.268 270.55 118.825 281.085 114.057C281.085 114.057 280.408 104.19 285.844 102.102C290.02 100.494 303.715 98.4151 303.715 98.4151C305.651 96.7139 307.904 95.4129 310.346 94.587C313.741 93.6464 338.562 100.108 338.562 100.108C338.562 100.108 351.147 100.682 353.527 102.102C355.267 103.25 356.851 104.619 358.239 106.175C358.239 106.175 369.46 108.507 371.84 112.618C374.219 116.728 375.235 137.119 373.542 150.372C371.849 163.624 374.887 186.113 374.887 186.113C374.887 186.113 378.395 203.485 381.113 210.079C383.832 216.672 433.484 269.024 433.484 269.024" stroke="#263238" stroke-linecap="round" stroke-linejoin="round"/>
<path d="M349.943 169.625C349.943 169.625 347.563 169.117 344.506 157.896C341.449 146.675 340.641 141.427 334.301 134.777C329.805 130.074 319.516 122.39 314.418 116.615C309.32 110.84 303.686 106.175 299.284 109.749C295.766 112.571 293.471 119.898 296.566 131.203C300.544 145.725 313.091 152.639 313.091 152.639L316.158 170.904C316.158 170.904 302.849 197.56 317.851 222.72" stroke="#263238" stroke-linecap="round" stroke-linejoin="round"/>
<path d="M327.406 128.494C327.406 128.494 333.99 120.659 343.142 122.531C352.294 124.403 358.238 131.372 356.573 141.916C354.908 152.46 347.779 156.42 343.932 155.799" stroke="#263238" stroke-linecap="round" stroke-linejoin="round"/>
<path d="M303.686 98.3962C302.311 101.852 301.253 105.425 300.525 109.072" stroke="#263238" stroke-linecap="round" stroke-linejoin="round"/>
<path d="M298.117 135.229C298.117 135.229 298.907 146.845 300.544 150.409C302.18 153.974 304.899 156.871 306.084 161.461C307.269 166.051 307.448 173.19 307.786 174.215C308.125 175.24 310.091 175.504 310.091 175.504C312.912 175.569 314.05 174.102 315.677 171.864" stroke="#263238" stroke-linecap="round" stroke-linejoin="round"/>
<path d="M281.113 114.038C281.113 114.038 283.662 138.85 285.703 149.394C287.744 159.937 291.347 161.461 297.263 164.866C303.179 168.271 306.443 175.212 306.96 176.256C307.477 177.3 309.415 177.413 309.415 177.413C310.553 177.318 311.65 176.941 312.606 176.315C313.562 175.689 314.347 174.835 314.889 173.829" stroke="#263238" stroke-linecap="round" stroke-linejoin="round"/>
<path d="M271.913 125.249C271.273 126.237 276.729 151.435 279.569 158.743C282.41 166.051 282.729 167.208 290.245 169.277C297.76 171.346 303.469 174.789 305.5 173.575" stroke="#263238" stroke-linecap="round" stroke-linejoin="round"/>
<path d="M324.105 111.31C324.105 111.31 328.009 120.659 325.432 126.811" stroke="#263238" stroke-linecap="round" stroke-linejoin="round"/>
<path d="M338.553 100.089C344.949 102.618 351.531 104.653 358.239 106.175" stroke="#263238" stroke-linecap="round" stroke-linejoin="round"/>
<path d="M364.399 132.398C364.399 132.398 361.409 137.862 356.875 139.038" stroke="#263238" stroke-linecap="round" stroke-linejoin="round"/>
<path d="M356.865 126.444C356.865 126.444 355.792 129.266 354.654 130.046" stroke="#263238" stroke-linecap="round" stroke-linejoin="round"/>
<path d="M360.629 148.886C360.629 148.886 353.828 154.03 347.301 155.366" stroke="#263238" stroke-linecap="round" stroke-linejoin="round"/>
<path d="M344.506 157.906C344.506 157.906 347.328 161.47 354.655 161.809" stroke="#263238" stroke-linecap="round" stroke-linejoin="round"/>
<path d="M322.498 142.302C322.498 142.302 329.157 135.906 332.957 136.79" stroke="#263238" stroke-linecap="round" stroke-linejoin="round"/>
<path d="M335.533 143.6C335.533 143.6 330.492 147.362 329.57 147.362" stroke="#263238" stroke-linecap="round" stroke-linejoin="round"/>
<path d="M283.623 163.549C283.623 163.549 285.297 163.859 286.605 161.837" stroke="#263238" stroke-linecap="round" stroke-linejoin="round"/>
<path d="M289.578 154.388C289.578 154.388 293.623 151.886 296.266 151.406" stroke="#263238" stroke-linecap="round" stroke-linejoin="round"/>
<path d="M325.207 239.227C326.044 238.484 333.86 232.163 338.695 229.924" stroke="#263238" stroke-linecap="round" stroke-linejoin="round"/>
<path d="M335.346 236.236C334.791 236.066 330.352 240.713 328.01 242.575" stroke="#263238" stroke-linecap="round" stroke-linejoin="round"/>
<path d="M337.547 250.015C337.547 250.015 352.436 278.232 355.784 289.518" stroke="#263238" stroke-linecap="round" stroke-linejoin="round"/>
<path d="M381.15 210.116C382.411 217.048 386.502 222.155 388.741 224.921" stroke="#263238" stroke-linecap="round" stroke-linejoin="round"/>
<path opacity="0.4" d="M334.217 125.249C332.054 126.585 334.33 130.949 335.534 133.178C336.738 135.407 342.118 138.953 343.237 142.302C344.357 145.65 351.43 145.556 353.584 142.302C355.737 139.047 355.465 132.548 349.596 127.601C343.727 122.653 337.293 123.368 334.217 125.249Z" fill="white"/>
<path d="M292.917 312.694C283.338 311.066 273.49 312.731 264.979 317.418C256.468 322.106 249.796 329.538 246.051 338.504C242.306 347.47 241.71 357.439 244.359 366.788C247.007 376.136 252.745 384.311 260.637 389.98" stroke="#263238" stroke-linecap="round" stroke-linejoin="round"/>
<path d="M310.834 320.19C306.846 317.311 302.392 315.141 297.666 313.776" stroke="#263238" stroke-linecap="round" stroke-linejoin="round"/>
<path d="M306.508 392.651C312.305 389.442 317.281 384.935 321.047 379.483C324.812 374.03 327.266 367.781 328.215 361.223C329.164 354.665 328.583 347.977 326.517 341.681C324.452 335.385 320.958 329.652 316.308 324.931" stroke="#263238" stroke-linecap="round" stroke-linejoin="round"/>
<path d="M308.586 406.214L311.144 408.471L307.156 394.805" stroke="#263238" stroke-linecap="round" stroke-linejoin="round"/>
<path d="M278.488 397.429C284.812 398.514 291.299 398.164 297.469 396.404L305.567 403.552" stroke="#263238" stroke-linecap="round" stroke-linejoin="round"/>
<path d="M268.631 394.513C270.236 395.205 271.882 395.799 273.559 396.291" stroke="#263238" stroke-linecap="round" stroke-linejoin="round"/>
<path d="M289.098 334.158C294.426 335.068 299.219 337.94 302.536 342.208C305.852 346.476 307.45 351.83 307.016 357.218C306.583 362.605 304.148 367.635 300.192 371.317C296.235 374.999 291.044 377.067 285.639 377.113C280.235 377.16 275.009 375.182 270.99 371.568C266.97 367.954 264.45 362.967 263.923 357.588C263.397 352.209 264.903 346.828 268.145 342.504C271.388 338.179 276.131 335.226 281.442 334.223" stroke="#263238" stroke-linecap="round" stroke-linejoin="round"/>
<path d="M281.443 379.107C275.178 378.04 269.594 374.528 265.918 369.344C262.242 364.16 260.776 357.729 261.841 351.464" stroke="#263238" stroke-linecap="round" stroke-linejoin="round"/>
<path d="M308.004 363.625C306.529 367.705 303.975 371.308 300.614 374.05C297.254 376.793 293.212 378.573 288.92 379.201" stroke="#263238" stroke-linecap="round" stroke-linejoin="round"/>
<path d="M263.684 345.482C266.112 340.202 270.376 335.984 275.683 333.613C280.99 331.243 286.977 330.882 292.53 332.597C298.083 334.313 302.823 337.987 305.869 342.937C308.914 347.888 310.057 353.776 309.085 359.506" stroke="#263238" stroke-linecap="round" stroke-linejoin="round"/>
<path d="M299.848 346.846L300.12 346.554" stroke="#263238" stroke-width="2" stroke-linecap="round" stroke-linejoin="round"/>
<path d="M296.012 350.984L297.921 348.924" stroke="#263238" stroke-width="2" stroke-linecap="round" stroke-linejoin="round"/>
<path d="M272.582 354.022L281.809 366.287L294.337 352.79" stroke="#263238" stroke-width="2" stroke-linecap="round" stroke-linejoin="round"/>
</svg>
