<svg width="521" height="534" viewBox="0 0 521 534" fill="none" xmlns="http://www.w3.org/2000/svg">
<path d="M430.003 433.323H471.279V420.186H430.003V433.323Z" fill="#EBEBEB"/>
<path d="M179.138 221.586H220.415V208.449H179.138V221.586Z" fill="#EBEBEB"/>
<path d="M453.025 449.899L473.804 449.547L484.076 449.406H494.302L493.762 449.946V436.809L494.348 437.396L473.71 437.314L463.391 437.208L453.072 437.079L453.354 436.809L453.025 449.899ZM453.025 449.899L452.755 436.762V436.457H453.037L463.356 436.328L473.675 436.222L494.313 436.152H494.9V436.751V449.887V450.416H494.372H483.959L473.593 450.275L453.025 449.899Z" fill="#EBEBEB"/>
<path d="M256.761 351.931L277.54 351.591L287.813 351.45L298.038 351.391L297.498 351.931V338.795L298.085 339.382L277.447 339.3L267.127 339.206L256.808 339.076L257.09 338.795L256.761 351.931ZM256.761 351.931L256.479 338.795V338.525H256.761L267.08 338.396L277.4 338.302L298.038 338.219H298.625V338.806L298.566 351.931V352.471H298.038L287.625 352.413L277.259 352.272L256.761 351.931Z" fill="#EBEBEB"/>
<path d="M279.782 368.531L300.561 368.191L310.833 368.05L321.058 367.991L320.518 368.531V355.395L321.105 355.982L300.467 355.9L290.148 355.806L279.829 355.676L280.11 355.395L279.782 368.531ZM279.782 368.531L279.5 355.453V355.183H279.782L290.101 355.054L300.42 354.96L321.058 354.878H321.645V355.465V368.602V369.142H321.117L310.704 369.083L300.338 368.942L279.782 368.531Z" fill="#EBEBEB"/>
<path d="M302.71 351.967H343.986V338.83H302.71V351.967Z" fill="#EBEBEB"/>
<path d="M8.65499 449.887H49.9316V436.751H8.65499V449.887Z" fill="#EBEBEB"/>
<path d="M31.6765 28.0696L72.9531 28.0696V14.9329L31.6765 14.9329V28.0696Z" fill="#EBEBEB"/>
<path d="M8.6548 44.6223L29.434 44.2819L39.7062 44.141H49.9314L49.3914 44.6693V31.5326L49.9784 32.1196L29.3401 32.0374L19.0327 31.8966L8.7135 31.7674L8.93655 31.4387L8.6548 44.6223ZM8.6548 44.6223L8.37305 31.4387V31.1687H8.6548L19.0327 31.0865L29.3518 30.9809L49.9902 30.8987H50.5771V31.4387V44.5754V45.1154H50.0488H39.6358L29.2696 44.9745L8.6548 44.6223Z" fill="#EBEBEB"/>
<path d="M430.002 28.0576L450.782 27.7172L461.054 27.5763H471.279L470.739 28.1046V14.9679L471.326 15.5549L450.688 15.4727L440.369 15.3788L430.049 15.2497L430.331 14.9679L430.002 28.0576ZM430.002 28.0576L429.721 14.921V14.651H430.002L440.322 14.5218L450.641 14.4162L471.279 14.334H471.866V14.921L471.807 28.0576V28.5977H471.279H460.866L450.5 28.4568L430.002 28.0576Z" fill="#EBEBEB"/>
<path d="M347.79 480.399H484.862L489.276 393.419H343.376L347.79 480.399Z" fill="#EBEBEB"/>
<path d="M474.872 433.287H354.048L352.439 402.987H476.88L474.872 433.287ZM355.128 432.113H473.698L475.495 404.161H353.613L355.128 432.113Z" fill="#DBDBDB"/>
<path d="M473.228 468.025H357.51L356.16 440.672H474.942L473.228 468.025ZM358.637 466.851H472.183L473.745 441.846H357.393L358.637 466.851Z" fill="#DBDBDB"/>
<path d="M428.383 421.466H402.697L401.746 414.081H429.334L428.383 421.466ZM403.73 420.292H427.35L428.008 415.255H403.084L403.73 420.292Z" fill="#DBDBDB"/>
<path d="M428.383 458.046H402.697L401.746 450.65H429.334L428.383 458.046ZM403.73 456.872H427.35L428.008 451.824H403.084L403.73 456.872Z" fill="#DBDBDB"/>
<path d="M366.797 480.398L365.47 489.872L362.794 508.914H357.558V480.398H366.797Z" fill="#EBEBEB"/>
<path d="M366.797 480.398L365.47 489.872H357.558V480.398H366.797Z" fill="#DBDBDB"/>
<path d="M465.855 480.398L467.182 489.872L469.859 508.914H475.095V480.398H465.855Z" fill="#EBEBEB"/>
<path d="M465.855 480.398L467.182 489.872H475.095V480.398H465.855Z" fill="#DBDBDB"/>
<path d="M497.107 176.694H299.811V6.89111H497.107V176.694ZM300.985 175.52H495.933V8.06508H300.985V175.52Z" fill="#EBEBEB"/>
<path d="M309.648 13.3949C309.637 13.8566 309.489 14.3047 309.224 14.683C308.959 15.0613 308.589 15.3531 308.159 15.5218C307.729 15.6906 307.259 15.7288 306.807 15.6316C306.356 15.5345 305.943 15.3064 305.62 14.9758C305.298 14.6452 305.08 14.2269 304.994 13.7731C304.908 13.3193 304.958 12.8503 305.137 12.4247C305.317 11.999 305.617 11.6358 306.002 11.3803C306.387 11.1248 306.838 10.9884 307.3 10.9883C307.614 10.9882 307.924 11.0508 308.213 11.1724C308.501 11.2941 308.763 11.4723 308.982 11.6966C309.2 11.9209 309.372 12.1867 309.487 12.4784C309.601 12.77 309.656 13.0817 309.648 13.3949Z" fill="#A6A6A6"/>
<path d="M319.451 13.3949C319.439 13.8566 319.292 14.3047 319.027 14.683C318.762 15.0613 318.392 15.3531 317.962 15.5218C317.532 15.6906 317.062 15.7288 316.61 15.6316C316.159 15.5345 315.746 15.3064 315.423 14.9758C315.101 14.6452 314.883 14.2269 314.797 13.7731C314.711 13.3193 314.761 12.8503 314.94 12.4247C315.119 11.999 315.42 11.6358 315.805 11.3803C316.19 11.1248 316.641 10.9884 317.103 10.9883C317.416 10.9882 317.727 11.0508 318.015 11.1724C318.304 11.2941 318.566 11.4723 318.784 11.6966C319.003 11.9209 319.175 12.1867 319.289 12.4784C319.404 12.77 319.459 13.0817 319.451 13.3949Z" fill="#EBEBEB"/>
<path d="M329.253 13.3949C329.241 13.8541 329.095 14.2998 328.833 14.6768C328.57 15.0538 328.203 15.3455 327.777 15.5159C327.35 15.6863 326.883 15.7278 326.433 15.6354C325.983 15.5429 325.57 15.3205 325.245 14.9957C324.921 14.6709 324.698 14.258 324.606 13.8081C324.513 13.3582 324.555 12.891 324.725 12.4645C324.896 12.038 325.187 11.6708 325.564 11.4084C325.941 11.146 326.387 10.9999 326.846 10.9883C327.164 10.9802 327.481 11.037 327.777 11.1551C328.072 11.2732 328.341 11.4501 328.566 11.6752C328.791 11.9003 328.968 12.1689 329.086 12.4645C329.204 12.7601 329.261 13.0767 329.253 13.3949Z" fill="#FFC727"/>
<path d="M496.52 18.6543H300.397V19.8283H496.52V18.6543Z" fill="#EBEBEB"/>
<path d="M429.721 378.628C430.685 385.226 430.354 391.949 428.747 398.421C427.987 401.417 426.973 404.342 425.718 407.167C424.145 410.794 422.502 414.328 422.889 418.284C423.276 418.543 421.962 418.507 421.915 418.12C411.349 412.086 397.754 410.982 389.607 401.121C385.745 396.425 383.796 390.555 382.869 384.685C381.871 378.24 381.589 371.103 383.256 364.728C384.653 359.363 387.799 354.162 392.835 351.544C398.048 348.832 404.869 349.067 410.363 350.769C422.173 354.409 428.054 367.193 429.721 378.628Z" fill="#FFC727"/>
<path d="M435.168 457.013C433.712 452.2 432.268 447.375 430.789 442.574C427.89 433.182 424.861 423.79 421.515 414.516C419.519 408.959 417.41 403.461 415.187 398.022C415.431 394.594 415.851 391.181 416.443 387.796C417.336 383.687 418.615 379.719 419.813 375.704C419.883 375.458 419.484 375.329 419.39 375.564C417.042 381.093 413.908 388.172 413.825 394.734C411.243 388.571 408.484 382.502 405.502 376.514C405.166 371.455 405.323 366.375 405.972 361.347C405.972 361.112 405.655 361.042 405.619 361.276C404.71 365.68 404.363 370.181 404.586 374.671C402.309 370.171 399.898 365.734 397.355 361.359C397.12 360.971 396.58 361.359 396.779 361.758C400.763 369.42 404.477 377.223 407.92 385.167C403.041 380.943 397.404 377.684 391.309 375.564C391.05 375.458 390.851 375.845 391.121 375.963C397.769 378.82 403.852 382.843 409.083 387.843C411.571 393.658 413.943 399.528 416.197 405.453C409.564 398.961 400.501 394.687 391.731 392.398C391.438 392.316 391.356 392.774 391.637 392.868C401.792 395.92 409.681 401.673 417.394 408.587C418.286 410.935 419.167 413.365 420.036 415.748C423.299 424.827 426.43 433.957 429.427 443.137C430.844 447.543 432.245 451.95 433.63 456.356C435.109 461.11 436.272 466.123 438.197 470.702C438.373 471.148 439.16 471.042 439.066 470.526C437.998 465.958 436.697 461.448 435.168 457.013Z" fill="#263238"/>
<path d="M417.594 369.353C415.718 372.246 414.422 375.475 413.778 378.862C413.778 378.945 413.907 379.003 413.931 378.862C415.117 375.672 416.501 372.559 418.075 369.541C418.181 369.271 417.782 369.083 417.594 369.353Z" fill="#263238"/>
<path d="M398.705 391.412C395.756 389.786 392.539 388.705 389.208 388.219C389.114 388.219 389.067 388.336 389.149 388.372C390.687 389.006 392.283 389.452 393.845 390.039C395.406 390.626 396.909 391.365 398.482 391.905C398.514 391.92 398.549 391.928 398.585 391.929C398.62 391.93 398.656 391.924 398.689 391.912C398.722 391.899 398.753 391.88 398.778 391.856C398.804 391.832 398.825 391.803 398.84 391.77C398.855 391.738 398.863 391.703 398.864 391.667C398.865 391.632 398.859 391.597 398.847 391.563C398.834 391.53 398.815 391.5 398.791 391.474C398.766 391.448 398.737 391.427 398.705 391.412Z" fill="#263238"/>
<path d="M393.387 364.845C392.432 364.114 391.405 363.481 390.323 362.955C390.288 362.941 390.249 362.94 390.213 362.951C390.176 362.963 390.145 362.986 390.124 363.018C390.104 363.05 390.094 363.088 390.099 363.126C390.103 363.164 390.12 363.199 390.147 363.225C391.089 363.969 392.099 364.622 393.164 365.174C393.364 365.327 393.528 364.998 393.387 364.845Z" fill="#263238"/>
<path d="M465.422 414.586C457.803 416.852 450.16 418.942 442.506 421.184C441.849 421.383 428.959 396.671 433.607 383.946C437.916 372.206 447.777 363.354 459.54 359.351C464.976 357.508 471.679 355.947 477.432 357.214C482.538 358.388 486.154 362.533 487.821 367.346C490.087 373.885 489.324 381.68 488.091 388.36C487.116 394.629 484.531 400.539 480.59 405.511C476.539 410.325 471.374 412.825 465.422 414.586Z" fill="#FFC727"/>
<path d="M476.48 391.107C471.658 393.457 466.657 395.419 461.524 396.977C458.102 397.896 454.764 399.101 451.545 400.581C454.761 393.408 458.307 386.376 462.052 379.449C466.982 378.017 472.16 375.798 475.881 372.312C475.903 372.293 475.92 372.271 475.933 372.245C475.946 372.22 475.954 372.192 475.956 372.164C475.958 372.136 475.955 372.107 475.946 372.08C475.937 372.053 475.923 372.028 475.905 372.006C475.886 371.985 475.864 371.967 475.838 371.954C475.813 371.941 475.785 371.934 475.757 371.932C475.729 371.929 475.7 371.933 475.673 371.942C475.646 371.95 475.621 371.964 475.599 371.983C471.537 374.859 467.053 376.585 462.557 378.522C463.578 376.655 464.599 374.777 465.644 372.91C465.926 372.394 465.21 371.877 464.869 372.382C460.858 378.201 457.239 384.28 454.034 390.579C453.208 385.063 452.944 379.477 453.247 373.908C453.239 373.885 453.224 373.864 453.204 373.85C453.184 373.835 453.16 373.828 453.136 373.828C453.111 373.828 453.087 373.835 453.067 373.85C453.047 373.864 453.032 373.885 453.024 373.908C452.071 379.985 452.134 386.178 453.212 392.234C450.535 397.575 448.093 403.046 445.91 408.576C445.041 405.253 443.914 401.978 443.151 398.62C441.998 393.82 441.63 388.864 442.059 383.946C442.051 383.922 442.037 383.902 442.016 383.887C441.996 383.873 441.972 383.865 441.948 383.865C441.923 383.865 441.899 383.873 441.879 383.887C441.859 383.902 441.844 383.922 441.836 383.946C440.477 393.071 441.584 402.393 445.041 410.947C443.761 414.281 442.552 417.627 441.437 420.973C435.691 438.076 432.287 455.878 431.317 473.895C431.317 473.979 431.351 474.06 431.41 474.119C431.47 474.179 431.55 474.212 431.634 474.212C431.718 474.212 431.799 474.179 431.858 474.119C431.918 474.06 431.951 473.979 431.951 473.895C433.953 456.12 437.765 438.596 443.327 421.595C445.534 414.95 448.082 408.493 450.876 402.154C455.372 400.827 459.868 399.019 464.294 397.458C468.72 395.897 473.028 394.23 476.656 391.389C476.797 391.26 476.644 391.025 476.48 391.107Z" fill="#263238"/>
<path d="M483.594 383.934C478.898 385.589 474.508 387.914 469.847 389.593C469.636 389.675 469.753 390.015 469.976 389.98C474.907 388.959 479.802 387.433 483.77 384.204C483.923 384.075 483.759 383.875 483.594 383.934Z" fill="#263238"/>
<path d="M445.511 373.873C445.569 373.627 445.206 373.486 445.123 373.732C443.844 378.029 442.963 382.596 444.208 386.986C444.208 387.162 444.525 387.174 444.536 386.986C444.759 382.537 444.513 378.229 445.511 373.873Z" fill="#263238"/>
<path d="M464.776 363.941C463.287 366.072 462.574 368.65 462.757 371.243C462.757 371.408 463.027 371.513 463.074 371.314C463.637 368.86 464.588 366.618 465.339 364.27C465.383 364.195 465.395 364.106 465.373 364.023C465.351 363.939 465.297 363.868 465.222 363.824C465.147 363.78 465.058 363.768 464.975 363.79C464.891 363.812 464.819 363.867 464.776 363.941Z" fill="#263238"/>
<path d="M374.744 425.481C376.987 432.583 382.293 442.386 390.71 442.468C396.157 442.468 401.652 441.869 407.146 441.799C413.016 441.705 418.885 441.717 424.755 442.069C425.237 442.069 424.051 424.541 409.987 415.983C406.042 413.635 401.217 412.837 396.744 411.863C391.623 410.652 386.368 410.104 381.107 410.231C377.879 410.36 375.237 411.053 374.063 414.363C372.89 417.674 373.641 422.111 374.744 425.481Z" fill="#FFC727"/>
<path d="M380.766 416.605C384.183 417.486 387.634 418.496 391.062 419.587C390.169 418.614 389.225 417.689 388.233 416.817C386.754 415.643 385.134 414.61 383.537 413.541C383.408 413.448 383.537 413.201 383.654 413.26C386.983 414.646 389.858 416.935 391.954 419.869C396.228 421.243 400.466 422.769 404.551 424.448C407.363 425.603 410.06 427.022 412.604 428.686C411.789 426.911 410.814 425.213 409.693 423.614C407.826 421.196 405.291 419.846 402.849 418.132C402.811 418.097 402.786 418.05 402.778 418C402.771 417.949 402.781 417.897 402.807 417.853C402.833 417.809 402.874 417.775 402.922 417.757C402.97 417.74 403.023 417.739 403.072 417.756C405.628 418.866 407.924 420.497 409.814 422.545C411.704 424.592 413.146 427.012 414.048 429.648C416.98 431.751 419.659 434.186 422.031 436.903C431.341 447.469 438.666 461.557 438.69 475.903C438.69 476.243 438.15 476.337 438.079 475.985C435.688 461.909 429.558 448.736 420.329 437.843C419.66 437.068 418.979 436.328 418.275 435.612C415.726 435.265 413.157 435.077 410.585 435.048C407.592 435.048 404.621 435.483 401.64 435.729C396.721 436.129 391.297 436.187 386.859 433.71C386.671 433.605 386.801 433.264 387.024 433.346C396.897 436.939 407.251 432.372 417.159 434.52C412.927 430.497 407.972 427.311 402.555 425.128L401.651 424.765C395.312 425.528 388.62 427.171 382.445 425.117C382.411 425.103 382.383 425.078 382.367 425.045C382.35 425.013 382.346 424.975 382.354 424.94C382.363 424.904 382.384 424.873 382.413 424.851C382.443 424.83 382.479 424.82 382.516 424.823C388.491 426.314 394.255 424.436 400.125 424.142C393.715 421.642 387.211 419.658 380.755 417.181C380.191 416.946 380.179 416.5 380.766 416.605Z" fill="#263238"/>
<path d="M377.961 422.851C381.023 423.246 384.103 423.477 387.189 423.544C387.259 423.544 387.283 423.661 387.189 423.673C384.084 424.243 380.887 424.041 377.879 423.086C377.864 423.08 377.85 423.072 377.837 423.061C377.825 423.05 377.815 423.037 377.808 423.022C377.801 423.008 377.797 422.992 377.796 422.975C377.795 422.959 377.798 422.943 377.803 422.927C377.808 422.912 377.817 422.898 377.828 422.885C377.838 422.873 377.852 422.863 377.866 422.856C377.881 422.849 377.897 422.845 377.913 422.844C377.93 422.843 377.946 422.846 377.961 422.851Z" fill="#263238"/>
<path d="M398.81 416.758C400.517 417.527 402.065 418.605 403.377 419.94C403.53 420.081 403.319 420.362 403.142 420.233C402.368 419.67 401.569 419.141 400.794 418.625C400.023 418.201 399.278 417.73 398.564 417.216C398.329 417.04 398.552 416.676 398.81 416.758Z" fill="#263238"/>
<path d="M448.493 439.604C448.387 439.838 448.727 440.061 448.857 439.815C448.883 439.852 448.916 439.884 448.954 439.908C448.992 439.932 449.035 439.948 449.08 439.956C454.757 441.307 460.512 442.303 466.313 442.938C471.009 443.36 476.327 443.619 480.401 440.918C485.919 437.256 489.546 427.476 486.564 421.254C483.043 413.87 472.395 417.885 467.065 420.503C458.831 424.502 452.259 431.261 448.493 439.604Z" fill="#FFC727"/>
<path d="M444.361 443.02C447.467 440.021 450.915 437.397 454.633 435.201C457.309 430.979 460.855 427.377 465.034 424.635C465.245 424.494 465.41 424.811 465.234 424.952C461.909 427.597 458.955 430.677 456.452 434.109C460.608 431.841 464.924 429.879 469.366 428.239C470.954 425.307 473.36 422.9 476.292 421.313C476.292 421.313 476.422 421.313 476.363 421.407C473.942 423.24 471.833 425.452 470.117 427.958C472.724 426.983 475.377 426.079 478.018 425.199C478.253 425.128 478.335 425.481 478.112 425.574C473.416 427.406 468.603 429.343 463.942 431.585C469.631 432.47 475.423 432.45 481.106 431.526C481.258 431.526 481.329 431.726 481.176 431.773C475.245 433.522 468.948 433.616 462.968 432.043C459.999 433.491 457.114 435.106 454.328 436.88C456.672 436.693 459.031 436.887 461.313 437.455C465.334 438.391 469.451 438.855 473.581 438.84C473.618 438.84 473.654 438.855 473.68 438.882C473.707 438.908 473.721 438.944 473.721 438.981C473.721 439.019 473.707 439.054 473.68 439.081C473.654 439.107 473.618 439.122 473.581 439.122C466.466 440.296 459.74 437.115 452.684 437.948C450.069 439.731 447.614 441.738 445.347 443.947C440.942 448.359 437.314 453.483 434.617 459.103C431.647 465.149 430.038 471.547 427.643 477.792C427.628 477.85 427.59 477.899 427.538 477.929C427.486 477.959 427.425 477.967 427.367 477.951C427.31 477.935 427.261 477.898 427.231 477.846C427.201 477.794 427.193 477.733 427.209 477.675C429.275 465.372 435.403 451.789 444.361 443.02Z" fill="#263238"/>
<path d="M465.821 426.138C466.29 425.299 466.906 424.552 467.64 423.931C468.238 423.282 468.951 422.749 469.742 422.358C469.757 422.353 469.773 422.354 469.788 422.359C469.802 422.365 469.815 422.375 469.823 422.389C469.831 422.402 469.834 422.418 469.832 422.434C469.83 422.45 469.823 422.464 469.812 422.475C469.225 423.144 468.415 423.649 467.793 424.26C467.171 424.87 466.619 425.645 465.985 426.267C465.903 426.361 465.774 426.244 465.821 426.138Z" fill="#263238"/>
<path d="M477.56 429.965C478.605 429.695 479.732 429.719 480.8 429.496C481.868 429.273 482.89 428.885 483.946 428.556C483.975 428.551 484.006 428.556 484.032 428.571C484.058 428.585 484.078 428.608 484.089 428.636C484.1 428.663 484.101 428.694 484.092 428.722C484.083 428.75 484.065 428.775 484.04 428.791C482.101 429.985 479.826 430.512 477.56 430.294C477.516 430.294 477.474 430.277 477.444 430.246C477.413 430.215 477.396 430.173 477.396 430.13C477.396 430.086 477.413 430.044 477.444 430.013C477.474 429.983 477.516 429.965 477.56 429.965Z" fill="#263238"/>
<path d="M415.047 462.508L415.986 473.108L419.156 508.914H447.19L451.158 473.108L452.32 462.508H415.047Z" fill="#37474F"/>
<path d="M415.047 462.508L415.986 473.108H451.158L452.32 462.508H415.047Z" fill="#263238"/>
<path d="M412.276 468.213H455.103V459.608H412.276V468.213Z" fill="#37474F"/>
<path d="M13.6787 508.914L73.1284 508.633L132.578 508.527L251.477 508.327L370.377 508.527L429.826 508.633L489.276 508.914L429.826 509.208L370.377 509.314L251.477 509.501L132.578 509.314L73.1284 509.208L13.6787 508.914Z" fill="#263238"/>
<path d="M520.586 52.8638C520.586 52.8638 512.873 114.626 500.194 128.514C484.932 145.184 473.932 142.743 467.792 151.348C461.641 142.731 450.605 145.184 435.367 128.502C422.689 114.614 414.999 52.852 414.999 52.852C448.398 36.6395 467.827 18.4666 467.827 18.4666C468.391 19.0535 487.703 36.9096 520.586 52.8638Z" fill="#FFC727"/>
<path opacity="0.1" d="M467.792 18.5253V151.348C461.641 142.731 450.605 145.184 435.367 128.502C422.689 114.614 414.999 52.852 414.999 52.852C448.398 36.6395 467.827 18.4666 467.827 18.4666L467.792 18.5253Z" fill="black"/>
<path d="M423.182 57.8413C423.182 57.8413 429.685 110.012 440.392 121.752C453.306 135.84 462.603 133.785 467.792 141.04C472.981 133.785 482.314 135.851 495.181 121.752C505.888 110.012 512.391 57.8413 512.391 57.8413C484.216 44.1411 467.781 28.7856 467.781 28.7856C467.781 28.7856 451.392 44.1411 423.182 57.8413Z" fill="#FFC727"/>
<path opacity="0.2" d="M512.379 57.8413C512.379 57.8413 505.864 110.001 495.157 121.752C482.302 135.84 472.969 133.785 467.78 141.029V28.8091C468.273 29.2787 484.603 44.3524 512.379 57.8413Z" fill="white"/>
<path d="M467.781 105.598C479.205 105.598 488.466 96.3372 488.466 84.9131C488.466 73.4889 479.205 64.2278 467.781 64.2278C456.357 64.2278 447.096 73.4889 447.096 84.9131C447.096 96.3372 456.357 105.598 467.781 105.598Z" fill="#455A64"/>
<path d="M465.432 98.355L456.217 88.7754L459.633 85.4883L464.716 90.7711L475.658 73.9717L479.637 76.5661L465.432 98.355Z" fill="white"/>
<path d="M512.38 142.273L509.457 142.825L508.799 145.901L508.142 142.825L505.219 142.273L508.13 141.569L508.799 138.657L509.469 141.569L512.38 142.273Z" fill="#FFC727"/>
<path d="M425.73 118.829L422.806 119.369L422.149 122.457L421.492 119.369L418.568 118.829L421.48 118.113L422.149 115.201L422.818 118.113L425.73 118.829Z" fill="#FFC727"/>
<path d="M439.077 37.5436L436.154 38.0836L435.497 41.1594L434.851 38.0836L431.916 37.5318L434.839 36.8275L435.497 33.916L436.166 36.8275L439.077 37.5436Z" fill="#FFC727"/>
<path d="M507.144 128.408L505.512 128.714L505.148 130.439L504.784 128.714L503.141 128.408L504.772 128.009L505.148 126.377L505.512 128.009L507.144 128.408Z" fill="#FFC727"/>
<path d="M518.45 94.0934L516.818 94.3987L516.454 96.1244L516.09 94.3987L514.446 94.0934L516.078 93.6943L516.454 92.0742L516.829 93.6943L518.45 94.0934Z" fill="#FFC727"/>
<path d="M504.573 33.916L502.941 34.2212L502.577 35.9352L502.201 34.2212L500.569 33.916L502.201 33.5168L502.577 31.885L502.941 33.5168L504.573 33.916Z" fill="#FFC727"/>
<path d="M462.815 158.767L461.183 159.073L460.807 160.787L460.443 159.073L458.812 158.767L460.443 158.368L460.807 156.736L461.183 158.368L462.815 158.767Z" fill="#FFC727"/>
<path d="M416.643 122.844L415.011 123.149L414.635 124.875L414.271 123.149L412.64 122.844L414.271 122.445L414.635 120.813L415.011 122.445L416.643 122.844Z" fill="#FFC727"/>
<path d="M419.191 75.0634L417.547 75.3687L417.183 77.0944L416.819 75.3687L415.188 75.0634L416.808 74.6643L417.183 73.0325L417.559 74.6643L419.191 75.0634Z" fill="#FFC727"/>
<path d="M487.774 136.145C487.66 136.163 487.557 136.221 487.483 136.308C487.408 136.395 487.367 136.506 487.367 136.62C487.367 136.735 487.408 136.846 487.483 136.933C487.557 137.02 487.66 137.078 487.774 137.096C487.887 137.078 487.99 137.02 488.065 136.933C488.139 136.846 488.18 136.735 488.18 136.62C488.18 136.506 488.139 136.395 488.065 136.308C487.99 136.221 487.887 136.163 487.774 136.145Z" fill="#FFC727"/>
<path d="M412.404 50.2224C412.291 50.2403 412.188 50.298 412.114 50.3851C412.039 50.4723 411.998 50.5832 411.998 50.6979C411.998 50.8125 412.039 50.9234 412.114 51.0106C412.188 51.0978 412.291 51.1555 412.404 51.1733C412.518 51.1555 412.621 51.0978 412.695 51.0106C412.77 50.9234 412.811 50.8125 412.811 50.6979C412.811 50.5832 412.77 50.4723 412.695 50.3851C412.621 50.298 412.518 50.2403 412.404 50.2224Z" fill="#FFC727"/>
<path d="M502.577 138.81C502.464 138.828 502.361 138.885 502.286 138.973C502.212 139.06 502.171 139.171 502.171 139.285C502.171 139.4 502.212 139.511 502.286 139.598C502.361 139.685 502.464 139.743 502.577 139.761C502.691 139.743 502.794 139.685 502.868 139.598C502.943 139.511 502.984 139.4 502.984 139.285C502.984 139.171 502.943 139.06 502.868 138.973C502.794 138.885 502.691 138.828 502.577 138.81Z" fill="#FFC727"/>
<path d="M454.573 64.7913C454.449 64.7913 454.329 64.8407 454.241 64.9288C454.153 65.0169 454.104 65.1363 454.104 65.2608C454.104 65.3854 454.153 65.5048 454.241 65.5929C454.329 65.681 454.449 65.7304 454.573 65.7304C454.698 65.7304 454.817 65.681 454.905 65.5929C454.993 65.5048 455.043 65.3854 455.043 65.2608C455.043 65.1363 454.993 65.0169 454.905 64.9288C454.817 64.8407 454.698 64.7913 454.573 64.7913Z" fill="#FFC727"/>
<path d="M410.691 83.8799C410.577 83.8977 410.474 83.9554 410.4 84.0426C410.325 84.1298 410.284 84.2407 410.284 84.3553C410.284 84.47 410.325 84.5809 410.4 84.6681C410.474 84.7552 410.577 84.8129 410.691 84.8308C410.804 84.8129 410.907 84.7552 410.982 84.6681C411.056 84.5809 411.097 84.47 411.097 84.3553C411.097 84.2407 411.056 84.1298 410.982 84.0426C410.907 83.9554 410.804 83.8977 410.691 83.8799Z" fill="#FFC727"/>
<path d="M399.644 78.7146C399.566 78.7293 399.495 78.7707 399.445 78.8318C399.394 78.8929 399.366 78.9698 399.366 79.0492C399.366 79.1286 399.394 79.2054 399.445 79.2665C399.495 79.3276 399.566 79.3691 399.644 79.3838C399.722 79.3691 399.792 79.3276 399.843 79.2665C399.893 79.2054 399.921 79.1286 399.921 79.0492C399.921 78.9698 399.893 78.8929 399.843 78.8318C399.792 78.7707 399.722 78.7293 399.644 78.7146Z" fill="#FFC727"/>
<path d="M490.074 27.7292C489.996 27.7439 489.926 27.7854 489.875 27.8465C489.825 27.9076 489.797 27.9845 489.797 28.0638C489.797 28.1432 489.825 28.2201 489.875 28.2812C489.926 28.3423 489.996 28.3837 490.074 28.3984C490.152 28.3837 490.223 28.3423 490.273 28.2812C490.324 28.2201 490.352 28.1432 490.352 28.0638C490.352 27.9845 490.324 27.9076 490.273 27.8465C490.223 27.7854 490.152 27.7439 490.074 27.7292Z" fill="#FFC727"/>
<path d="M443.28 142.508C443.202 142.522 443.132 142.564 443.081 142.625C443.031 142.686 443.003 142.763 443.003 142.842C443.003 142.922 443.031 142.999 443.081 143.06C443.132 143.121 443.202 143.162 443.28 143.177C443.358 143.162 443.429 143.121 443.48 143.06C443.53 142.999 443.558 142.922 443.558 142.842C443.558 142.763 443.53 142.686 443.48 142.625C443.429 142.564 443.358 142.522 443.28 142.508Z" fill="#FFC727"/>
<path d="M432.797 136.344C432.573 136.37 432.367 136.477 432.217 136.645C432.067 136.812 431.984 137.029 431.984 137.254C431.984 137.479 432.067 137.696 432.217 137.864C432.367 138.032 432.573 138.139 432.797 138.164C433.02 138.139 433.226 138.032 433.376 137.864C433.526 137.696 433.609 137.479 433.609 137.254C433.609 137.029 433.526 136.812 433.376 136.645C433.226 136.477 433.02 136.37 432.797 136.344Z" fill="#FFC727"/>
<path d="M207.113 215.763V235.51H212.314V244.514L221.318 235.51H282.447V215.763H207.113Z" fill="white"/>
<path d="M207.114 215.752C207.114 222.408 207.349 228.994 207.36 235.498L207.114 235.251H212.573V235.509V244.514L212.08 244.302L221.049 235.286L221.143 235.192H221.283L251.807 235.122H282.33L281.907 235.545V215.799L282.283 216.163L244.716 216.033L207.114 215.752ZM207.114 215.752L244.681 215.517L282.447 215.388H282.811V215.752L282.87 235.498V235.92H282.447H251.924L221.401 235.85L221.624 235.756L212.596 244.737L212.115 245.218V244.537V235.533L212.373 235.791H206.867V235.545C206.867 228.853 207.067 222.267 207.114 215.752Z" fill="#263238"/>
<path d="M220.285 222.901V225.554H219.534V222.901C219.553 222.665 219.524 222.427 219.447 222.203C219.37 221.979 219.247 221.773 219.087 221.599C218.926 221.424 218.731 221.285 218.514 221.19C218.297 221.095 218.063 221.046 217.826 221.046C217.589 221.046 217.354 221.095 217.137 221.19C216.92 221.285 216.725 221.424 216.565 221.599C216.404 221.773 216.281 221.979 216.205 222.203C216.128 222.427 216.098 222.665 216.118 222.901V225.554H215.366V222.901C215.343 222.564 215.389 222.225 215.502 221.907C215.615 221.588 215.793 221.296 216.023 221.049C216.254 220.802 216.533 220.605 216.843 220.47C217.153 220.335 217.488 220.266 217.826 220.266C218.164 220.266 218.498 220.335 218.808 220.47C219.118 220.605 219.397 220.802 219.628 221.049C219.859 221.296 220.036 221.588 220.149 221.907C220.262 222.225 220.308 222.564 220.285 222.901Z" fill="#263238"/>
<path d="M215.379 223.594L216.119 223.629V225.554H215.379V223.594Z" fill="#263238"/>
<path d="M220.286 223.793V225.554H219.534V223.758L220.286 223.793Z" fill="#263238"/>
<path d="M221.237 224.58H214.416V230.25H221.237V224.58Z" fill="#263238"/>
<path d="M232.131 223.3C231.667 224.199 231.065 225.019 230.346 225.73C229.624 226.446 228.792 227.04 227.881 227.491C228.352 226.588 228.966 225.767 229.701 225.061C230.408 224.344 231.229 223.749 232.131 223.3Z" fill="#263238"/>
<path d="M227.881 223.3C228.801 223.771 229.634 224.395 230.346 225.143C231.073 225.853 231.683 226.673 232.154 227.574C231.25 227.109 230.429 226.498 229.724 225.766C228.978 225.051 228.355 224.218 227.881 223.3Z" fill="#263238"/>
<path d="M233 225.413C232.032 225.722 231.022 225.872 230.006 225.859C228.991 225.878 227.979 225.727 227.013 225.413C227.979 225.103 228.991 224.956 230.006 224.979C231.021 224.961 232.032 225.108 233 225.413Z" fill="#263238"/>
<path d="M230.006 222.42C230.601 224.371 230.601 226.455 230.006 228.407C229.695 227.44 229.549 226.428 229.572 225.413C229.554 224.399 229.7 223.388 230.006 222.42Z" fill="#263238"/>
<path d="M242.462 223.3C241.999 224.206 241.388 225.027 240.654 225.73C239.947 226.461 239.126 227.071 238.224 227.538C238.694 226.638 239.305 225.818 240.032 225.108C240.735 224.374 241.556 223.763 242.462 223.3Z" fill="#263238"/>
<path d="M238.224 223.3C240.021 224.268 241.494 225.741 242.462 227.538C240.665 226.571 239.191 225.097 238.224 223.3Z" fill="#263238"/>
<path d="M243.343 225.413C242.375 225.722 241.364 225.872 240.349 225.859C239.333 225.878 238.322 225.727 237.355 225.413C238.322 225.103 239.334 224.956 240.349 224.979C241.364 224.961 242.375 225.108 243.343 225.413Z" fill="#263238"/>
<path d="M240.349 222.42C240.655 223.388 240.801 224.399 240.783 225.413C240.806 226.428 240.66 227.44 240.349 228.407C240.035 227.441 239.884 226.429 239.903 225.413C239.89 224.398 240.04 223.387 240.349 222.42Z" fill="#263238"/>
<path d="M252.804 223.3C252.342 224.206 251.731 225.027 250.997 225.73C250.287 226.457 249.467 227.068 248.566 227.538C249.034 226.636 249.644 225.815 250.374 225.108C251.078 224.374 251.899 223.763 252.804 223.3Z" fill="#263238"/>
<path d="M248.566 223.3C250.363 224.268 251.837 225.741 252.804 227.538C251.007 226.571 249.534 225.097 248.566 223.3Z" fill="#263238"/>
<path d="M253.685 225.413C252.717 225.722 251.706 225.873 250.691 225.859C249.671 225.878 248.656 225.727 247.686 225.413C248.656 225.104 249.672 224.957 250.691 224.979C251.706 224.961 252.717 225.108 253.685 225.413Z" fill="#263238"/>
<path d="M250.691 222.42C251.268 224.374 251.268 226.453 250.691 228.407C250.096 226.455 250.096 224.371 250.691 222.42Z" fill="#263238"/>
<path d="M263.147 223.3C262.68 224.203 262.069 225.024 261.339 225.73C260.63 226.457 259.809 227.068 258.909 227.538C259.376 226.636 259.987 225.815 260.717 225.108C261.421 224.374 262.242 223.763 263.147 223.3Z" fill="#263238"/>
<path d="M258.909 223.3C260.706 224.268 262.18 225.741 263.147 227.538C262.247 227.068 261.427 226.457 260.717 225.73C259.987 225.024 259.376 224.203 258.909 223.3Z" fill="#263238"/>
<path d="M264.027 225.413C263.06 225.722 262.049 225.872 261.034 225.859C260.014 225.878 258.998 225.727 258.028 225.413C258.999 225.103 260.015 224.956 261.034 224.979C262.048 224.961 263.059 225.108 264.027 225.413Z" fill="#263238"/>
<path d="M261.034 222.42C261.611 224.374 261.611 226.453 261.034 228.407C260.439 226.455 260.439 224.371 261.034 222.42Z" fill="#263238"/>
<path d="M273.49 223.3C273.023 224.203 272.412 225.024 271.682 225.73C270.972 226.457 270.152 227.068 269.252 227.538C269.719 226.636 270.33 225.815 271.06 225.108C271.763 224.374 272.585 223.763 273.49 223.3Z" fill="#263238"/>
<path d="M269.252 223.3C270.157 223.763 270.979 224.374 271.682 225.108C272.412 225.815 273.023 226.636 273.49 227.538C272.59 227.068 271.77 226.457 271.06 225.73C270.33 225.024 269.719 224.203 269.252 223.3Z" fill="#263238"/>
<path d="M274.37 225.413C273.399 225.723 272.384 225.873 271.365 225.859C270.349 225.878 269.337 225.727 268.371 225.413C269.338 225.103 270.35 224.956 271.365 224.979C272.383 224.961 273.398 225.108 274.37 225.413Z" fill="#263238"/>
<path d="M271.365 222.42C271.959 224.371 271.959 226.455 271.365 228.407C270.787 226.453 270.787 224.374 271.365 222.42Z" fill="#263238"/>
<path d="M124.584 454.254L56.7871 508.914H60.6142L138.906 454.254H124.584Z" fill="#C7C7C7"/>
<path d="M130.946 454.254L97.4531 508.914H101.269L142.334 454.254H130.946Z" fill="#C7C7C7"/>
<path d="M147.37 454.254L180.863 508.914H177.048L135.994 454.254H147.37Z" fill="#C7C7C7"/>
<path d="M153.229 454.254L221.013 508.914H217.198L138.906 454.254H153.229Z" fill="#C7C7C7"/>
<path d="M266.363 434.203V418.214L173.279 414.398L124.102 283.114H11.4365L51.3044 434.203L146.537 460.946H152.512L266.363 434.203Z" fill="#455A64"/>
<path opacity="0.1" d="M11.4365 283.114H24.3267L65.8616 420.843L150.117 444.71L266.363 418.214V434.203L152.512 460.946H146.537L51.3044 434.203L11.4365 283.114Z" fill="black"/>
<path d="M215.683 533.779C212.842 532.687 148.943 480.34 147.769 476.806C147.311 475.468 154.39 465.712 163.289 454.172C165.202 451.683 167.21 449.124 169.253 446.53C182.495 429.695 196.947 412.144 196.947 412.144L239.796 447.023L210.917 480.446L204.577 487.783C204.577 487.783 220.085 518.776 220.954 522.791C221.823 526.806 218.524 534.859 215.683 533.779Z" fill="#AD6359"/>
<path d="M215.684 533.779C212.843 532.687 148.944 480.34 147.77 476.806C147.218 475.163 157.795 461.11 169.253 446.53L210.917 480.469L204.578 487.806C204.578 487.806 220.086 518.799 220.955 522.814C221.823 526.829 218.525 534.859 215.684 533.779Z" fill="#EBEBEB"/>
<path d="M215.683 533.779C212.842 532.687 148.943 480.34 147.769 476.806C147.311 475.468 154.39 465.712 163.289 454.172L204.577 487.806C204.577 487.806 220.085 518.799 220.954 522.814C221.823 526.829 218.524 534.859 215.683 533.779Z" fill="#FFC727"/>
<path d="M216.868 530.468C206.303 521.429 163.183 485.963 152.112 477.828C152.03 477.757 151.983 477.828 152.112 477.887C162.255 487.079 205.692 522.157 216.716 530.645C216.951 530.821 217.08 530.656 216.868 530.468Z" fill="#263238"/>
<path d="M218.724 517.144C217.559 516.138 216.198 515.384 214.727 514.932C213.256 514.479 211.707 514.337 210.178 514.514C207.435 514.816 204.913 516.161 203.134 518.271C203.134 518.329 203.204 518.435 203.263 518.376C205.363 516.55 208 515.456 210.776 515.259C213.552 515.062 216.317 515.773 218.654 517.285C218.663 517.293 218.674 517.3 218.686 517.304C218.699 517.307 218.712 517.308 218.724 517.306C218.737 517.303 218.749 517.298 218.759 517.291C218.769 517.283 218.778 517.273 218.783 517.261C218.789 517.25 218.792 517.237 218.792 517.225C218.792 517.212 218.789 517.199 218.783 517.188C218.777 517.176 218.769 517.166 218.759 517.159C218.749 517.151 218.737 517.146 218.724 517.144Z" fill="#263238"/>
<path d="M207.865 492.279C203.627 488.699 197.417 486.139 191.876 487.466C191.664 487.525 191.746 487.818 191.876 487.865C197.234 488.965 202.457 490.642 207.454 492.866C207.532 492.921 207.628 492.942 207.722 492.926C207.815 492.909 207.899 492.856 207.953 492.778C208.008 492.7 208.029 492.604 208.012 492.511C207.996 492.417 207.943 492.334 207.865 492.279Z" fill="#263238"/>
<path d="M210.119 496.329C205.881 492.808 199.671 490.19 194.129 491.516C193.918 491.516 193.989 491.868 194.129 491.915C199.487 493.017 204.71 494.694 209.708 496.916C209.786 496.971 209.882 496.992 209.976 496.976C210.069 496.959 210.152 496.906 210.207 496.828C210.261 496.751 210.283 496.654 210.266 496.561C210.25 496.467 210.197 496.384 210.119 496.329Z" fill="#263238"/>
<path d="M212.373 500.286C208.135 496.705 201.924 494.146 196.383 495.472C196.172 495.472 196.242 495.825 196.383 495.872C201.741 496.973 206.964 498.65 211.962 500.873C212.04 500.927 212.136 500.948 212.23 500.932C212.323 500.915 212.406 500.862 212.461 500.785C212.515 500.707 212.537 500.61 212.52 500.517C212.504 500.423 212.451 500.34 212.373 500.286Z" fill="#263238"/>
<path d="M214.627 504.277C210.389 500.755 204.178 498.149 198.637 499.476C198.426 499.476 198.496 499.828 198.637 499.863C203.994 500.974 209.216 502.655 214.216 504.876C214.295 504.93 214.393 504.951 214.488 504.934C214.582 504.916 214.666 504.861 214.721 504.782C214.775 504.703 214.796 504.605 214.778 504.51C214.761 504.416 214.706 504.332 214.627 504.277Z" fill="#263238"/>
<path d="M163.184 469.88C158.359 465.959 152.254 473.402 157.079 477.381C161.904 481.361 168.009 473.813 163.184 469.88Z" fill="white"/>
<path d="M221.87 484.59C221.177 481.009 216.998 480.528 214.133 481.303C209.219 482.71 204.764 485.391 201.219 489.074C201.2 489.086 201.184 489.102 201.173 489.121C201.161 489.141 201.155 489.163 201.155 489.186C201.155 489.208 201.161 489.23 201.173 489.25C201.184 489.27 201.2 489.286 201.219 489.297C201.17 489.392 201.143 489.497 201.142 489.604C201.14 489.71 201.164 489.816 201.211 489.912C201.257 490.008 201.326 490.092 201.411 490.156C201.497 490.221 201.596 490.264 201.701 490.283C206.491 490.671 211.55 491.68 216.305 490.589C219.158 490.002 222.527 488.018 221.87 484.59ZM209.144 489.391C206.796 489.25 204.448 489.004 202.1 488.957C204.565 487.371 207.108 485.909 209.719 484.578C210.997 483.955 212.314 483.417 213.663 482.97C215.753 482.324 222.891 482.183 219.533 487.196C217.62 490.013 211.95 489.591 209.144 489.438V489.391Z" fill="#263238"/>
<path d="M189.257 481.984C192.521 485.611 197.24 487.701 201.372 490.201C201.468 490.246 201.574 490.268 201.68 490.266C201.786 490.263 201.89 490.235 201.983 490.185C202.077 490.135 202.157 490.063 202.218 489.977C202.279 489.89 202.319 489.79 202.335 489.685C202.429 489.685 202.511 489.626 202.488 489.509C201.718 484.467 199.633 479.717 196.442 475.738C194.54 473.39 190.854 471.441 188.224 473.965C185.594 476.49 187.39 479.894 189.257 481.984ZM188.658 477.417C188.776 471.359 194.528 475.586 195.866 477.323C196.727 478.468 197.511 479.668 198.214 480.915C199.67 483.475 200.727 486.186 201.924 488.875C199.964 487.548 197.909 486.409 195.902 485.165C193.518 483.674 188.647 480.751 188.705 477.417H188.658Z" fill="#263238"/>
<path d="M284.348 381.48C281.108 403.927 224.934 468.143 218.442 475.503C217.479 476.583 216.962 477.182 216.962 477.182L171.565 441.411L172.105 440.73L213.1 388.395L92.7451 386.223L138.882 351.239C138.882 351.239 142.557 353.423 150.281 352.413C176.883 348.891 236.873 340.967 250.996 341.706C269.145 342.669 287.26 360.889 284.348 381.48Z" fill="#263238"/>
<path d="M227.764 368.931C226.246 370.602 224.835 372.366 223.537 374.213C222.093 376.068 220.614 377.9 219.17 379.755V379.813C219.429 379.261 219.675 378.721 219.945 378.181C220.872 376.327 221.612 374.413 222.692 372.64C222.699 372.63 222.704 372.617 222.706 372.605C222.708 372.592 222.708 372.579 222.705 372.567C222.703 372.554 222.698 372.542 222.69 372.532C222.683 372.521 222.674 372.512 222.663 372.505C222.652 372.498 222.64 372.494 222.627 372.491C222.615 372.489 222.602 372.489 222.589 372.492C222.577 372.495 222.565 372.5 222.554 372.507C222.544 372.515 222.535 372.524 222.528 372.535C221.413 374.296 220.18 375.963 219.17 377.806C218.724 378.675 218.29 379.555 217.891 380.447C217.679 380.94 217.456 381.433 217.257 381.938C217.147 382.169 217.057 382.409 216.987 382.654C216.329 383.511 215.695 384.38 215.073 385.26C213.688 387.209 212.467 389.275 211.058 391.212C210.988 391.306 211.152 391.412 211.234 391.318C212.643 389.498 214.228 387.796 215.66 386C217.092 384.204 218.513 382.267 219.886 380.365C221.26 378.463 222.54 376.632 223.878 374.765C225.344 372.939 226.693 371.021 227.916 369.025C227.929 369.004 227.933 368.98 227.927 368.957C227.922 368.934 227.907 368.914 227.887 368.901C227.867 368.889 227.842 368.885 227.819 368.89C227.796 368.896 227.776 368.91 227.764 368.931Z" fill="#37474F"/>
<path d="M223.161 466.64C220.579 464.386 217.808 462.308 215.084 460.218C212.361 458.128 209.614 456.027 206.867 453.961C201.361 449.817 195.867 445.637 190.302 441.576C187.25 439.333 184.174 437.138 180.992 435.06C180.852 434.978 180.699 435.201 180.828 435.307C186.064 439.779 191.629 443.853 197.123 447.985C202.617 452.118 208.17 456.203 213.746 460.312C216.798 462.531 219.839 464.82 223.02 466.851C223.15 466.98 223.302 466.734 223.161 466.64Z" fill="#37474F"/>
<path d="M125.464 291.965C137.955 315.738 152.771 340.967 166.811 344.618C180.159 348.14 211.939 314.823 217.292 303.764C219.158 299.96 194 283.278 190.431 286.072C183.728 291.367 169.03 308.107 166.952 307.685C164.874 307.262 146.995 291.39 130.947 278.042C121.167 269.954 116.824 275.495 125.464 291.965Z" fill="#AD6359"/>
<path d="M195.009 247.449L185.395 281.106C185.267 281.289 185.194 281.504 185.184 281.726C185.174 281.949 185.227 282.17 185.338 282.363C185.449 282.556 185.612 282.714 185.809 282.818C186.007 282.922 186.229 282.967 186.451 282.949L203.955 283.501C204.492 283.476 205.01 283.3 205.451 282.993C205.891 282.685 206.236 282.259 206.444 281.764L216.059 248.106C216.458 247.12 215.976 246.298 215.002 246.275L197.475 245.735C196.944 245.76 196.432 245.935 195.996 246.238C195.56 246.541 195.218 246.96 195.009 247.449Z" fill="#A6A6A6"/>
<path d="M197.087 247.507L187.473 281.165C187.085 282.151 187.555 282.973 188.529 283.008L206.045 283.56C206.579 283.533 207.096 283.356 207.534 283.048C207.972 282.741 208.315 282.316 208.522 281.822L218.137 248.165C218.536 247.179 218.054 246.357 217.08 246.333L199.576 245.781C199.041 245.805 198.523 245.98 198.083 246.285C197.642 246.59 197.297 247.014 197.087 247.507Z" fill="#DBDBDB"/>
<path d="M201.842 249.21C201.845 249.414 201.806 249.617 201.727 249.806C201.648 249.994 201.531 250.165 201.384 250.307C201.236 250.448 201.061 250.558 200.869 250.629C200.677 250.7 200.473 250.731 200.269 250.72C200.065 250.708 199.865 250.655 199.682 250.563C199.499 250.471 199.338 250.343 199.207 250.186C199.076 250.029 198.978 249.847 198.921 249.65C198.863 249.454 198.846 249.248 198.872 249.045C198.869 248.841 198.908 248.638 198.987 248.449C199.066 248.261 199.183 248.09 199.33 247.948C199.478 247.807 199.653 247.697 199.845 247.626C200.037 247.555 200.241 247.524 200.445 247.535C200.649 247.547 200.849 247.6 201.032 247.692C201.215 247.784 201.376 247.912 201.507 248.069C201.639 248.226 201.736 248.408 201.793 248.605C201.851 248.801 201.868 249.007 201.842 249.21Z" fill="#455A64"/>
<path d="M225.427 284.71C226.906 274.931 225.779 272.196 231.414 264.6C235.112 259.611 233.516 255.115 227.704 257.909C218.195 262.499 213.617 274.72 213.276 279.416L225.427 284.71Z" fill="#AD6359"/>
<path d="M212.807 310.35C212.807 310.35 221.94 299.69 224.547 289.418C226.343 282.315 228.538 266.432 213.018 251.029C209.332 247.378 201.502 244.784 205.341 252.931C208.076 258.719 211.563 261.571 212.537 265.223C212.537 265.223 202.171 263.109 198.661 266.937C195.586 270.288 192.753 273.854 190.185 277.608C190.766 278.233 191.385 278.821 192.04 279.369C192.04 279.369 189.093 283.266 189.692 290.662L212.807 310.35Z" fill="#AD6359"/>
<path d="M225.18 282.374C223.443 278.946 219.639 271.75 214.485 266.936C208.756 261.607 196.277 252.849 192.38 257.134C189.527 260.268 194 264.013 194 264.013C194 264.013 188.13 261.489 186.111 264.882C184.326 267.981 187.954 270.67 187.954 270.67C187.954 270.67 184.103 269.766 182.953 273.076C181.567 277.056 189.879 278.312 191.957 283.56C192.427 284.734 225.18 282.374 225.18 282.374Z" fill="#AD6359"/>
<path d="M209.849 273.933C205.752 269.091 200.277 265.614 194.153 263.966C193.988 263.966 193.883 264.037 194.012 264.095C199.66 266.736 204.963 270.06 209.802 273.992C209.802 273.992 209.872 273.968 209.849 273.933Z" fill="#263238"/>
<path d="M204.295 279.557C202.171 277.209 195.08 271.891 188.024 270.552C187.872 270.552 187.766 270.623 187.907 270.681C193.672 273.037 199.154 276.034 204.249 279.615C204.249 279.615 204.319 279.592 204.295 279.557Z" fill="#263238"/>
<path d="M181.803 290.404L208.041 318.192C208.041 318.192 180.37 349.22 167.374 345.98C154.379 342.74 129.808 307.556 121.93 285.227C116.471 269.754 125.041 272.255 134.081 279.827C143.12 287.399 166.717 306.206 167.75 305.936C168.783 305.666 181.803 290.404 181.803 290.404Z" fill="#FFC727"/>
<path opacity="0.1" d="M172.928 345.698C171.12 346.268 169.196 346.365 167.34 345.979C154.344 342.739 129.773 307.567 121.895 285.227C118.303 275.048 120.815 272.654 125.535 274.391C139.693 295.393 158.535 323.545 172.928 345.698Z" fill="black"/>
<path d="M199.506 322.817C195.714 318.978 180.722 302.731 177.764 299.009C177.553 298.751 177.67 298.551 177.917 298.798C189.562 310.009 196.125 318.755 199.658 322.665C199.741 322.759 199.6 322.911 199.506 322.817Z" fill="#263238"/>
<path d="M154.614 367.193C154.614 367.193 68.5737 382.924 68.1276 382.455C67.6815 381.985 77.6015 288.925 106.798 273.194C111.494 270.705 122.611 269.237 127.378 274.098C140.972 287.927 155.741 365.937 154.614 367.193Z" fill="#FFC727"/>
<path d="M153.71 359.48L68.9844 374.014C69.3013 371.455 69.724 368.402 70.2523 364.963L152.148 350.875C152.782 354.162 153.299 357.062 153.71 359.48Z" fill="#EBEBEB"/>
<path d="M151.244 346.379L71.0156 360.149C71.2622 358.623 71.5322 357.062 71.8257 355.453L150.317 341.988C150.646 343.467 150.951 344.946 151.244 346.379Z" fill="#EBEBEB"/>
<path d="M123.574 288.22C118.772 288.22 112.656 279.369 110.942 272.959C110.824 272.525 112.397 268.604 114.088 263.743C115.098 260.797 116.154 257.486 116.894 254.352L135.137 263.743C133.113 267.341 131.536 271.173 130.441 275.154C130.338 275.581 130.279 276.018 130.265 276.457C130.265 276.516 130.265 276.586 130.265 276.669C130.019 279.251 128.211 288.232 123.574 288.22Z" fill="#AD6359"/>
<path d="M135.149 263.884C133.123 267.481 131.546 271.314 130.453 275.295C130.35 275.722 130.291 276.159 130.277 276.598C130.282 276.665 130.282 276.731 130.277 276.798C129.594 276.744 128.917 276.622 128.258 276.434C117.047 273.452 117.235 258.719 117.505 254.762L135.149 263.884Z" fill="#263238"/>
<path d="M116.119 233.161C113.196 239.947 114.663 260.656 119.159 265.739C125.687 273.1 137.485 275.025 144.012 266.913C150.352 259.071 147.957 232.117 142.838 227.386C135.254 220.447 120.427 223.124 116.119 233.161Z" fill="#AD6359"/>
<path d="M135.008 248.059C135.008 248 134.914 248.13 134.914 248.188C135.09 249.574 135.055 251.182 133.846 251.71C133.846 251.71 133.846 251.804 133.846 251.792C135.372 251.475 135.395 249.339 135.008 248.059Z" fill="#263238"/>
<path d="M133.646 246.732C131.404 246.732 131.639 251.24 133.717 251.205C135.795 251.17 135.525 246.697 133.646 246.732Z" fill="#263238"/>
<path d="M143.155 247.613C143.155 247.613 143.272 247.672 143.272 247.73C143.272 249.116 143.566 250.701 144.846 251.1V251.182C143.296 251.041 142.967 248.928 143.155 247.613Z" fill="#263238"/>
<path d="M144.318 246.098C146.537 245.817 146.948 250.278 144.893 250.536C142.839 250.794 142.463 246.345 144.318 246.098Z" fill="#263238"/>
<path d="M131.733 244.772C132.312 244.567 132.88 244.331 133.435 244.068C134.071 243.912 134.635 243.543 135.032 243.023C135.138 242.833 135.175 242.612 135.137 242.398C135.098 242.184 134.986 241.99 134.821 241.849C134.474 241.625 134.075 241.496 133.662 241.475C133.25 241.454 132.84 241.543 132.473 241.731C131.658 242.006 130.975 242.575 130.559 243.328C130.466 243.503 130.426 243.702 130.445 243.9C130.464 244.098 130.541 244.286 130.667 244.44C130.792 244.594 130.96 244.708 131.15 244.767C131.339 244.826 131.542 244.828 131.733 244.772Z" fill="#263238"/>
<path d="M145.926 243.751C145.304 243.68 144.752 243.516 144.13 243.387C143.476 243.342 142.854 243.087 142.357 242.659C142.224 242.492 142.151 242.285 142.151 242.072C142.151 241.858 142.224 241.651 142.357 241.485C142.66 241.185 143.038 240.973 143.452 240.872C143.865 240.771 144.299 240.784 144.705 240.91C145.547 241.026 146.319 241.443 146.877 242.084C147.02 242.241 147.11 242.44 147.133 242.652C147.156 242.863 147.112 243.077 147.006 243.262C146.901 243.447 146.739 243.594 146.545 243.681C146.351 243.769 146.135 243.793 145.926 243.751Z" fill="#263238"/>
<path d="M135.724 256.312C136.104 256.842 136.591 257.287 137.153 257.618C137.715 257.95 138.34 258.161 138.988 258.237C139.552 258.32 140.126 258.32 140.69 258.237C140.9 258.216 141.109 258.177 141.312 258.12C141.386 258.104 141.452 258.065 141.501 258.007C141.55 257.95 141.579 257.878 141.582 257.803L141.336 254.844C141.735 255.021 143.766 255.807 143.684 255.244C143.308 250.437 142.442 245.681 141.101 241.05C141.097 241.033 141.09 241.017 141.08 241.003C141.07 240.989 141.057 240.977 141.042 240.968C141.028 240.958 141.011 240.952 140.994 240.949C140.977 240.946 140.959 240.947 140.942 240.951C140.925 240.954 140.909 240.962 140.895 240.972C140.881 240.982 140.869 240.994 140.86 241.009C140.85 241.024 140.844 241.04 140.841 241.057C140.838 241.075 140.839 241.092 140.843 241.109C141.171 245.547 142.275 249.902 142.674 254.363C141.949 254.071 141.186 253.881 140.408 253.8C140.326 253.8 140.807 257.427 140.796 257.462C139.925 257.594 139.037 257.55 138.184 257.332C137.331 257.114 136.53 256.728 135.83 256.195C135.748 256.101 135.642 256.206 135.724 256.312Z" fill="#263238"/>
<path d="M140.244 258.014C139.635 258.819 138.825 259.451 137.896 259.846C137.381 260.052 136.814 260.089 136.276 259.951C135.102 259.658 135.102 258.59 135.29 257.674C135.408 257.186 135.581 256.713 135.807 256.265C137.063 257.304 138.617 257.916 140.244 258.014Z" fill="#263238"/>
<path d="M137.896 259.857C137.381 260.063 136.814 260.1 136.276 259.963C135.102 259.67 135.102 258.601 135.29 257.686C135.906 257.701 136.498 257.924 136.971 258.319C137.444 258.713 137.77 259.255 137.896 259.857Z" fill="#FF9CBD"/>
<path d="M114.205 251.863C119.605 252.285 122.423 245.864 121.249 240.675C121.249 240.675 135.583 242.682 136.358 231.166C137.499 232.758 138.982 234.074 140.699 235.017C142.416 235.96 144.322 236.505 146.278 236.613L147.229 240.663C148.708 240.252 150.305 236.073 146.724 232.762C146.724 232.762 146.524 227.022 142.31 223.535C141.172 222.537 139.77 221.89 138.273 221.669C136.776 221.448 135.247 221.664 133.869 222.291C131.383 220.466 128.285 219.679 125.229 220.095C123.634 220.338 122.121 220.959 120.816 221.907C119.511 222.855 118.451 224.101 117.727 225.542C117.727 225.542 110.601 226.846 109.357 231.894C108.97 233.317 108.89 234.806 109.121 236.263C109.351 237.72 109.888 239.112 110.695 240.346C110.695 240.346 108.887 242.318 109.768 246.639C110.331 249.409 112.585 251.734 114.205 251.863Z" fill="#263238"/>
<path d="M136.053 230.133C136.147 231.069 136.147 232.013 136.053 232.95C135.979 233.876 135.798 234.79 135.513 235.674C134.948 237.416 133.75 238.882 132.155 239.783C130.513 240.624 128.695 241.067 126.849 241.074C125.921 241.074 124.982 241.074 124.043 240.98C123.104 240.886 122.176 240.757 121.237 240.675C122.153 240.898 123.08 241.097 124.008 241.309C124.935 241.52 125.898 241.485 126.849 241.579C128.796 241.671 130.735 241.267 132.484 240.405C134.204 239.411 135.467 237.785 136.006 235.873C136.504 233.994 136.52 232.02 136.053 230.133Z" fill="#263238"/>
<path d="M143.402 236.883C141.837 236.348 140.373 235.555 139.071 234.535C138.435 234.021 137.871 233.425 137.392 232.762C136.92 232.08 136.527 231.348 136.218 230.579C136.291 231.446 136.552 232.287 136.981 233.044C137.4 233.819 137.971 234.502 138.66 235.051C139.335 235.599 140.092 236.039 140.902 236.355C141.701 236.667 142.546 236.846 143.402 236.883Z" fill="#263238"/>
<path d="M132.284 255.056C131.157 255 130.067 254.629 129.14 253.985C128.212 253.341 127.484 252.449 127.038 251.412C126.592 250.374 126.446 249.233 126.617 248.117C126.788 247 127.269 245.954 128.004 245.098C128.74 244.241 129.701 243.608 130.779 243.271C131.856 242.933 133.007 242.905 134.1 243.189C135.193 243.473 136.184 244.058 136.961 244.877C137.738 245.697 138.269 246.718 138.495 247.824C138.807 249.39 138.489 251.015 137.61 252.347C136.731 253.679 135.361 254.611 133.799 254.939C133.301 255.042 132.792 255.082 132.284 255.056ZM132.836 243.798C132.399 243.774 131.961 243.81 131.533 243.903C130.236 244.175 129.09 244.931 128.331 246.018C127.571 247.104 127.254 248.44 127.444 249.752C127.634 251.064 128.317 252.254 129.353 253.08C130.39 253.907 131.702 254.307 133.024 254.2C134.345 254.093 135.576 253.486 136.466 252.504C137.356 251.521 137.838 250.236 137.814 248.911C137.79 247.585 137.262 246.319 136.337 245.369C135.413 244.419 134.161 243.857 132.836 243.798Z" fill="#FFC727"/>
<path d="M146.102 254.035C143.754 253.917 141.817 251.452 141.605 248.317C141.466 246.817 141.812 245.311 142.592 244.021C142.889 243.447 143.329 242.958 143.869 242.603C144.409 242.248 145.032 242.038 145.677 241.994C146.322 241.949 146.968 242.071 147.552 242.348C148.136 242.624 148.639 243.047 149.013 243.575C149.944 244.755 150.489 246.194 150.575 247.695C150.798 251.018 148.966 253.859 146.501 254.035H146.102ZM146.031 242.788H145.726C145.215 242.848 144.725 243.03 144.298 243.318C143.872 243.606 143.52 243.992 143.272 244.443C142.592 245.593 142.288 246.927 142.404 248.259C142.603 251.135 144.411 253.365 146.442 253.225C148.473 253.084 149.964 250.63 149.764 247.754C149.699 246.42 149.219 245.139 148.391 244.091C148.114 243.714 147.761 243.4 147.354 243.169C146.948 242.939 146.497 242.797 146.031 242.753V242.788Z" fill="#FFC727"/>
<path d="M138.342 248.529L137.778 247.953C138.635 247.12 140.678 245.946 142.263 247.413L141.711 248C140.302 246.686 138.424 248.458 138.342 248.529Z" fill="#FFC727"/>
<path d="M112.809 252.062L112.069 251.734C112.222 251.393 113.584 248.353 115.368 247.93C117.153 247.507 126.685 247.683 127.108 247.695V248.505C123.244 248.368 119.377 248.439 115.521 248.717C114.37 248.998 113.173 251.217 112.809 252.062Z" fill="#FFC727"/>
<path d="M119.3 251.499C119.3 251.499 115.297 244.455 112.162 245.875C109.028 247.296 111.634 257.099 115.015 258.719C115.433 258.963 115.897 259.119 116.379 259.177C116.86 259.234 117.348 259.191 117.811 259.051C118.275 258.911 118.705 258.677 119.075 258.363C119.444 258.049 119.744 257.663 119.958 257.228L119.3 251.499Z" fill="#AD6359"/>
<path d="M112.949 248.681C112.949 248.681 112.879 248.752 112.949 248.775C115.297 249.949 116.401 252.379 117.093 254.821C116.974 254.562 116.8 254.332 116.582 254.147C116.365 253.962 116.11 253.827 115.835 253.751C115.56 253.675 115.272 253.66 114.99 253.707C114.709 253.754 114.441 253.862 114.205 254.023C114.193 254.03 114.183 254.04 114.176 254.053C114.169 254.065 114.166 254.079 114.166 254.093C114.166 254.107 114.169 254.121 114.176 254.134C114.183 254.146 114.193 254.156 114.205 254.164C114.649 254.064 115.113 254.104 115.534 254.279C115.954 254.453 116.31 254.753 116.553 255.138C116.952 255.791 117.283 256.483 117.539 257.204C117.633 257.427 118.033 257.345 117.974 257.087V257.028C118.35 253.905 116.307 249.303 112.949 248.681Z" fill="#263238"/>
<path d="M130.489 278.946H130.43C130.23 282.867 129.514 291.86 123.21 290.686C120.717 289.992 118.471 288.609 116.73 286.694C113.333 283.109 110.496 279.033 108.313 274.602C108.254 274.497 108.113 274.602 108.148 274.696C108.908 276.989 109.936 279.184 111.212 281.235C112.631 283.61 114.369 285.778 116.378 287.68C118.291 289.441 120.604 291.202 123.304 291.648C124.461 291.845 125.651 291.642 126.678 291.072C127.704 290.503 128.506 289.6 128.951 288.514C130.206 285.489 130.733 282.212 130.489 278.946Z" fill="#263238"/>
<path d="M97.1476 280.578C83.7174 292.318 49.285 338.689 57.7375 348.609C66.1901 358.529 119.336 351.65 134.609 346.167C139.164 344.536 125.381 315.832 120.357 314.693C116.154 313.731 93.4613 321.491 92.9565 320.176C92.4517 318.861 96.8775 308.624 103.992 290.287C112.198 269.155 103.088 275.377 97.1476 280.578Z" fill="#AD6359"/>
<path d="M142.78 308.119C153.475 307.708 156.281 309.293 165.086 304.104C170.885 300.735 175.534 302.989 171.824 308.906C165.755 318.567 152.066 321.995 146.983 321.819L142.78 308.119Z" fill="#AD6359"/>
<path d="M113.76 315.456C113.76 315.456 126.263 310.068 137.603 308.495C145.457 307.415 162.796 306.957 177.518 325.494C181.04 329.896 182.848 338.631 174.548 333.512C168.678 329.885 166.013 325.799 162.198 324.308C162.198 324.308 163.231 335.696 158.676 339.018C154.701 341.919 150.527 344.535 146.185 346.848C145.584 346.148 145.027 345.411 144.518 344.641C144.518 344.641 139.986 347.341 132.109 345.815L113.76 315.456Z" fill="#AD6359"/>
<path d="M145.268 308.671C148.79 310.948 156.022 315.903 160.53 322.019C165.578 328.816 173.444 343.279 168.419 346.954C164.709 349.654 161.211 344.395 161.211 344.395C161.211 344.395 163.207 351.051 159.321 352.753C155.799 354.303 153.322 350.077 153.322 350.077C153.322 350.077 153.85 354.326 150.152 355.172C145.703 356.181 145.351 347.107 139.962 344.23C138.776 343.585 145.268 308.671 145.268 308.671Z" fill="#AD6359"/>
<path d="M152.488 326.104C157.2 331.093 160.28 337.4 161.317 344.183C161.317 344.359 161.211 344.465 161.164 344.312C158.995 337.929 156.062 331.831 152.43 326.151C152.43 326.151 152.465 326.104 152.488 326.104Z" fill="#263238"/>
<path d="M145.82 331.458C148.098 334.017 152.958 342.27 153.557 350.018C153.557 350.194 153.439 350.3 153.392 350.135C151.556 343.655 148.997 337.401 145.761 331.493C145.761 331.493 145.75 331.422 145.82 331.458Z" fill="#263238"/>
<path d="M162.185 324.25C165.519 325.611 167.585 327.513 170.285 329.826C171.604 330.984 172.988 332.066 174.43 333.066C175.756 333.97 177.705 335.32 179.313 334.24C179.696 333.905 179.983 333.473 180.144 332.991C180.305 332.508 180.334 331.991 180.229 331.493C179.945 330.057 179.438 328.675 178.726 327.396C178.726 327.396 178.785 327.302 178.808 327.396C179.511 328.561 180.089 329.796 180.534 331.082C180.801 331.966 180.801 332.91 180.534 333.794C179.842 335.637 177.576 335.66 176.05 334.968C175.141 334.532 174.28 334.005 173.479 333.395C172.692 332.831 171.929 332.221 171.131 331.61C169.605 330.342 168.161 328.992 166.658 327.701C165.168 326.483 163.6 325.365 161.962 324.355C161.948 324.326 161.946 324.292 161.957 324.261C161.968 324.23 161.991 324.205 162.021 324.191C162.05 324.177 162.084 324.175 162.115 324.186C162.146 324.197 162.171 324.22 162.185 324.25Z" fill="#263238"/>
<path d="M113.759 315.456L126.86 352.096C126.86 352.096 60.3904 360.149 55.9176 348.292C51.4448 336.435 81.1344 294.654 93.8015 282.902C108.488 269.273 109.662 274.532 105.424 287.481C100.998 301.052 93.1089 320.516 93.1089 320.516L113.759 315.456Z" fill="#FFC727"/>
<path d="M72.4237 327.842C75.6557 326.067 79.01 324.526 82.4611 323.228C85.8923 321.971 89.4121 320.97 92.9916 320.235C95.0225 319.777 97.0652 319.424 99.1197 319.061C99.1197 319.061 99.1901 319.143 99.1197 319.154C95.5435 319.93 92.0156 320.914 88.554 322.101C85.0869 323.236 81.655 324.437 78.2583 325.705C76.3213 326.433 74.4312 327.231 72.5294 328.053C72.5013 328.067 72.4689 328.069 72.4392 328.06C72.4094 328.05 72.3849 328.028 72.3709 328C72.3569 327.972 72.3546 327.94 72.3645 327.91C72.3744 327.88 72.3957 327.856 72.4237 327.842Z" fill="#263238"/>
<path d="M113.595 315.339C113.255 315.398 94.894 319.483 94.2835 319.694C94.3774 319.436 98.5215 310.303 99.132 308.964L99.3081 308.565C99.6955 307.978 100.083 307.391 100.482 306.793C100.881 306.194 101.409 305.255 101.867 304.445L100.388 306.687C100.165 307.039 99.942 307.391 99.7307 307.755C100.142 306.804 100.541 305.853 100.905 304.902C101.539 303.376 102.079 301.838 102.713 300.301H102.63C101.456 302.965 100.106 305.583 98.8855 308.248C97.6645 310.913 93.0156 320.681 93.0156 320.681C93.0156 320.681 113.29 315.738 113.689 315.609C113.725 315.597 113.754 315.57 113.771 315.536C113.787 315.502 113.79 315.463 113.777 315.427C113.765 315.391 113.739 315.362 113.704 315.345C113.67 315.329 113.631 315.327 113.595 315.339Z" fill="#263238"/>
<path d="M112.503 338.267C111.059 334.181 109.662 330.049 108.066 326.046C107.162 323.756 106.27 321.467 105.354 319.178C105.354 319.096 105.166 319.178 105.19 319.178C106.469 323.334 107.761 327.501 109.24 331.598C110.719 335.696 112.128 339.816 113.642 343.831C114.511 346.132 115.442 348.41 116.436 350.664C116.436 350.664 116.53 350.664 116.518 350.664C115.38 346.484 113.947 342.387 112.503 338.267Z" fill="#263238"/>
<path d="M127.648 352.718C127.108 351.544 126.474 349.948 125.852 348.832C125.699 348.527 125.476 348.574 125.593 348.832C125.992 349.854 126.286 350.992 126.685 352.049C125.746 352.131 124.818 352.202 123.891 352.307L120.663 352.648C118.55 352.867 116.436 353.066 114.323 353.246C110.05 353.599 105.769 353.861 101.48 354.033C92.874 354.431 84.253 354.376 75.6528 353.869C73.3048 353.716 70.8513 353.516 68.4564 353.246C66.0615 352.976 63.4083 352.648 61.4126 352.202C61.3539 352.202 61.3304 352.284 61.4126 352.307C63.3956 352.938 65.4249 353.413 67.482 353.728C69.6421 354.045 71.8022 354.315 73.974 354.503C78.3059 354.89 82.6496 355.043 86.9933 355.078C95.6024 355.148 104.211 354.859 112.821 354.209C115.227 354.033 117.622 353.822 120.029 353.587L123.656 353.199C124.854 353.106 127.742 352.918 127.648 352.718Z" fill="#263238"/>
<path d="M213.289 351.908H129.597V355.653H213.289V351.908Z" fill="#C7C7C7"/>
<path d="M213.288 351.908V355.653H156.397L159.262 351.908H213.288Z" fill="#A6A6A6"/>
<path d="M167.902 355.653H241.146L251.747 303.975H178.503L167.902 355.653Z" fill="#A6A6A6"/>
<path d="M171.331 355.653H244.575L255.176 303.975H181.932L171.331 355.653Z" fill="#C7C7C7"/>
<path d="M219.851 327.889C219.932 329.042 219.621 330.189 218.969 331.143C218.317 332.098 217.362 332.804 216.258 333.148C214.169 333.594 212.419 331.974 212.337 329.521C212.277 328.369 212.603 327.23 213.265 326.285C213.926 325.341 214.885 324.645 215.988 324.308C218.019 323.827 219.78 325.459 219.851 327.889Z" fill="white"/>
<path d="M383.853 462.93C382.762 465.771 330.203 529.494 326.658 530.668C325.32 531.114 315.587 524 304.082 515.066C301.594 513.141 299.034 511.133 296.452 509.079C279.664 495.778 262.16 481.279 262.16 481.279L297.262 438.547L330.579 467.52L337.904 473.883C337.904 473.883 368.874 458.481 372.9 457.589C376.927 456.696 384.945 460.089 383.853 462.93Z" fill="#AD6359"/>
<path d="M383.854 462.93C382.762 465.771 330.204 529.494 326.658 530.668C325.026 531.196 310.998 520.595 296.452 509.079L330.497 467.52L337.823 473.883C337.823 473.883 368.874 458.481 372.901 457.588C376.928 456.696 384.946 460.089 383.854 462.93Z" fill="#EBEBEB"/>
<path d="M383.854 462.93C382.762 465.771 330.204 529.494 326.658 530.668C325.32 531.114 315.588 524 304.083 515.066L337.846 473.883C337.846 473.883 368.874 458.481 372.901 457.588C376.928 456.696 384.946 460.089 383.854 462.93Z" fill="#FFC727"/>
<path d="M380.543 461.744C371.468 472.204 335.874 515.277 327.714 526.313C327.656 526.407 327.714 526.453 327.785 526.313C337.001 516.134 372.266 472.768 380.742 461.827C380.907 461.651 380.743 461.521 380.543 461.744Z" fill="#263238"/>
<path d="M367.23 459.831C366.22 460.994 365.461 462.354 365.003 463.825C364.544 465.296 364.395 466.846 364.565 468.377C364.866 471.115 366.202 473.635 368.299 475.421C368.369 475.421 368.463 475.351 368.404 475.292C366.594 473.18 365.515 470.539 365.327 467.764C365.139 464.989 365.851 462.227 367.359 459.89C367.43 459.854 367.301 459.749 367.23 459.831Z" fill="#263238"/>
<path d="M342.331 470.619C338.739 474.846 336.168 481.044 337.471 486.585C337.471 486.797 337.823 486.726 337.858 486.585C338.986 481.231 340.682 476.013 342.918 471.019C342.971 470.941 342.991 470.845 342.973 470.753C342.955 470.66 342.902 470.578 342.824 470.526C342.746 470.473 342.65 470.453 342.558 470.47C342.466 470.488 342.384 470.542 342.331 470.619Z" fill="#263238"/>
<path d="M346.334 468.377C342.753 472.604 340.171 478.802 341.474 484.343C341.474 484.555 341.838 484.484 341.873 484.343C342.993 478.988 344.685 473.769 346.921 468.776C346.974 468.699 346.994 468.603 346.976 468.51C346.958 468.418 346.905 468.336 346.827 468.283C346.749 468.23 346.653 468.211 346.561 468.228C346.469 468.246 346.387 468.299 346.334 468.377Z" fill="#263238"/>
<path d="M350.349 466.135C346.756 470.361 344.185 476.56 345.488 482.101C345.488 482.324 345.84 482.242 345.876 482.101C347.001 476.746 348.698 471.527 350.936 466.534C350.988 466.456 351.008 466.361 350.991 466.268C350.973 466.176 350.919 466.094 350.842 466.041C350.764 465.988 350.668 465.968 350.576 465.986C350.483 466.004 350.401 466.057 350.349 466.135Z" fill="#263238"/>
<path d="M354.352 463.893C350.772 468.119 348.189 474.329 349.492 479.87C349.551 480.082 349.856 480.011 349.891 479.87C351.015 474.517 352.707 469.298 354.939 464.304C354.994 464.226 355.015 464.13 354.999 464.036C354.982 463.942 354.929 463.859 354.851 463.805C354.774 463.75 354.677 463.729 354.584 463.745C354.49 463.762 354.407 463.815 354.352 463.893Z" fill="#263238"/>
<path d="M319.791 515.23C315.846 520.032 323.313 526.172 327.269 521.347C331.225 516.522 323.747 510.417 319.791 515.23Z" fill="white"/>
<path d="M334.724 456.579C331.202 457.272 330.65 461.439 331.413 464.315C332.818 469.222 335.486 473.675 339.15 477.229C339.232 477.311 339.326 477.229 339.384 477.229C339.478 477.279 339.582 477.306 339.689 477.307C339.795 477.309 339.9 477.285 339.995 477.238C340.09 477.191 340.173 477.122 340.236 477.037C340.299 476.952 340.341 476.852 340.359 476.748C340.77 471.97 341.791 466.898 340.711 462.144C340.089 459.314 338.117 455.933 334.724 456.579ZM339.525 469.328C339.384 471.676 339.126 474.024 339.067 476.372C337.492 473.903 336.042 471.356 334.724 468.741C334.097 467.467 333.564 466.148 333.127 464.797C332.481 462.707 332.364 455.558 337.377 458.927C340.089 460.852 339.654 466.511 339.525 469.328Z" fill="#263238"/>
<path d="M331.976 489.145C335.615 485.893 337.717 481.185 340.194 477.053C340.452 476.63 340.077 476.184 339.677 476.09C339.679 476.068 339.676 476.046 339.668 476.025C339.661 476.004 339.649 475.986 339.633 475.97C339.618 475.954 339.599 475.942 339.578 475.935C339.557 475.927 339.535 475.924 339.513 475.926C334.468 476.687 329.711 478.76 325.719 481.936C323.371 483.827 321.41 487.513 323.923 490.154C326.435 492.796 329.84 491.046 331.976 489.145ZM327.409 489.72C321.352 489.591 325.601 483.85 327.339 482.512C328.484 481.674 329.685 480.913 330.931 480.234C333.521 478.866 336.182 477.635 338.903 476.548C337.576 478.497 336.425 480.551 335.181 482.547C333.655 484.93 330.743 489.79 327.409 489.72Z" fill="#263238"/>
<path d="M328.806 460.993L289.795 507.224L172.14 423.45L160.542 415.232C160.542 415.232 157.207 417.427 152.195 420.115C145.233 423.86 135.031 428.58 126.05 429.789C110.977 431.761 88.2957 431.268 75.8164 414.152C65.2507 399.735 68.9018 381.152 68.9018 381.152L85.5134 374.237C85.5134 374.237 125.006 342.141 150.34 341.472C161.093 341.166 176.66 349.513 191.053 358.201C205.446 366.888 328.806 460.993 328.806 460.993Z" fill="#263238"/>
<path d="M160.542 415.185C160.542 415.185 157.208 417.38 152.195 420.069C143.519 409.421 125.111 390.05 124.548 389.358L160.542 415.185Z" fill="#37474F"/>
<path d="M99.9657 363.542C97.6178 365.139 95.2699 366.829 93.0041 368.473C90.7383 370.116 88.3082 371.595 86.1833 373.356C84.0585 375.117 81.8632 377.066 79.7735 379.003C78.7639 379.931 77.766 380.87 76.7916 381.844C75.7666 382.777 74.813 383.786 73.9389 384.861C73.8684 384.967 74.0093 385.084 74.115 385.026C75.2213 384.258 76.2762 383.419 77.2729 382.513L80.5718 379.778C82.6967 378.017 84.8568 376.256 86.9816 374.542C89.1065 372.828 91.0318 370.868 93.1215 369.083C95.2112 367.299 97.6882 365.42 100.036 363.671C100.036 363.589 100.036 363.507 99.9657 363.542Z" fill="#37474F"/>
<path d="M316.762 456.544C314.414 459.033 312.207 461.709 310 464.339C307.793 466.969 305.585 469.622 303.402 472.287C299.023 477.616 294.621 482.923 290.312 488.311C287.964 491.27 285.616 494.252 283.421 497.339C283.327 497.468 283.55 497.633 283.656 497.515C288.352 492.467 292.66 487.09 297.016 481.761C301.371 476.431 305.75 471.077 310.035 465.689C312.383 462.731 314.801 459.819 316.961 456.696C317.055 456.579 316.856 456.415 316.762 456.544Z" fill="#37474F"/>
<path d="M228.327 463.318C222.351 458.493 208.757 449.054 202.558 444.534C196.36 440.014 190.231 435.506 183.974 431.127C182.178 429.871 180.358 428.639 178.55 427.406C176.743 426.173 174.852 425.058 173.092 423.743C172.986 423.673 172.892 423.849 172.986 423.919C174.618 425.093 176.144 426.455 177.74 427.688C179.337 428.92 180.781 430.036 182.319 431.21C185.324 433.487 188.353 435.718 191.382 437.96C197.51 442.515 203.697 446.999 209.942 451.413C213.464 453.902 224.429 461.298 228.057 463.67C228.268 463.822 228.526 463.458 228.327 463.318Z" fill="#37474F"/>
<path d="M266.962 413.717C261.444 409.022 248.859 400.005 243.071 395.662C237.284 391.318 231.332 386.845 225.462 382.478L208.04 369.541C202.382 365.35 196.758 361.088 190.783 357.367C187.508 355.324 184.15 353.434 180.699 351.732C177.351 349.96 173.855 348.483 170.25 347.318C170.145 347.318 170.086 347.435 170.18 347.494C173.127 349.184 176.226 350.617 179.219 352.26C182.213 353.904 185.089 355.571 187.93 357.355C193.859 361.053 199.459 365.244 205.082 369.388C216.763 378.005 228.42 386.657 240.183 395.216C246.758 399.912 259.871 409.785 266.715 414.175C266.915 414.21 267.161 413.882 266.962 413.717Z" fill="#37474F"/>
</svg>
