<svg width="76" height="69" viewBox="0 0 76 69" fill="none" xmlns="http://www.w3.org/2000/svg">
<rect width="76" height="69" fill="#17637C"/>
<g clip-path="url(#clip0_564_8359)">
<path fill-rule="evenodd" clip-rule="evenodd" d="M38 50.4375C40.7101 50.4415 43.3731 49.7286 45.7188 48.3713V43.3125C45.7188 41.8952 45.1557 40.536 44.1536 39.5339C43.1515 38.5318 41.7923 37.9688 40.375 37.9688H35.625C34.2077 37.9688 32.8485 38.5318 31.8464 39.5339C30.8443 40.536 30.2813 41.8952 30.2812 43.3125V48.3713C32.6269 49.7286 35.2899 50.4415 38 50.4375ZM49.2812 43.3125V45.5379C51.3349 43.3394 52.7014 40.5887 53.2128 37.624C53.7242 34.6593 53.3582 31.6097 52.1597 28.8502C50.9613 26.0907 48.9827 23.7416 46.467 22.0915C43.9514 20.4414 41.0085 19.5624 38 19.5624C34.9915 19.5624 32.0486 20.4414 29.533 22.0915C27.0173 23.7416 25.0387 26.0907 23.8402 28.8502C22.6418 31.6097 22.2758 34.6593 22.7872 37.624C23.2986 40.5887 24.6651 43.3394 26.7188 45.5379V43.3125C26.718 41.4762 27.285 39.6845 28.3419 38.1829C29.3989 36.6812 30.8941 35.543 32.623 34.924C31.7262 33.8924 31.145 32.6247 30.9488 31.272C30.7526 29.9192 30.9496 28.5386 31.5164 27.2948C32.0832 26.0509 32.9959 24.9964 34.1455 24.2569C35.2951 23.5174 36.6331 23.1242 38 23.1242C39.3669 23.1242 40.7049 23.5174 41.8545 24.2569C43.0041 24.9964 43.9168 26.0509 44.4836 27.2948C45.0504 28.5386 45.2474 29.9192 45.0512 31.272C44.855 32.6247 44.2738 33.8924 43.377 34.924C45.1059 35.543 46.6011 36.6812 47.6581 38.1829C48.715 39.6845 49.282 41.4762 49.2812 43.3125ZM38 54C43.0391 54 47.8718 51.9982 51.435 48.435C54.9982 44.8718 57 40.0391 57 35C57 29.9609 54.9982 25.1282 51.435 21.565C47.8718 18.0018 43.0391 16 38 16C32.9609 16 28.1282 18.0018 24.565 21.565C21.0018 25.1282 19 29.9609 19 35C19 40.0391 21.0018 44.8718 24.565 48.435C28.1282 51.9982 32.9609 54 38 54ZM41.5625 30.25C41.5625 31.1948 41.1872 32.101 40.5191 32.7691C39.851 33.4372 38.9448 33.8125 38 33.8125C37.0552 33.8125 36.149 33.4372 35.4809 32.7691C34.8128 32.101 34.4375 31.1948 34.4375 30.25C34.4375 29.3052 34.8128 28.399 35.4809 27.7309C36.149 27.0628 37.0552 26.6875 38 26.6875C38.9448 26.6875 39.851 27.0628 40.5191 27.7309C41.1872 28.399 41.5625 29.3052 41.5625 30.25Z" fill="white"/>
</g>
<defs>
<clipPath id="clip0_564_8359">
<rect width="38" height="38" fill="white" transform="translate(19 16)"/>
</clipPath>
</defs>
</svg>
