<svg width="674" height="503" viewBox="0 0 674 503" fill="none" xmlns="http://www.w3.org/2000/svg">
<path d="M673.198 441.414H0V441.75H673.198V441.414Z" fill="#E6E6E6"/>
<path d="M153.3 452.212H106.984V452.549H153.3V452.212Z" fill="#E6E6E6"/>
<path d="M176.015 452.212H162.174V452.549H176.015V452.212Z" fill="#E6E6E6"/>
<path d="M244.304 445.601H218.238V445.938H244.304V445.601Z" fill="#E6E6E6"/>
<path d="M579.772 459.684H521.621V460.021H579.772V459.684Z" fill="#E6E6E6"/>
<path d="M600.29 459.684H591.768V460.021H600.29V459.684Z" fill="#E6E6E6"/>
<path d="M536.337 447.863H410.207V448.2H536.337V447.863Z" fill="#E6E6E6"/>
<path d="M319.095 381.365H59.1198C57.0831 381.361 55.1311 380.55 53.6923 379.108C52.2534 377.667 51.4453 375.713 51.4453 373.677V8.22463C51.463 6.19969 52.279 4.26351 53.7159 2.83665C55.1529 1.4098 57.0947 0.607503 59.1198 0.604034H319.095C321.134 0.604034 323.09 1.41401 324.531 2.85577C325.973 4.29754 326.783 6.25299 326.783 8.29195V373.677C326.783 375.716 325.973 377.671 324.531 379.113C323.09 380.555 321.134 381.365 319.095 381.365ZM59.1198 0.873315C57.1724 0.876881 55.306 1.65296 53.9303 3.03122C52.5546 4.40947 51.7819 6.27727 51.7819 8.22463V373.677C51.7819 375.624 52.5546 377.492 53.9303 378.87C55.306 380.248 57.1724 381.024 59.1198 381.028H319.095C321.044 381.024 322.912 380.249 324.289 378.871C325.667 377.493 326.443 375.625 326.447 373.677V8.22463C326.443 6.27603 325.667 4.40826 324.289 3.0304C322.912 1.65253 321.044 0.876874 319.095 0.873315H59.1198Z" fill="#E6E6E6"/>
<path d="M610.335 381.365H350.346C348.308 381.361 346.355 380.55 344.914 379.109C343.473 377.668 342.662 375.715 342.658 373.677V8.22463C342.679 6.19846 343.498 4.26229 344.937 2.83581C346.377 1.40933 348.32 0.607465 350.346 0.604034H610.335C612.358 0.611042 614.296 1.4149 615.73 2.84138C617.164 4.26785 617.978 6.20201 617.996 8.22463V373.677C617.996 375.711 617.19 377.662 615.754 379.103C614.318 380.544 612.369 381.357 610.335 381.365ZM350.346 0.873315C348.398 0.876874 346.53 1.65253 345.152 3.0304C343.774 4.40826 342.998 6.27603 342.995 8.22463V373.677C342.998 375.625 343.774 377.493 345.152 378.871C346.53 380.249 348.398 381.024 350.346 381.028H610.335C612.284 381.024 614.151 380.249 615.529 378.871C616.907 377.493 617.683 375.625 617.686 373.677V8.22463C617.683 6.27603 616.907 4.40826 615.529 3.0304C614.151 1.65253 612.284 0.876874 610.335 0.873315H350.346Z" fill="#E6E6E6"/>
<path d="M564.166 257.914H469.824V441.414H564.166V257.914Z" fill="#F5F5F5"/>
<path d="M564.167 257.914H556.385V441.414H564.167V257.914Z" fill="#F0F0F0"/>
<path d="M259.882 302.789H477.096V263.151H259.882V302.789Z" fill="#E0E0E0"/>
<path d="M350.453 441.548H257.323C256.966 441.548 256.623 441.407 256.371 441.154C256.118 440.902 255.977 440.559 255.977 440.202C255.977 439.845 256.118 439.503 256.371 439.25C256.623 438.998 256.966 438.856 257.323 438.856H350.453C363.917 438.856 365.708 434.924 365.708 419.333V222.759C365.708 222.402 365.85 222.06 366.102 221.807C366.355 221.555 366.697 221.413 367.054 221.413C367.411 221.413 367.754 221.555 368.006 221.807C368.259 222.06 368.401 222.402 368.401 222.759V419.333C368.401 436.001 365.816 441.548 350.453 441.548Z" fill="#E0E0E0"/>
<path d="M268.229 272.387L562.039 272.387V258.627L268.229 258.627V272.387Z" fill="#F0F0F0"/>
<path d="M270.356 257.914H176.014V441.414H270.356V257.914Z" fill="#F5F5F5"/>
<path d="M270.343 257.914H262.561V441.414H270.343V257.914Z" fill="#F0F0F0"/>
<path d="M203.549 441.414L203.549 114.644H122.59L122.59 441.414H203.549Z" fill="#FAFAFA"/>
<path d="M199.105 196.262V124.19H127.033V196.262H199.105Z" fill="#F5F5F5"/>
<path d="M147.107 123.22H179.071C179.071 125.202 178.284 127.103 176.882 128.504C175.481 129.905 173.58 130.693 171.598 130.693H154.634C153.648 130.7 152.67 130.512 151.758 130.139C150.845 129.767 150.015 129.218 149.315 128.523C148.615 127.829 148.06 127.002 147.681 126.092C147.302 125.182 147.107 124.206 147.107 123.22Z" fill="#E0E0E0"/>
<path d="M199.092 274.797V202.725H127.019V274.797H199.092Z" fill="#F5F5F5"/>
<path d="M199.105 353.333V281.26H127.033V353.333H199.105Z" fill="#F5F5F5"/>
<path d="M199.105 431.881V359.809H127.033V431.881H199.105Z" fill="#F5F5F5"/>
<path d="M147.107 201.769H179.071C179.067 203.75 178.279 205.648 176.878 207.049C175.478 208.449 173.579 209.238 171.598 209.241H154.634C153.648 209.247 152.672 209.057 151.76 208.684C150.848 208.312 150.018 207.762 149.319 207.068C148.62 206.374 148.064 205.548 147.685 204.639C147.305 203.73 147.109 202.754 147.107 201.769Z" fill="#E0E0E0"/>
<path d="M147.107 280.304H179.071C179.071 282.286 178.284 284.187 176.882 285.588C175.481 286.989 173.58 287.777 171.598 287.777H154.634C153.648 287.784 152.67 287.596 151.758 287.223C150.845 286.851 150.015 286.302 149.315 285.607C148.615 284.913 148.06 284.086 147.681 283.176C147.302 282.266 147.107 281.29 147.107 280.304Z" fill="#E0E0E0"/>
<path d="M147.107 358.839H179.071C179.071 360.821 178.284 362.722 176.882 364.123C175.481 365.525 173.58 366.312 171.598 366.312H154.634C153.648 366.319 152.67 366.131 151.758 365.759C150.845 365.386 150.015 364.837 149.315 364.142C148.615 363.448 148.06 362.622 147.681 361.712C147.302 360.801 147.107 359.825 147.107 358.839Z" fill="#E0E0E0"/>
<path d="M122.59 441.414L122.59 114.644H82.1576L82.1576 441.414H122.59Z" fill="#F0F0F0"/>
<path d="M355.973 257.914H335.629L340.57 218.303H360.928L355.973 257.914Z" fill="#F0F0F0"/>
<path d="M360.484 257.914H340.127L345.082 218.303H365.426L360.484 257.914Z" fill="#F5F5F5"/>
<path d="M404.134 257.914H389.417L386.604 253.43H401.306L404.134 257.914Z" fill="#F0F0F0"/>
<path d="M482.978 257.914H393.914L391.1 253.43H470.968L482.978 257.914Z" fill="#FAFAFA"/>
<path d="M291.441 246.55H297.877C300.891 246.55 303.781 247.747 305.912 249.878C308.043 252.009 309.241 254.9 309.241 257.914H280.051C280.051 256.419 280.346 254.939 280.918 253.559C281.491 252.178 282.331 250.924 283.389 249.869C284.447 248.813 285.703 247.977 287.084 247.407C288.466 246.838 289.947 246.546 291.441 246.55Z" fill="#F0F0F0"/>
<path d="M362.948 238.108H342.604L345.081 218.303H365.425L362.948 238.108Z" fill="#F0F0F0"/>
<path d="M288.128 233.369H432.192C432.476 233.369 432.756 233.309 433.015 233.193C433.273 233.076 433.504 232.906 433.691 232.693C433.878 232.48 434.018 232.23 434.101 231.958C434.184 231.687 434.208 231.402 434.171 231.12L423.077 142.366C423.018 141.883 422.784 141.438 422.419 141.116C422.055 140.793 421.585 140.615 421.098 140.616H277.074C276.792 140.616 276.513 140.675 276.255 140.791C275.998 140.907 275.768 141.076 275.581 141.287C275.394 141.499 275.254 141.747 275.17 142.017C275.086 142.286 275.061 142.571 275.095 142.851L286.189 231.619C286.247 232.095 286.476 232.534 286.832 232.856C287.188 233.177 287.648 233.359 288.128 233.369Z" fill="#F0F0F0"/>
<path d="M290.309 233.369H434.279C434.563 233.369 434.843 233.309 435.101 233.193C435.36 233.076 435.59 232.906 435.778 232.693C435.965 232.48 436.105 232.23 436.188 231.958C436.271 231.687 436.295 231.402 436.258 231.12L425.164 142.366C425.102 141.884 424.867 141.441 424.503 141.119C424.139 140.797 423.671 140.618 423.185 140.616H279.215C278.932 140.616 278.653 140.675 278.396 140.791C278.139 140.907 277.909 141.076 277.722 141.287C277.534 141.499 277.394 141.747 277.311 142.017C277.227 142.286 277.201 142.571 277.235 142.851L288.33 231.619C288.389 232.102 288.623 232.546 288.988 232.869C289.352 233.191 289.822 233.369 290.309 233.369Z" fill="#F5F5F5"/>
<path d="M431.614 228.454L421.233 145.382C421.213 145.246 421.145 145.122 421.041 145.033C420.937 144.944 420.805 144.896 420.668 144.897H282.433C282.354 144.894 282.275 144.909 282.202 144.94C282.129 144.971 282.064 145.018 282.012 145.077C281.959 145.136 281.92 145.206 281.897 145.282C281.875 145.358 281.869 145.438 281.881 145.517L292.262 228.603C292.278 228.737 292.344 228.861 292.446 228.95C292.547 229.039 292.678 229.088 292.814 229.087H431.062C431.141 229.086 431.219 229.068 431.291 229.035C431.362 229.001 431.426 228.953 431.478 228.894C431.53 228.834 431.569 228.764 431.593 228.688C431.616 228.613 431.623 228.533 431.614 228.454Z" fill="#E0E0E0"/>
<path d="M378.996 257.914H345.848V257.496C345.848 256.621 346.195 255.782 346.814 255.164C347.433 254.545 348.272 254.198 349.146 254.198H375.697C376.572 254.198 377.411 254.545 378.03 255.164C378.649 255.782 378.996 256.621 378.996 257.496V257.914Z" fill="#FAFAFA"/>
<path d="M349.713 257.914H327.228V257.496C327.228 256.621 327.576 255.782 328.194 255.164C328.813 254.545 329.652 254.198 330.527 254.198H346.414C347.289 254.198 348.128 254.545 348.747 255.164C349.365 255.782 349.713 256.621 349.713 257.496V257.914Z" fill="#F0F0F0"/>
<path d="M156.801 77.739V77.6717C157.111 76.635 157.407 75.5848 157.663 74.5346C158.119 75.2605 158.739 75.8691 159.473 76.3111C160.208 76.7531 161.036 77.0163 161.89 77.0793H162.254C164.502 76.8638 166.657 74.6827 168.017 71.2494C168.043 71.1876 168.056 71.1212 168.056 71.0541C168.056 70.987 168.043 70.9206 168.017 70.8589C167.951 70.736 167.84 70.644 167.707 70.6031C166.093 70.194 164.411 70.1301 162.771 70.4155C161.13 70.7008 159.569 71.3291 158.188 72.2592C158.39 71.2628 158.565 70.253 158.713 69.2567C159.068 69.3252 159.429 69.3612 159.79 69.3644C163.452 69.3644 166.145 66.0927 166.28 65.9311C166.327 65.8718 166.36 65.8021 166.376 65.7278C166.391 65.6534 166.389 65.5765 166.369 65.5031C166.35 65.4297 166.313 65.362 166.262 65.3054C166.212 65.2487 166.149 65.2048 166.078 65.1771C165.227 64.7548 164.297 64.5172 163.347 64.4801C162.398 64.443 161.452 64.6071 160.571 64.9617C159.63 65.4401 158.87 66.21 158.403 67.1563C157.717 65.0495 156.463 63.1729 154.779 61.7332C153.094 60.2936 151.045 59.3468 148.857 58.9972C148.789 58.9811 148.719 58.9813 148.651 58.9977C148.583 59.014 148.52 59.0462 148.467 59.0914C148.41 59.1311 148.364 59.1834 148.331 59.2442C148.299 59.305 148.281 59.3725 148.278 59.4415C148.09 62.7671 148.198 66.8467 150.688 68.7855C151.73 69.5538 153.003 69.9433 154.297 69.8895C155.456 69.8616 156.605 69.6805 157.717 69.351C157.361 71.7572 156.844 74.1367 156.168 76.4734C153.732 73.1533 150.275 70.7226 146.326 69.5529C146.201 69.5239 146.07 69.544 145.96 69.6092C145.849 69.6744 145.769 69.7796 145.734 69.903C144.98 72.7708 145.37 75.1001 146.851 76.635C147.604 77.3116 148.486 77.8295 149.444 78.158C150.401 78.4865 151.415 78.6187 152.425 78.5468C153.511 78.54 154.593 78.4272 155.657 78.2102C155.037 80.176 154.31 82.1013 153.624 83.9324C152.129 82.586 147.726 79.247 142.933 80.6472C142.805 80.6899 142.698 80.7819 142.637 80.903C142.611 80.9648 142.597 81.0312 142.597 81.0983C142.597 81.1654 142.611 81.2318 142.637 81.2935C143.983 84.471 145.424 86.2348 147.282 86.8406C147.777 87.0039 148.296 87.0857 148.817 87.083C150.24 87.0225 151.626 86.6158 152.856 85.8982C151.833 88.3351 150.742 90.6105 149.706 92.6301C148.475 91.3752 146.929 90.4753 145.23 90.0251C143.531 89.575 141.742 89.5911 140.052 90.072C139.937 90.0948 139.834 90.16 139.764 90.2547C139.694 90.3493 139.663 90.4667 139.675 90.5836C139.794 91.6019 140.179 92.5709 140.791 93.3933C141.403 94.2157 142.221 94.8626 143.162 95.2691C143.872 95.5744 144.638 95.7303 145.411 95.7268C146.483 95.7134 147.536 95.4409 148.48 94.9325C147.43 96.8847 146.461 98.5139 145.707 99.7526H136.551C135.097 97.2617 133.414 94.165 131.772 90.6913C132.537 90.9197 133.329 91.0421 134.128 91.0548C135.11 91.067 136.081 90.853 136.967 90.4293C137.853 90.0056 138.629 89.3836 139.236 88.6115C139.842 87.8395 140.263 86.9381 140.465 85.9772C140.668 85.0164 140.646 84.0218 140.402 83.0707C140.371 82.9603 140.3 82.8651 140.203 82.8031C140.106 82.7411 139.99 82.7166 139.877 82.7341C138.007 82.9165 136.209 83.5463 134.634 84.5705C133.059 85.5946 131.754 86.9828 130.829 88.6179C129.752 86.1944 128.702 83.6227 127.786 80.9704C128.952 81.6334 130.257 82.0117 131.597 82.0744C132.128 82.0804 132.657 81.9939 133.158 81.8186C135.851 80.93 137.4 77.6851 138.719 74.3192C138.749 74.2584 138.764 74.1916 138.764 74.1239C138.764 74.0563 138.749 73.9895 138.719 73.9287C138.688 73.8669 138.644 73.8122 138.591 73.7682C138.538 73.7242 138.476 73.6917 138.409 73.6729C133.024 72.1649 128.594 77.3485 127.221 79.2066C126.503 76.9647 125.905 74.686 125.43 72.3803C126.561 72.6018 127.711 72.719 128.863 72.7304C130.009 72.8142 131.16 72.6613 132.244 72.2815C133.328 71.9016 134.322 71.3028 135.165 70.5223C136.794 68.7989 137.184 66.2139 136.309 63.0633C136.293 63.0015 136.266 62.9435 136.227 62.8929C136.189 62.8422 136.14 62.7998 136.085 62.7683C136.029 62.7369 135.968 62.717 135.905 62.7098C135.842 62.7027 135.778 62.7084 135.717 62.7267C131.42 64.0675 127.68 66.7768 125.067 70.4415L124.865 69.2163C124.85 69.1103 124.803 69.0114 124.73 68.9336C124.508 68.1369 124.121 67.3958 123.595 66.758C123.068 66.1202 122.414 65.6 121.674 65.231C120.702 64.8562 119.663 64.6913 118.623 64.747C117.584 64.8027 116.568 65.0778 115.642 65.5541C115.571 65.5849 115.507 65.631 115.456 65.6892C115.405 65.7474 115.367 65.8162 115.346 65.8907C115.329 65.9638 115.33 66.0399 115.349 66.1125C115.368 66.185 115.403 66.2521 115.453 66.3081C115.588 66.4831 118.55 69.9838 122.535 69.9838C122.965 69.9782 123.393 69.9332 123.814 69.8491C123.989 70.9936 124.205 72.138 124.447 73.269C122.912 72.2582 121.18 71.5844 119.365 71.292C117.55 70.9995 115.694 71.0952 113.918 71.5725C113.785 71.6134 113.674 71.7054 113.609 71.8283C113.582 71.8923 113.568 71.961 113.568 72.0303C113.568 72.0996 113.582 72.1682 113.609 72.2322C115.157 75.9752 117.554 78.3449 120.031 78.5468H120.368C121.62 78.5468 123.316 77.9679 125.04 75.6656C125.718 78.2834 126.536 80.8632 127.49 83.3939C125.161 82.2898 119.923 80.3914 116.18 83.2862C116.129 83.3234 116.086 83.3706 116.053 83.425C116.02 83.4793 115.999 83.5398 115.99 83.6027C115.981 83.6655 115.985 83.7295 116.002 83.7908C116.018 83.8521 116.047 83.9095 116.086 83.9594C118.51 87.258 120.745 88.8602 122.939 88.8602C124.757 88.8602 126.494 87.7158 128.231 85.4538C129.227 87.9312 130.304 90.3009 131.368 92.482C129.038 91.0414 126.48 91.2703 123.464 93.1687C123.395 93.2105 123.337 93.2697 123.297 93.3405C123.257 93.4113 123.236 93.4913 123.235 93.5726C123.23 93.6518 123.246 93.7311 123.281 93.8021C123.317 93.8732 123.371 93.9334 123.437 93.9765C125.234 95.2712 127.355 96.0405 129.564 96.1981C130.703 96.2207 131.82 95.8813 132.754 95.2287C133.616 96.8847 134.464 98.4062 135.245 99.766H131.085V102.136H132.593L133.845 114.684H152.277L153.516 102.136H155.037V99.766H146.757C147.673 98.2446 148.844 96.2115 150.096 93.8284C150.133 93.7805 150.161 93.7255 150.177 93.6669C150.5 93.061 150.81 92.4416 151.133 91.7954C151.68 92.6239 152.418 93.3092 153.285 93.7941C154.152 94.2789 155.122 94.5493 156.114 94.5824C156.321 94.5958 156.528 94.5958 156.734 94.5824C157.831 94.4581 158.872 94.0325 159.741 93.3528C160.611 92.6732 161.276 91.766 161.662 90.7317C161.701 90.6254 161.702 90.5084 161.662 90.402C161.622 90.2957 161.546 90.2072 161.446 90.1528C160.034 89.3553 158.453 88.9052 156.833 88.8396C155.213 88.7741 153.601 89.095 152.129 89.7758C152.829 88.3082 153.476 86.7329 154.176 85.1038C154.228 85.0434 154.261 84.9681 154.27 84.8884C154.458 84.4306 154.633 83.9728 154.822 83.542C156.424 85.5616 158.013 86.5579 159.669 86.5579C161.675 86.5579 163.708 85.0769 165.889 82.0205C165.965 81.9184 165.998 81.7906 165.98 81.6646C165.962 81.5387 165.896 81.4248 165.795 81.3473C162.362 78.7757 157.717 80.5395 155.535 81.5628C155.98 80.351 156.384 79.1258 156.761 77.8736L156.801 77.739Z" fill="#E0E0E0"/>
<path d="M541.884 72.0572H473.029V147.657H541.884V72.0572Z" fill="#E0E0E0"/>
<path d="M533.388 75.154C533.331 75.1677 533.271 75.1677 533.213 75.154C533.052 75.0463 516.787 65.3791 511.671 65.3791C506.554 65.3791 491.004 75.0462 490.842 75.1405C490.805 75.1648 490.764 75.1813 490.721 75.189C490.677 75.1967 490.633 75.1955 490.59 75.1854C490.547 75.1754 490.507 75.1566 490.471 75.1303C490.436 75.1041 490.406 75.0709 490.384 75.0328C490.339 74.9575 490.325 74.8675 490.345 74.782C490.365 74.6964 490.418 74.6222 490.492 74.575C491.138 74.1711 506.312 64.7059 511.671 64.7059C517.029 64.7059 532.944 74.1307 533.617 74.575C533.655 74.5971 533.688 74.6267 533.715 74.6621C533.741 74.6974 533.76 74.7378 533.77 74.7807C533.78 74.8235 533.781 74.868 533.773 74.9114C533.766 74.9547 533.749 74.996 533.725 75.0328C533.687 75.0839 533.635 75.1226 533.575 75.1442C533.515 75.1658 533.45 75.1692 533.388 75.154Z" fill="#EBEBEB"/>
<path d="M549.329 72.0572H478.213V147.657H549.329V72.0572Z" fill="#F5F5F5"/>
<path d="M543.379 141.693V78.0083H484.178V141.693H543.379Z" fill="white"/>
<path d="M525.243 121.324C531.578 114.988 531.579 104.715 525.243 98.3792C518.907 92.0433 508.634 92.0434 502.298 98.3792C495.962 104.715 495.962 114.988 502.298 121.324C508.634 127.659 518.907 127.659 525.243 121.324Z" fill="#E0E0E0"/>
<path d="M512.398 349.657H572.744C578.281 349.662 583.599 347.493 587.554 343.619C591.509 339.744 593.786 334.472 593.896 328.936L596.158 218.451C596.199 216.4 595.831 214.362 595.074 212.456C594.318 210.55 593.189 208.814 591.753 207.349C590.318 205.885 588.604 204.721 586.713 203.927C584.823 203.133 582.792 202.724 580.741 202.725H542.908C539.123 202.724 535.47 204.117 532.646 206.637C529.823 209.158 528.026 212.63 527.599 216.391L512.398 349.657Z" fill="#E6E6E6"/>
<path d="M545.33 349.657H481.026C480.226 349.657 479.459 349.339 478.894 348.774C478.328 348.208 478.01 347.441 478.01 346.641V346.358C478.01 344.166 478.881 342.063 480.432 340.513C481.982 338.962 484.085 338.091 486.277 338.091H545.33V349.657Z" fill="#E6E6E6"/>
<path d="M540.255 442.922C539.942 442.929 539.636 442.826 539.39 442.632C539.145 442.438 538.974 442.164 538.909 441.858L520.059 351.003H487.207L468.358 441.858C468.284 442.215 468.072 442.529 467.768 442.729C467.464 442.93 467.092 443.002 466.735 442.929C466.378 442.855 466.065 442.643 465.864 442.339C465.663 442.035 465.592 441.663 465.665 441.306L484.757 349.388C484.82 349.079 484.989 348.802 485.235 348.605C485.481 348.409 485.788 348.304 486.103 348.311H521.109C521.424 348.304 521.731 348.409 521.978 348.605C522.224 348.802 522.393 349.079 522.456 349.388L541.534 441.306C541.606 441.654 541.537 442.017 541.343 442.314C541.149 442.612 540.845 442.821 540.497 442.895C540.418 442.914 540.337 442.923 540.255 442.922Z" fill="#E6E6E6"/>
<path d="M519.776 442.922C519.687 442.935 519.596 442.935 519.507 442.922C519.334 442.886 519.169 442.817 519.023 442.718C518.876 442.619 518.75 442.493 518.653 442.345C518.555 442.197 518.488 442.032 518.454 441.859C518.421 441.685 518.422 441.506 518.457 441.333L537.549 349.415C537.612 349.106 537.781 348.829 538.027 348.632C538.273 348.436 538.58 348.331 538.895 348.338H573.901C574.216 348.331 574.524 348.436 574.77 348.632C575.016 348.829 575.185 349.106 575.248 349.415L594.326 441.333C594.363 441.51 594.364 441.692 594.329 441.869C594.295 442.047 594.227 442.215 594.127 442.366C594.028 442.517 593.9 442.646 593.75 442.747C593.601 442.849 593.433 442.919 593.256 442.956C593.079 442.992 592.897 442.993 592.72 442.959C592.542 442.924 592.374 442.856 592.223 442.756C592.072 442.657 591.943 442.529 591.842 442.379C591.74 442.23 591.67 442.062 591.634 441.885L572.784 351.03H539.905L521.055 441.885C520.987 442.175 520.824 442.434 520.593 442.622C520.361 442.809 520.074 442.915 519.776 442.922Z" fill="#E6E6E6"/>
<path d="M336.597 502.217C480.773 502.217 597.65 495.393 597.65 486.976C597.65 478.558 480.773 471.735 336.597 471.735C192.422 471.735 75.5449 478.558 75.5449 486.976C75.5449 495.393 192.422 502.217 336.597 502.217Z" fill="#F5F5F5"/>
<path d="M359.635 474.535C359.213 474.534 358.805 474.388 358.479 474.12C358.152 473.853 357.928 473.481 357.845 473.068L332.263 347.099H287.711L262.129 473.068C262.007 473.516 261.719 473.902 261.324 474.146C260.928 474.39 260.454 474.475 259.998 474.382C259.542 474.289 259.139 474.027 258.87 473.648C258.6 473.269 258.485 472.801 258.548 472.341L284.426 344.904C284.512 344.492 284.736 344.121 285.062 343.854C285.388 343.587 285.795 343.44 286.216 343.437H333.744C334.166 343.438 334.575 343.584 334.901 343.851C335.227 344.119 335.451 344.491 335.535 344.904L361.426 472.341C361.521 472.815 361.425 473.309 361.157 473.712C360.89 474.116 360.473 474.397 359.999 474.495L359.635 474.535Z" fill="#407BFF"/>
<path d="M288.128 474.535C287.707 474.532 287.299 474.384 286.974 474.117C286.648 473.85 286.423 473.48 286.337 473.068L260.756 347.099H216.204L190.622 473.068C190.588 473.316 190.504 473.554 190.374 473.769C190.245 473.983 190.072 474.168 189.868 474.313C189.664 474.458 189.432 474.56 189.187 474.612C188.942 474.664 188.689 474.665 188.443 474.615C188.198 474.565 187.965 474.466 187.76 474.322C187.554 474.179 187.381 473.995 187.249 473.782C187.118 473.569 187.031 473.331 186.995 473.083C186.96 472.835 186.975 472.582 187.041 472.341L212.932 344.904C213.016 344.491 213.239 344.119 213.566 343.851C213.892 343.584 214.301 343.438 214.722 343.437H262.25C262.67 343.438 263.077 343.585 263.401 343.853C263.725 344.12 263.947 344.492 264.028 344.904L289.919 472.341C290.014 472.815 289.917 473.309 289.65 473.712C289.382 474.116 288.966 474.397 288.492 474.495L288.128 474.535Z" fill="#407BFF"/>
<path d="M298.133 345.281H216.272C208.758 345.283 201.543 342.338 196.176 337.079C190.809 331.821 187.718 324.667 187.567 317.155L184.524 192.748C184.467 189.967 184.965 187.203 185.989 184.617C187.013 182.031 188.543 179.676 190.489 177.688C192.435 175.701 194.758 174.122 197.322 173.043C199.885 171.965 202.639 171.409 205.42 171.408H256.745C261.881 171.411 266.837 173.304 270.668 176.725C274.499 180.146 276.938 184.858 277.519 189.961L298.133 345.281Z" fill="#407BFF"/>
<path d="M253.486 329.528H333.597C336.571 329.528 339.424 330.71 341.527 332.813C343.631 334.917 344.812 337.769 344.812 340.744V341.134C344.812 342.206 344.387 343.233 343.629 343.99C342.872 344.748 341.844 345.174 340.773 345.174H253.486V329.528Z" fill="#407BFF"/>
<g opacity="0.3">
<path d="M359.635 474.535C359.213 474.534 358.805 474.388 358.479 474.12C358.152 473.853 357.928 473.481 357.845 473.068L332.263 347.099H287.711L262.129 473.068C262.007 473.516 261.719 473.902 261.324 474.146C260.928 474.39 260.454 474.475 259.998 474.382C259.542 474.289 259.139 474.027 258.87 473.648C258.6 473.269 258.485 472.801 258.548 472.341L284.426 344.904C284.512 344.492 284.736 344.121 285.062 343.854C285.388 343.587 285.795 343.44 286.216 343.437H333.744C334.166 343.438 334.575 343.584 334.901 343.851C335.227 344.119 335.451 344.491 335.535 344.904L361.426 472.341C361.521 472.815 361.425 473.309 361.157 473.712C360.89 474.116 360.473 474.397 359.999 474.495L359.635 474.535Z" fill="black"/>
<path d="M288.128 474.535C287.707 474.532 287.299 474.384 286.974 474.117C286.648 473.85 286.423 473.48 286.337 473.068L260.756 347.099H216.204L190.622 473.068C190.588 473.316 190.504 473.554 190.374 473.769C190.245 473.983 190.072 474.168 189.868 474.313C189.664 474.458 189.432 474.56 189.187 474.612C188.942 474.664 188.689 474.665 188.443 474.615C188.198 474.565 187.965 474.466 187.76 474.322C187.554 474.179 187.381 473.995 187.249 473.782C187.118 473.569 187.031 473.331 186.995 473.083C186.96 472.835 186.975 472.582 187.041 472.341L212.932 344.904C213.016 344.491 213.239 344.119 213.566 343.851C213.892 343.584 214.301 343.438 214.722 343.437H262.25C262.67 343.438 263.077 343.585 263.401 343.853C263.725 344.12 263.947 344.492 264.028 344.904L289.919 472.341C290.014 472.815 289.917 473.309 289.65 473.712C289.382 474.116 288.966 474.397 288.492 474.495L288.128 474.535Z" fill="black"/>
<path d="M298.133 345.281H216.272C208.758 345.283 201.543 342.338 196.176 337.079C190.809 331.821 187.718 324.667 187.567 317.155L184.524 192.748C184.467 189.967 184.965 187.203 185.989 184.617C187.013 182.031 188.543 179.676 190.489 177.688C192.435 175.701 194.758 174.122 197.322 173.043C199.885 171.965 202.639 171.409 205.42 171.408H256.745C261.881 171.411 266.837 173.304 270.668 176.725C274.499 180.146 276.938 184.858 277.519 189.961L298.133 345.281Z" fill="black"/>
<path d="M253.486 329.528H333.597C336.571 329.528 339.424 330.71 341.527 332.813C343.631 334.917 344.812 337.769 344.812 340.744V341.134C344.812 342.206 344.387 343.233 343.629 343.99C342.872 344.748 341.844 345.174 340.773 345.174H253.486V329.528Z" fill="black"/>
</g>
<path d="M275.352 164.541C275.352 164.541 286.797 179.486 279.392 209.241C271.986 238.997 233.776 222.84 231.46 196.02C228.767 164.406 264.258 186.205 270.505 158.092L275.352 164.541Z" fill="#263238"/>
<path d="M267.044 155.668C262.076 159.169 260.11 164.258 265.603 169.24C271.097 174.222 278.933 174.06 281.302 172.014C283.672 169.967 283.201 159.573 283.201 159.573L267.044 155.668Z" fill="#407BFF"/>
<path opacity="0.8" d="M267.044 155.668C262.076 159.169 260.11 164.258 265.603 169.24C271.097 174.222 278.933 174.06 281.302 172.014C283.672 169.967 283.201 159.573 283.201 159.573L267.044 155.668Z" fill="white"/>
<path d="M329.786 221.898C329.921 222.503 330.15 223.446 330.365 224.24L331.011 226.772C331.469 228.468 331.967 230.164 332.492 231.861C333.489 235.281 334.593 238.687 335.751 242.094C336.909 245.5 338.093 248.825 339.386 252.272C340.019 253.955 340.652 255.652 341.325 257.335L342.106 259.354C342.262 259.7 342.466 260.022 342.712 260.31C344.628 262.249 346.963 263.723 349.538 264.619C352.682 265.884 355.924 266.893 359.232 267.635C362.652 268.429 366.166 269.089 369.72 269.641C373.275 270.193 376.923 270.637 380.424 270.987L380.545 278.231C372.864 279.025 365.122 279.025 357.441 278.231C353.427 277.817 349.457 277.046 345.579 275.928C343.479 275.294 341.435 274.488 339.467 273.518C337.201 272.417 335.128 270.958 333.327 269.196C332.282 268.156 331.377 266.984 330.634 265.709C330.432 265.386 330.257 265.023 330.069 264.686L329.719 263.959L329.099 262.613C328.265 260.903 327.43 259.193 326.663 257.456C325.101 253.982 323.579 250.482 322.219 246.914C320.86 243.346 319.527 239.751 318.396 236.142C317.844 234.284 317.305 232.44 316.807 230.541L316.066 227.701C315.851 226.677 315.649 225.829 315.434 224.617L329.786 221.898Z" fill="#E58A7B"/>
<path d="M325.209 206.602C330.985 208.07 335.011 231.82 335.011 231.82L319.11 242.592C319.11 242.592 303.855 218.626 308.339 212.284C312.93 205.768 316.78 204.502 325.209 206.602Z" fill="#407BFF"/>
<path opacity="0.5" d="M325.209 206.602C330.985 208.07 335.011 231.82 335.011 231.82L319.11 242.592C319.11 242.592 303.855 218.626 308.339 212.284C312.93 205.768 316.78 204.502 325.209 206.602Z" fill="white"/>
<path opacity="0.2" d="M323.134 212.581L309.307 223.54C311.999 230.198 315.275 236.605 319.095 242.686L330.122 235.186L323.134 212.581Z" fill="#407BFF"/>
<path d="M325.208 206.603C325.208 206.603 331.94 208.945 318.476 291.116H261.632C262.588 267.971 262.614 253.699 251.561 206.185C259.52 204.546 267.588 203.484 275.701 203.008C284.303 202.394 292.937 202.394 301.539 203.008C312.633 204.071 325.208 206.603 325.208 206.603Z" fill="#407BFF"/>
<path opacity="0.5" d="M325.208 206.603C325.208 206.603 331.94 208.945 318.476 291.116H261.632C262.588 267.971 262.614 253.699 251.561 206.185C259.52 204.546 267.588 203.484 275.701 203.008C284.303 202.394 292.937 202.394 301.539 203.008C312.633 204.071 325.208 206.603 325.208 206.603Z" fill="white"/>
<path d="M378.337 270.92L388.26 260.849L389.606 275.04C389.606 275.04 382.161 280.075 377.018 277.369L378.337 270.92Z" fill="#E58A7B"/>
<path d="M399.974 259.354L400.418 271.283L389.593 275.04L388.287 260.849L399.974 259.354Z" fill="#E58A7B"/>
<path d="M382.996 461.475H396.999L399.153 429.04H385.15L382.996 461.475Z" fill="#E58A7B"/>
<path d="M328.803 461.475H342.805L347.302 429.04H333.3L328.803 461.475Z" fill="#E58A7B"/>
<path d="M343.681 459.846H327.941C327.67 459.84 327.406 459.934 327.2 460.111C326.994 460.287 326.86 460.533 326.824 460.802L325.033 473.256C325.001 473.571 325.035 473.888 325.134 474.189C325.232 474.489 325.393 474.766 325.604 475.001C325.816 475.235 326.075 475.423 326.364 475.552C326.653 475.68 326.965 475.747 327.282 475.747C332.761 475.653 335.36 475.329 342.321 475.329C346.575 475.329 357.495 475.774 363.378 475.774C369.262 475.774 369.572 469.957 367.121 469.432C356.148 467.063 349.713 463.818 346.01 460.708C345.361 460.153 344.535 459.847 343.681 459.846Z" fill="#263238"/>
<path d="M398.089 459.846H382.377C382.106 459.843 381.844 459.938 381.639 460.114C381.433 460.29 381.298 460.534 381.259 460.802L379.469 473.256C379.437 473.571 379.471 473.888 379.569 474.189C379.668 474.489 379.828 474.766 380.04 475.001C380.252 475.235 380.511 475.423 380.799 475.552C381.088 475.68 381.401 475.747 381.717 475.747C387.197 475.653 389.795 475.329 396.756 475.329C401.024 475.329 409.816 475.774 415.7 475.774C421.584 475.774 421.894 469.957 419.443 469.432C408.47 467.063 404.148 463.818 400.459 460.708C399.797 460.148 398.957 459.842 398.089 459.846Z" fill="#263238"/>
<path d="M314.048 145.638C319.084 145.961 321.642 171.219 306.872 169.752C292.102 168.284 314.048 145.638 314.048 145.638Z" fill="#263238"/>
<path d="M399.153 429.04L398.036 445.763H384.033L385.137 429.04H399.153Z" fill="#CF6F64"/>
<path d="M333.3 429.04H347.316L344.987 445.763H330.971L333.3 429.04Z" fill="#CF6F64"/>
<path opacity="0.2" d="M257.242 232.601C258.589 239.495 259.545 245.446 260.272 250.805L263.597 225.075L257.242 232.601Z" fill="#407BFF"/>
<path d="M278.259 173.979C279.888 182.287 281.518 197.514 275.701 203.061C275.701 203.061 277.977 211.49 293.42 211.49C310.398 211.49 301.498 203.061 301.498 203.061C292.221 200.853 292.464 193.973 294.079 187.524L278.259 173.979Z" fill="#E58A7B"/>
<path d="M290.35 213.294L295.52 211.436L294.833 210.022L290.35 213.294Z" fill="#263238"/>
<path d="M300.382 212.217L295.521 211.436L296.572 209.861L300.382 212.217Z" fill="#263238"/>
<path d="M277.586 199.143L274.072 202.563C273.967 202.671 273.908 202.816 273.908 202.967C273.908 203.118 273.967 203.263 274.072 203.371L288.883 220.241C289.587 216.235 291.732 212.624 294.915 210.09C282.662 205.458 279.471 200.665 278.381 199.319C278.356 199.24 278.31 199.17 278.249 199.115C278.188 199.059 278.114 199.021 278.034 199.003C277.954 198.986 277.87 198.989 277.791 199.014C277.713 199.038 277.642 199.083 277.586 199.143Z" fill="#407BFF"/>
<path d="M298.751 201.729L303.114 202.913C303.244 202.95 303.363 203.02 303.457 203.117C303.552 203.214 303.619 203.334 303.652 203.465C304.885 208.999 304.653 214.758 302.979 220.174C302.36 217.885 300.286 212.405 296.57 209.861C300.609 207.074 298.98 203.479 298.401 202.119C298.383 202.068 298.378 202.014 298.388 201.961C298.398 201.907 298.422 201.858 298.458 201.818C298.495 201.778 298.541 201.748 298.593 201.732C298.644 201.717 298.699 201.715 298.751 201.729Z" fill="#407BFF"/>
<path d="M284.736 179.5L294.16 187.511C293.769 189.012 293.503 190.543 293.366 192.088C289.825 191.577 284.965 187.699 284.588 184.01C284.357 182.51 284.407 180.981 284.736 179.5Z" fill="#CF6F64"/>
<path d="M277.359 152.087C275.756 165.888 274.773 171.704 280.428 179.944C288.911 192.344 306.225 191.294 311.92 178.247C317.05 166.507 318.801 145.934 306.414 138.071C303.689 136.332 300.565 135.318 297.338 135.126C294.111 134.935 290.889 135.571 287.977 136.976C285.066 138.38 282.562 140.506 280.703 143.151C278.845 145.796 277.693 148.872 277.359 152.087Z" fill="#E58A7B"/>
<path d="M308.918 129.292C286.097 120.285 268.957 130.45 265.416 144.897C259.855 167.328 277.614 168.903 277.614 168.903L279.836 163.168C283.027 165.093 291.953 164.245 289.261 147.59C287.672 138.165 299.601 151.293 314.734 149.825C318.76 149.435 324.267 135.351 308.918 129.292Z" fill="#263238"/>
<path d="M316.686 134.84C313.683 130.221 307.544 126.263 294.82 124.392C294.82 124.392 301.431 125.886 303.572 130.72C305.713 135.553 320.308 140.4 316.686 134.84Z" fill="#263238"/>
<path d="M272.968 164.03C272.875 165.357 273.045 166.689 273.468 167.951C273.89 169.212 274.558 170.378 275.432 171.381C277.788 174.074 280.885 172.418 281.854 169.186C282.716 166.265 282.541 161.364 279.39 159.883C276.24 158.402 273.224 160.744 272.968 164.03Z" fill="#E58A7B"/>
<path d="M318.516 291.17C318.516 291.17 412.414 299.908 411.498 342.602C410.542 387.033 401.037 442.531 401.037 442.531H381.635C381.635 442.531 379.979 395.569 379.414 351.825C379.131 329.044 288.397 324.479 288.397 324.479L276.684 291.17H318.516Z" fill="#263238"/>
<path d="M303.491 291.17C303.491 291.17 364.173 311.298 365.708 336.207C368.522 382.065 348.367 442.572 348.367 442.572H329.261C329.261 442.572 330.352 402.449 332.627 360.899C335.509 308.686 243.388 360.172 261.632 291.21L303.491 291.17Z" fill="#263238"/>
<path d="M297.325 159.613C297.123 160.717 297.554 161.727 298.281 161.862C299.008 161.996 299.749 161.189 299.951 160.085C300.153 158.98 299.722 157.957 298.995 157.836C298.268 157.715 297.554 158.496 297.325 159.613Z" fill="#263238"/>
<path d="M309.886 161.862C309.684 162.966 310.115 163.976 310.842 164.11C311.569 164.245 312.323 163.437 312.525 162.333C312.727 161.229 312.296 160.206 311.569 160.085C310.842 159.963 310.088 160.744 309.886 161.862Z" fill="#263238"/>
<path d="M311.232 160.085L314.046 159.788C314.046 159.788 312.363 161.633 311.232 160.085Z" fill="#263238"/>
<path d="M306.223 163.168C306.762 165.881 307.668 168.508 308.916 170.977C308.282 171.266 307.593 171.415 306.897 171.415C306.2 171.415 305.511 171.266 304.877 170.977L306.223 163.168Z" fill="#DF5753"/>
<path d="M300.246 174.572C298.769 174.337 297.368 173.758 296.156 172.881C294.944 172.004 293.956 170.853 293.272 169.523C293.249 169.471 293.248 169.412 293.268 169.359C293.288 169.306 293.328 169.264 293.38 169.24C293.434 169.222 293.492 169.224 293.545 169.246C293.597 169.268 293.639 169.31 293.663 169.361C294.31 170.618 295.242 171.707 296.386 172.539C297.529 173.371 298.851 173.925 300.246 174.154C300.302 174.167 300.351 174.201 300.384 174.248C300.416 174.296 300.43 174.353 300.422 174.41C300.411 174.451 300.389 174.489 300.358 174.517C300.327 174.546 300.288 174.565 300.246 174.572Z" fill="#263238"/>
<path d="M294.376 154.645C294.318 154.647 294.26 154.636 294.206 154.613C294.153 154.59 294.105 154.555 294.067 154.51C294.026 154.473 293.993 154.427 293.971 154.376C293.949 154.325 293.938 154.27 293.938 154.214C293.938 154.159 293.949 154.104 293.971 154.053C293.993 154.002 294.026 153.956 294.067 153.918C294.792 153.209 295.677 152.685 296.647 152.39C297.617 152.095 298.644 152.037 299.641 152.222C299.746 152.253 299.836 152.323 299.891 152.419C299.946 152.514 299.962 152.626 299.937 152.733C299.924 152.788 299.901 152.839 299.868 152.884C299.836 152.929 299.794 152.967 299.747 152.996C299.699 153.025 299.646 153.044 299.591 153.052C299.536 153.06 299.479 153.057 299.425 153.043C298.565 152.891 297.681 152.947 296.847 153.207C296.013 153.467 295.254 153.923 294.632 154.537C294.56 154.599 294.471 154.637 294.376 154.645Z" fill="#263238"/>
<path d="M316.753 156.853C316.669 156.856 316.587 156.833 316.517 156.787C316.447 156.742 316.393 156.675 316.362 156.597C316.033 155.789 315.518 155.07 314.858 154.499C314.198 153.928 313.412 153.522 312.565 153.312C312.456 153.292 312.358 153.231 312.293 153.14C312.227 153.05 312.2 152.938 312.215 152.827C312.235 152.715 312.298 152.615 312.392 152.549C312.485 152.484 312.601 152.458 312.713 152.477C313.7 152.706 314.616 153.169 315.385 153.828C316.154 154.487 316.752 155.321 317.13 156.261C317.175 156.364 317.178 156.482 317.138 156.588C317.098 156.694 317.017 156.779 316.914 156.826L316.753 156.853Z" fill="#263238"/>
<path d="M260.057 226.502C258.832 230.541 257.512 234.581 256.341 238.728C255.169 242.874 253.931 246.914 252.867 251.02C251.803 255.127 250.794 259.193 250.04 263.138C249.676 265.13 249.34 267.11 249.151 268.968C249.043 269.897 248.989 270.772 248.976 271.58C248.976 271.768 248.976 271.58 248.841 271.27C248.677 270.905 248.449 270.572 248.168 270.287C247.481 269.695 247.226 269.802 247.535 269.897C248.099 270.034 248.679 270.093 249.259 270.072C251.071 270.009 252.874 269.78 254.644 269.385C258.655 268.501 262.607 267.373 266.479 266.005C274.436 263.313 282.515 260.028 290.378 256.675L293.851 263.016C286.392 267.907 278.594 272.262 270.518 276.05C266.336 278.022 262.022 279.7 257.606 281.072C255.148 281.82 252.623 282.33 250.067 282.593C248.47 282.757 246.859 282.716 245.273 282.472C244.221 282.314 243.193 282.02 242.217 281.597C240.955 281.051 239.812 280.264 238.851 279.281C236.984 277.313 235.914 274.722 235.849 272.01C235.781 270.664 235.768 269.318 235.849 268.106C235.943 265.615 236.172 263.259 236.481 260.957C237.128 256.352 237.962 251.909 238.986 247.493C240.009 243.076 241.1 238.808 242.298 234.527C243.496 230.245 244.789 226.044 246.337 221.763L260.057 226.502Z" fill="#E58A7B"/>
<path d="M348.475 462.202C347.234 462.172 346.001 462 344.799 461.691C344.754 461.682 344.713 461.66 344.681 461.628C344.648 461.595 344.626 461.554 344.617 461.509C344.609 461.464 344.614 461.418 344.632 461.376C344.65 461.334 344.68 461.298 344.718 461.273C345.19 460.963 349.39 458.244 350.993 458.957C351.161 459.033 351.305 459.154 351.409 459.306C351.513 459.457 351.574 459.635 351.585 459.819C351.652 460.118 351.64 460.429 351.55 460.722C351.461 461.014 351.296 461.279 351.073 461.489C350.318 462.025 349.398 462.278 348.475 462.202ZM345.445 461.367C348.044 461.906 349.996 461.839 350.75 461.139C350.914 460.979 351.035 460.78 351.101 460.561C351.167 460.342 351.176 460.11 351.127 459.886C351.122 459.78 351.088 459.678 351.029 459.59C350.969 459.502 350.887 459.432 350.791 459.388C349.767 458.93 346.927 460.452 345.445 461.367Z" fill="#407BFF"/>
<path d="M344.852 461.704H344.731C344.693 461.682 344.662 461.651 344.641 461.613C344.619 461.575 344.608 461.532 344.609 461.489C344.609 461.327 344.609 457.342 346.117 456.022C346.294 455.853 346.508 455.727 346.741 455.654C346.975 455.582 347.222 455.565 347.464 455.605C347.706 455.603 347.942 455.685 348.131 455.837C348.32 455.989 348.451 456.202 348.501 456.44C348.783 457.894 346.441 460.869 344.973 461.704H344.852ZM347.221 456.022C346.925 456.024 346.641 456.14 346.427 456.345C345.363 457.288 345.148 459.954 345.081 461.017C346.427 460.048 348.231 457.597 348.002 456.507C348.002 456.332 347.868 456.103 347.383 456.036L347.221 456.022Z" fill="#407BFF"/>
<path d="M403.353 462.202C401.874 462.169 400.4 462.003 398.951 461.704C398.903 461.692 398.86 461.667 398.827 461.631C398.793 461.595 398.771 461.55 398.762 461.502C398.755 461.453 398.764 461.402 398.789 461.358C398.813 461.314 398.851 461.28 398.897 461.26C399.516 460.937 405.05 458.109 406.733 459.025C406.879 459.106 407.002 459.222 407.092 459.363C407.181 459.504 407.234 459.666 407.244 459.833C407.282 460.113 407.251 460.399 407.152 460.664C407.053 460.929 406.891 461.166 406.679 461.354C405.7 462.008 404.526 462.307 403.353 462.202ZM399.732 461.367C401.536 461.677 405.117 462.121 406.356 461.017C406.51 460.873 406.629 460.694 406.701 460.495C406.774 460.296 406.798 460.083 406.773 459.873C406.772 459.782 406.746 459.692 406.699 459.614C406.652 459.536 406.584 459.472 406.504 459.429C405.4 458.836 401.684 460.412 399.732 461.367Z" fill="#407BFF"/>
<path d="M399.004 461.704C398.96 461.718 398.913 461.718 398.869 461.704C398.837 461.678 398.81 461.646 398.791 461.608C398.773 461.571 398.763 461.53 398.762 461.489C398.762 461.327 399.098 457.598 400.822 456.103C401.063 455.897 401.344 455.743 401.648 455.651C401.951 455.558 402.27 455.529 402.585 455.564C403.447 455.645 403.69 456.076 403.757 456.413C403.999 457.961 400.741 460.923 399.098 461.664L399.004 461.704ZM402.33 456.022C401.887 456.02 401.46 456.184 401.131 456.48C399.866 457.53 399.421 460.048 399.287 461.058C401.051 460.075 403.461 457.544 403.326 456.507C403.326 456.399 403.326 456.103 402.585 456.036L402.33 456.022Z" fill="#407BFF"/>
<path d="M290.054 256.89L303.329 253.524L297.001 266.275C297.001 266.275 288.021 266.665 285.059 261.657L290.054 256.89Z" fill="#E58A7B"/>
<path d="M314.061 258.358L308.19 268.752L297.002 266.275L303.33 253.524L314.061 258.358Z" fill="#E58A7B"/>
<path d="M298.658 157.836L301.472 157.54C301.472 157.54 299.735 159.384 298.658 157.836Z" fill="#263238"/>
<path d="M260.784 287.831L260.326 292.92C260.137 293.324 260.595 293.728 261.255 293.728H318.8C319.311 293.728 319.729 293.472 319.769 293.149L320.281 288.059C320.281 287.709 319.864 287.413 319.312 287.413H261.713C261.535 287.398 261.357 287.429 261.194 287.502C261.032 287.575 260.89 287.688 260.784 287.831Z" fill="#407BFF"/>
<path d="M268.525 294.28H266.977C266.667 294.28 266.438 294.118 266.452 293.93L267.179 287.305C267.179 287.117 267.475 286.955 267.785 286.955H269.279C269.589 286.955 269.818 287.117 269.804 287.305L269.077 293.93C269.091 294.118 268.821 294.28 268.525 294.28Z" fill="#263238"/>
<path d="M314.465 294.28H312.916C312.607 294.28 312.378 294.118 312.391 293.93L313.118 287.305C313.118 287.117 313.414 286.955 313.724 286.955H315.259C315.569 286.955 315.798 287.117 315.784 287.305L315.057 293.93C315.057 294.118 314.761 294.28 314.465 294.28Z" fill="#263238"/>
<path d="M291.494 294.28H289.946C289.636 294.28 289.407 294.118 289.42 293.93L290.148 287.305C290.148 287.117 290.444 286.955 290.753 286.955H292.288C292.598 286.955 292.827 287.117 292.813 287.305L292.086 293.93C292.059 294.118 291.804 294.28 291.494 294.28Z" fill="#263238"/>
<path d="M251.56 206.239C245.851 207.976 239.012 227.593 239.012 227.593L257.39 245.54C257.39 245.54 269.184 227.027 266.815 219.663C264.297 211.988 258.063 204.273 251.56 206.239Z" fill="#407BFF"/>
<path opacity="0.5" d="M251.56 206.239C245.851 207.976 239.012 227.593 239.012 227.593L257.39 245.54C257.39 245.54 269.184 227.027 266.815 219.663C264.297 211.988 258.063 204.273 251.56 206.239Z" fill="white"/>
<path d="M556.951 277.181H449.832V485.535H556.951V277.181Z" fill="#407BFF"/>
<path opacity="0.6" d="M556.951 277.181H449.832V485.535H556.951V277.181Z" fill="white"/>
<path d="M349.432 277.181H242.312V485.535H349.432V277.181Z" fill="#407BFF"/>
<path opacity="0.6" d="M349.432 277.181H242.312V485.535H349.432V277.181Z" fill="white"/>
<path d="M560.965 277.181H552.133V485.535H560.965V277.181Z" fill="#407BFF"/>
<path opacity="0.3" d="M560.965 277.181H552.133V485.535H560.965V277.181Z" fill="black"/>
<path d="M350.711 292.812H563.697V277.181H350.711V292.812Z" fill="#407BFF"/>
<path opacity="0.3" d="M350.711 292.812H563.697V277.181H350.711V292.812Z" fill="black"/>
<path d="M353.457 277.181H344.625V485.535H353.457V277.181Z" fill="#407BFF"/>
<path opacity="0.3" d="M353.457 277.181H344.625V485.535H353.457V277.181Z" fill="black"/>
<path d="M350.198 327.024H556.547V282.014H350.198V327.024Z" fill="#407BFF"/>
<path opacity="0.3" d="M350.198 327.024H556.547V282.014H350.198V327.024Z" fill="black"/>
<path d="M557.006 491.594H497.536C493.498 491.59 489.627 489.985 486.772 487.13C483.917 484.275 482.312 480.404 482.308 476.366V288.733C482.308 285.162 480.89 281.737 478.365 279.212C475.84 276.687 472.415 275.269 468.844 275.269H451.045V273.922H468.831C472.759 273.922 476.526 275.483 479.303 278.26C482.081 281.038 483.641 284.805 483.641 288.733V476.366C483.645 480.047 485.108 483.575 487.711 486.178C490.313 488.78 493.842 490.244 497.522 490.248H557.006C558.019 490.25 559.006 489.932 559.827 489.34C560.648 488.748 561.261 487.911 561.579 486.95C561.897 485.989 561.903 484.952 561.597 483.987C561.291 483.023 560.688 482.179 559.874 481.577L560.668 480.5C561.707 481.271 562.477 482.349 562.868 483.583C563.258 484.816 563.25 486.141 562.845 487.37C562.439 488.598 561.657 489.668 560.609 490.426C559.56 491.184 558.3 491.593 557.006 491.594Z" fill="#407BFF"/>
<path opacity="0.3" d="M557.006 491.594H497.536C493.498 491.59 489.627 489.985 486.772 487.13C483.917 484.275 482.312 480.404 482.308 476.366V288.733C482.308 285.162 480.89 281.737 478.365 279.212C475.84 276.687 472.415 275.269 468.844 275.269H451.045V273.922H468.831C472.759 273.922 476.526 275.483 479.303 278.26C482.081 281.038 483.641 284.805 483.641 288.733V476.366C483.645 480.047 485.108 483.575 487.711 486.178C490.313 488.78 493.842 490.244 497.522 490.248H557.006C558.019 490.25 559.006 489.932 559.827 489.34C560.648 488.748 561.261 487.911 561.579 486.95C561.897 485.989 561.903 484.952 561.597 483.987C561.291 483.023 560.688 482.179 559.874 481.577L560.668 480.5C561.707 481.271 562.477 482.349 562.868 483.583C563.258 484.816 563.25 486.141 562.845 487.37C562.439 488.598 561.657 489.668 560.609 490.426C559.56 491.184 558.3 491.593 557.006 491.594Z" fill="black"/>
<path d="M565.676 338.657H564.33V364.683H565.676V338.657Z" fill="#407BFF"/>
<path opacity="0.3" d="M565.676 338.657H564.33V364.683H565.676V338.657Z" fill="black"/>
<path d="M565.676 323.295H564.33V330.134H565.676V323.295Z" fill="#407BFF"/>
<path opacity="0.3" d="M565.676 323.295H564.33V330.134H565.676V323.295Z" fill="black"/>
<path d="M467.065 214.977H367.244L352.783 273.922H452.591L467.065 214.977Z" fill="#407BFF"/>
<path opacity="0.4" d="M467.065 214.977H367.244L352.783 273.922H452.591L467.065 214.977Z" fill="white"/>
<path d="M355.838 273.922L355.434 277.181H316.268L316.672 273.922H355.838Z" fill="#407BFF"/>
<path opacity="0.4" d="M355.838 273.922L355.434 277.181H316.268L316.672 273.922H355.838Z" fill="white"/>
<path d="M455.661 273.922L455.257 277.181H355.436L355.839 273.922H455.661Z" fill="#407BFF"/>
<path opacity="0.5" d="M455.661 273.922L455.257 277.181H355.436L355.839 273.922H455.661Z" fill="black"/>
<path d="M470.134 214.977H370.312L355.852 273.922H455.66L470.134 214.977Z" fill="#407BFF"/>
<path opacity="0.5" d="M470.134 214.977H370.312L355.852 273.922H455.66L470.134 214.977Z" fill="black"/>
<path d="M508.684 262.33C508.684 262.33 493.994 237.004 514.325 216.849C514.325 216.849 519.643 220.322 519.562 224.927C519.482 229.532 513.867 230.77 515.065 234.648C516.264 238.526 521.582 242.363 518.095 245.581C514.608 248.799 518.66 251.653 518.418 255.584C518.176 259.516 508.684 262.33 508.684 262.33Z" fill="#407BFF"/>
<path d="M509.8 264.646C509.8 264.646 515.751 235.981 490.062 223.284C490.062 223.284 486.104 228.252 487.652 232.709C489.201 237.166 494.896 236.452 494.977 240.532C495.057 244.611 491.234 249.889 495.556 251.841C499.877 253.794 496.902 257.792 498.396 261.455C499.891 265.117 509.8 264.646 509.8 264.646Z" fill="#407BFF"/>
<path opacity="0.5" d="M509.8 264.646C509.8 264.646 515.751 235.981 490.062 223.284C490.062 223.284 486.104 228.252 487.652 232.709C489.201 237.166 494.896 236.452 494.977 240.532C495.057 244.611 491.234 249.889 495.556 251.841C499.877 253.794 496.902 257.792 498.396 261.455C499.891 265.117 509.8 264.646 509.8 264.646Z" fill="black"/>
<path d="M487.289 258.291C487.289 258.291 487.787 277.14 506.516 277.14C525.244 277.14 525.729 258.291 525.729 258.291H487.289Z" fill="#407BFF"/>
<path opacity="0.5" d="M487.289 258.291C487.289 258.291 487.787 277.14 506.516 277.14C525.244 277.14 525.729 258.291 525.729 258.291H487.289Z" fill="black"/>
<path d="M386.617 134.786L370.622 114.119L354.627 134.786H362.153V161.539H379.091V134.786H386.617Z" fill="#407BFF"/>
<path d="M433.539 159.088C433.539 149.09 437.511 139.501 444.581 132.431C451.651 125.361 461.24 121.389 471.238 121.389V131.204C467.579 131.203 463.955 131.922 460.574 133.321C457.192 134.72 454.12 136.772 451.532 139.359C448.943 141.946 446.89 145.017 445.49 148.398C444.089 151.778 443.368 155.402 443.368 159.061L433.539 159.088Z" fill="#407BFF"/>
<path d="M433.539 159.088H443.368C443.368 166.48 446.304 173.569 451.531 178.796C456.757 184.022 463.846 186.959 471.238 186.959C476.129 186.968 480.933 185.676 485.16 183.216L490.088 191.792C484.357 195.101 477.855 196.843 471.238 196.843C464.62 196.843 458.119 195.101 452.388 191.792C446.657 188.483 441.898 183.723 438.589 177.992C435.28 172.261 433.539 165.76 433.539 159.142V159.088Z" fill="#407BFF"/>
<path opacity="0.5" d="M433.539 159.088H443.368C443.368 166.48 446.304 173.569 451.531 178.796C456.757 184.022 463.846 186.959 471.238 186.959C476.129 186.968 480.933 185.676 485.16 183.216L490.088 191.792C484.357 195.101 477.855 196.843 471.238 196.843C464.62 196.843 458.119 195.101 452.388 191.792C446.657 188.483 441.898 183.723 438.589 177.992C435.28 172.261 433.539 165.76 433.539 159.142V159.088Z" fill="white"/>
<path d="M471.238 131.204V121.362C479.564 121.33 487.665 124.055 494.279 129.112C500.893 134.168 505.647 141.272 507.8 149.314C509.952 157.357 509.382 165.886 506.178 173.57C502.974 181.254 497.316 187.661 490.088 191.792L485.173 183.27C490.527 180.222 494.719 175.486 497.094 169.803C499.469 164.119 499.894 157.809 498.301 151.859C496.708 145.908 493.188 140.654 488.292 136.916C483.395 133.179 477.398 131.171 471.238 131.204Z" fill="#407BFF"/>
<path opacity="0.7" d="M471.238 131.204V121.362C479.564 121.33 487.665 124.055 494.279 129.112C500.893 134.168 505.647 141.272 507.8 149.314C509.952 157.357 509.382 165.886 506.178 173.57C502.974 181.254 497.316 187.661 490.088 191.792L485.173 183.27C490.527 180.222 494.719 175.486 497.094 169.803C499.469 164.119 499.894 157.809 498.301 151.859C496.708 145.908 493.188 140.654 488.292 136.916C483.395 133.179 477.398 131.171 471.238 131.204Z" fill="black"/>
<path d="M435.842 66.5774H401.495C400.27 66.5774 399.096 67.064 398.23 67.93C397.364 68.7961 396.877 69.9708 396.877 71.1956V134.705C396.888 135.923 397.379 137.087 398.244 137.944C399.109 138.802 400.277 139.283 401.495 139.283H445.455C446.677 139.279 447.849 138.791 448.712 137.925C449.575 137.06 450.06 135.887 450.06 134.665V80.8088L435.842 66.5774Z" fill="#263238"/>
<path d="M433.823 132.968H405.266C404.73 132.968 404.216 132.755 403.838 132.377C403.459 131.998 403.246 131.484 403.246 130.949C403.25 130.415 403.464 129.905 403.842 129.529C404.221 129.153 404.732 128.942 405.266 128.942H433.836C434.37 128.942 434.881 129.153 435.26 129.529C435.638 129.905 435.852 130.415 435.856 130.949C435.852 131.485 435.636 131.999 435.256 132.377C434.875 132.756 434.36 132.968 433.823 132.968Z" fill="#407BFF"/>
<path d="M420.359 76.985H405.266C404.732 76.9851 404.221 76.7741 403.842 76.3983C403.464 76.0225 403.25 75.5122 403.246 74.9789C403.246 74.4433 403.459 73.9296 403.838 73.5508C404.216 73.1721 404.73 72.9593 405.266 72.9593H420.372C420.908 72.9593 421.422 73.1721 421.8 73.5508C422.179 73.9296 422.392 74.4433 422.392 74.9789C422.39 75.2441 422.336 75.5064 422.233 75.7508C422.13 75.9951 421.98 76.2168 421.791 76.4031C421.602 76.5893 421.378 76.7366 421.133 76.8365C420.887 76.9363 420.624 76.9868 420.359 76.985Z" fill="#407BFF"/>
<path d="M430.228 84.9827H405.266C404.732 84.9827 404.221 84.7717 403.842 84.3959C403.464 84.0201 403.25 83.5098 403.246 82.9765C403.246 82.4409 403.459 81.9272 403.838 81.5485C404.216 81.1697 404.73 80.9569 405.266 80.9569H430.241C430.775 80.9605 431.285 81.1748 431.661 81.5532C432.037 81.9316 432.247 82.4432 432.247 82.9765C432.247 83.2411 432.195 83.5031 432.093 83.7474C431.992 83.9916 431.843 84.2134 431.655 84.3999C431.467 84.5863 431.245 84.7338 431 84.8338C430.755 84.9339 430.492 84.9844 430.228 84.9827Z" fill="#407BFF"/>
<path d="M441.699 92.9802H405.266C404.732 92.9802 404.221 92.7693 403.842 92.3935C403.464 92.0176 403.25 91.5074 403.246 90.9741C403.246 90.4385 403.459 89.9248 403.838 89.546C404.216 89.1673 404.73 88.9545 405.266 88.9545H441.713C442.248 88.9545 442.762 89.1673 443.141 89.546C443.519 89.9248 443.732 90.4385 443.732 90.9741C443.73 91.2393 443.676 91.5016 443.573 91.7459C443.47 91.9903 443.32 92.2119 443.131 92.3982C442.942 92.5845 442.719 92.7318 442.473 92.8317C442.227 92.9315 441.964 92.982 441.699 92.9802Z" fill="#407BFF"/>
<path d="M441.698 100.978H420.506C419.973 100.978 419.461 100.767 419.083 100.391C418.704 100.015 418.49 99.505 418.486 98.9717C418.486 98.4361 418.699 97.9224 419.078 97.5436C419.457 97.1649 419.97 96.9521 420.506 96.9521H441.698C442.234 96.9521 442.748 97.1649 443.126 97.5436C443.505 97.9224 443.718 98.4361 443.718 98.9717C443.714 99.505 443.5 100.015 443.121 100.391C442.743 100.767 442.231 100.978 441.698 100.978Z" fill="#407BFF"/>
<path d="M410.786 100.978H405.266C404.732 100.978 404.221 100.767 403.842 100.391C403.464 100.015 403.25 99.505 403.246 98.9717C403.246 98.4361 403.459 97.9224 403.838 97.5436C404.216 97.1649 404.73 96.9521 405.266 96.9521H410.799C411.335 96.9521 411.849 97.1649 412.227 97.5436C412.606 97.9224 412.819 98.4361 412.819 98.9717C412.817 99.2369 412.763 99.4992 412.66 99.7435C412.557 99.9879 412.407 100.21 412.218 100.396C412.029 100.582 411.806 100.729 411.56 100.829C411.314 100.929 411.051 100.98 410.786 100.978Z" fill="#407BFF"/>
<path d="M441.699 108.975H405.266C404.73 108.975 404.216 108.763 403.838 108.384C403.459 108.005 403.246 107.491 403.246 106.956C403.25 106.423 403.464 105.912 403.842 105.536C404.221 105.161 404.732 104.95 405.266 104.95H441.713C442.246 104.95 442.758 105.161 443.136 105.536C443.514 105.912 443.729 106.423 443.732 106.956C443.732 107.222 443.68 107.486 443.577 107.732C443.475 107.978 443.325 108.201 443.136 108.389C442.947 108.576 442.723 108.725 442.476 108.826C442.23 108.926 441.965 108.977 441.699 108.975Z" fill="#407BFF"/>
<path d="M427.629 116.973H405.266C404.73 116.973 404.216 116.76 403.838 116.381C403.459 116.003 403.246 115.489 403.246 114.953C403.25 114.42 403.464 113.91 403.842 113.534C404.221 113.158 404.732 112.947 405.266 112.947H427.643C428.176 112.947 428.688 113.158 429.066 113.534C429.444 113.91 429.659 114.42 429.662 114.953C429.662 115.22 429.61 115.483 429.507 115.729C429.405 115.975 429.255 116.199 429.066 116.386C428.877 116.574 428.653 116.722 428.406 116.823C428.16 116.924 427.896 116.975 427.629 116.973Z" fill="#407BFF"/>
<path d="M441.699 116.973H435.721C435.188 116.969 434.677 116.755 434.302 116.377C433.926 115.998 433.715 115.487 433.715 114.953C433.715 114.421 433.926 113.911 434.302 113.535C434.679 113.159 435.189 112.947 435.721 112.947H441.699C442.232 112.947 442.744 113.158 443.122 113.534C443.501 113.91 443.715 114.42 443.719 114.953C443.719 115.489 443.506 116.003 443.127 116.381C442.748 116.76 442.235 116.973 441.699 116.973Z" fill="#407BFF"/>
<path d="M441.699 124.971H405.266C404.73 124.971 404.216 124.758 403.838 124.379C403.459 124 403.246 123.487 403.246 122.951C403.25 122.418 403.464 121.907 403.842 121.532C404.221 121.156 404.732 120.945 405.266 120.945H441.713C442.246 120.945 442.758 121.156 443.136 121.532C443.514 121.907 443.729 122.418 443.732 122.951C443.732 123.217 443.68 123.481 443.577 123.727C443.475 123.973 443.325 124.196 443.136 124.384C442.947 124.572 442.723 124.72 442.476 124.821C442.23 124.921 441.965 124.972 441.699 124.971Z" fill="#407BFF"/>
<g opacity="0.5">
<path d="M433.823 132.968H405.266C404.73 132.968 404.216 132.755 403.838 132.377C403.459 131.998 403.246 131.484 403.246 130.949C403.25 130.415 403.464 129.905 403.842 129.529C404.221 129.153 404.732 128.942 405.266 128.942H433.836C434.37 128.942 434.881 129.153 435.26 129.529C435.638 129.905 435.852 130.415 435.856 130.949C435.852 131.485 435.636 131.999 435.256 132.377C434.875 132.756 434.36 132.968 433.823 132.968Z" fill="white"/>
</g>
<g opacity="0.5">
<path d="M420.359 76.985H405.266C404.732 76.9851 404.221 76.7741 403.842 76.3983C403.464 76.0225 403.25 75.5122 403.246 74.9789C403.246 74.4433 403.459 73.9296 403.838 73.5508C404.216 73.1721 404.73 72.9593 405.266 72.9593H420.372C420.908 72.9593 421.422 73.1721 421.8 73.5508C422.179 73.9296 422.392 74.4433 422.392 74.9789C422.39 75.2441 422.336 75.5064 422.233 75.7508C422.13 75.9951 421.98 76.2168 421.791 76.4031C421.602 76.5893 421.378 76.7366 421.133 76.8365C420.887 76.9363 420.624 76.9868 420.359 76.985Z" fill="white"/>
</g>
<g opacity="0.5">
<path d="M430.228 84.9827H405.266C404.732 84.9827 404.221 84.7717 403.842 84.3959C403.464 84.0201 403.25 83.5098 403.246 82.9765C403.246 82.4409 403.459 81.9272 403.838 81.5485C404.216 81.1697 404.73 80.9569 405.266 80.9569H430.241C430.775 80.9605 431.285 81.1748 431.661 81.5532C432.037 81.9316 432.247 82.4432 432.247 82.9765C432.247 83.2411 432.195 83.5031 432.093 83.7474C431.992 83.9916 431.843 84.2134 431.655 84.3999C431.467 84.5863 431.245 84.7338 431 84.8338C430.755 84.9339 430.492 84.9844 430.228 84.9827Z" fill="white"/>
</g>
<g opacity="0.5">
<path d="M441.699 92.9802H405.266C404.732 92.9802 404.221 92.7693 403.842 92.3935C403.464 92.0176 403.25 91.5074 403.246 90.9741C403.246 90.4385 403.459 89.9248 403.838 89.546C404.216 89.1673 404.73 88.9545 405.266 88.9545H441.713C442.248 88.9545 442.762 89.1673 443.141 89.546C443.519 89.9248 443.732 90.4385 443.732 90.9741C443.73 91.2393 443.676 91.5016 443.573 91.7459C443.47 91.9903 443.32 92.2119 443.131 92.3982C442.942 92.5845 442.719 92.7318 442.473 92.8317C442.227 92.9315 441.964 92.982 441.699 92.9802Z" fill="white"/>
</g>
<g opacity="0.5">
<path d="M441.698 100.978H420.506C419.973 100.978 419.461 100.767 419.083 100.391C418.704 100.015 418.49 99.505 418.486 98.9717C418.486 98.4361 418.699 97.9224 419.078 97.5436C419.457 97.1649 419.97 96.9521 420.506 96.9521H441.698C442.234 96.9521 442.748 97.1649 443.126 97.5436C443.505 97.9224 443.718 98.4361 443.718 98.9717C443.714 99.505 443.5 100.015 443.121 100.391C442.743 100.767 442.231 100.978 441.698 100.978Z" fill="white"/>
</g>
<g opacity="0.5">
<path d="M410.786 100.978H405.266C404.732 100.978 404.221 100.767 403.842 100.391C403.464 100.015 403.25 99.505 403.246 98.9717C403.246 98.4361 403.459 97.9224 403.838 97.5436C404.216 97.1649 404.73 96.9521 405.266 96.9521H410.799C411.335 96.9521 411.849 97.1649 412.227 97.5436C412.606 97.9224 412.819 98.4361 412.819 98.9717C412.817 99.2369 412.763 99.4992 412.66 99.7435C412.557 99.9879 412.407 100.21 412.218 100.396C412.029 100.582 411.806 100.729 411.56 100.829C411.314 100.929 411.051 100.98 410.786 100.978Z" fill="white"/>
</g>
<g opacity="0.5">
<path d="M441.699 108.975H405.266C404.73 108.975 404.216 108.763 403.838 108.384C403.459 108.005 403.246 107.491 403.246 106.956C403.25 106.423 403.464 105.912 403.842 105.536C404.221 105.161 404.732 104.95 405.266 104.95H441.713C442.246 104.95 442.758 105.161 443.136 105.536C443.514 105.912 443.729 106.423 443.732 106.956C443.732 107.222 443.68 107.486 443.577 107.732C443.475 107.978 443.325 108.201 443.136 108.389C442.947 108.576 442.723 108.725 442.476 108.826C442.23 108.926 441.965 108.977 441.699 108.975Z" fill="white"/>
</g>
<g opacity="0.5">
<path d="M427.629 116.973H405.266C404.73 116.973 404.216 116.76 403.838 116.381C403.459 116.003 403.246 115.489 403.246 114.953C403.25 114.42 403.464 113.91 403.842 113.534C404.221 113.158 404.732 112.947 405.266 112.947H427.643C428.176 112.947 428.688 113.158 429.066 113.534C429.444 113.91 429.659 114.42 429.662 114.953C429.662 115.22 429.61 115.483 429.507 115.729C429.405 115.975 429.255 116.199 429.066 116.386C428.877 116.574 428.653 116.722 428.406 116.823C428.16 116.924 427.896 116.975 427.629 116.973Z" fill="white"/>
</g>
<g opacity="0.5">
<path d="M441.699 116.973H435.721C435.188 116.969 434.677 116.755 434.302 116.377C433.926 115.998 433.715 115.487 433.715 114.953C433.715 114.421 433.926 113.911 434.302 113.535C434.679 113.159 435.189 112.947 435.721 112.947H441.699C442.232 112.947 442.744 113.158 443.122 113.534C443.501 113.91 443.715 114.42 443.719 114.953C443.719 115.489 443.506 116.003 443.127 116.381C442.748 116.76 442.235 116.973 441.699 116.973Z" fill="white"/>
</g>
<g opacity="0.5">
<path d="M441.699 124.971H405.266C404.73 124.971 404.216 124.758 403.838 124.379C403.459 124 403.246 123.487 403.246 122.951C403.25 122.418 403.464 121.907 403.842 121.532C404.221 121.156 404.732 120.945 405.266 120.945H441.713C442.246 120.945 442.758 121.156 443.136 121.532C443.514 121.907 443.729 122.418 443.732 122.951C443.732 123.217 443.68 123.481 443.577 123.727C443.475 123.973 443.325 124.196 443.136 124.384C442.947 124.572 442.723 124.72 442.476 124.821C442.23 124.921 441.965 124.972 441.699 124.971Z" fill="white"/>
</g>
<path d="M435.842 66.5774V76.1907C435.84 76.7976 435.958 77.399 436.19 77.9601C436.421 78.5212 436.761 79.031 437.19 79.4602C437.62 79.8894 438.129 80.2294 438.691 80.4609C439.252 80.6924 439.853 80.8106 440.46 80.8088H450.06L435.842 66.5774Z" fill="#407BFF"/>
<path opacity="0.5" d="M435.842 66.5774V76.1907C435.84 76.7976 435.958 77.399 436.19 77.9601C436.421 78.5212 436.761 79.031 437.19 79.4602C437.62 79.8894 438.129 80.2294 438.691 80.4609C439.252 80.6924 439.853 80.8106 440.46 80.8088H450.06L435.842 66.5774Z" fill="white"/>
</svg>
